<?xml version="1.0" encoding="UTF-8" standalone="no"?>
<svg
	xmlns:svg="http://www.w3.org/2000/svg"
	xmlns="http://www.w3.org/2000/svg"
	xmlns:xlink="http://www.w3.org/1999/xlink"
	version="1.1"
	width="566"
	height="566"
	viewBox="-3 -3 566 566">
	<title>Gomoku Game 1</title>
	<defs>
		<linearGradient id="LinearGradientWhite">
			<stop style="stop-color:white;stop-opacity:1" offset="0" />
			<stop style="stop-color:#e6e6e6;stop-opacity:1" offset="0.75" />
			<stop style="stop-color:#ccc;stop-opacity:1" offset="1" />
		</linearGradient>
		<linearGradient id="LinearGradientBlack">
			<stop style="stop-color:#ccc;stop-opacity:1" offset="0" />
			<stop style="stop-color:black;stop-opacity:1" offset="1" />
		</linearGradient>
		<linearGradient id="LinearGradientShadow">
			<stop style="stop-color:black;stop-opacity:1;" offset="0" />
			<stop style="stop-color:black;stop-opacity:0.5" offset="0.9" />
			<stop style="stop-color:black;stop-opacity:0" offset="1" />
		</linearGradient>
		<radialGradient id="RadialGradientWhite" xlink:href="#LinearGradientWhite"
			cx="0" cy="0" r="20" fx="-12" fy="-12" gradientUnits="userSpaceOnUse" />
		<radialGradient id="RadialGradientBlack" xlink:href="#LinearGradientBlack"
			cx="0" cy="0" r="20" fx="-12" fy="-12" gradientUnits="userSpaceOnUse" />
		<radialGradient id="RadialGradientShadow" xlink:href="#LinearGradientShadow"
			cx="2" cy="2" fx="2" fy="2" r="20" gradientUnits="userSpaceOnUse" />
		<circle id="BlackShadow" r="20" cx="2" cy="2"
			style="fill:url(#RadialGradientShadow);stroke:none" />
		<g id="Black01">
			<use xlink:href="#BlackShadow" />
			<circle id="BlackTile" cx="0" cy="0" r="20"
				style="fill:url(#RadialGradientBlack);fill-opacity:1;stroke:none" />
		</g>
		<g id="White01">
			<use xlink:href="#BlackShadow" />
			<circle id="WhiteTile" cx="0" cy="0" r="20"
				style="fill:url(#RadialGradientWhite);fill-opacity:1;stroke:none" />
		</g>
	</defs>
	<g>
		<rect id="rect3919" width="560" height="560" x="0" y="0"
			style="fill:#f4f0dc;stroke:black;stroke-width:2;stroke-miterlimit:4" />
		<path id="Gridz"
			d="M 0,40 H 560 M 0,80 H 560 M 0,120 H 560 M 0,160 H 560 M 0,200 H 560 M 0,240 H 560 M 0,280 H 560 M 0,320 H 560 M 0,360 H 560 560 M 0,400 H 560 M 0,440 H 560 M 0,480 H 560 M 0,520 H 560"
			style="fill:none;stroke:black;stroke-width:2;stroke-linecap:butt;stroke-linejoin:miter;stroke-miterlimit:4" />
		<use xlink:href="#Gridz" transform="matrix(0,-1,1,0,0,560)" />
		<use xlink:href="#Black01" transform="translate(240,240)" />
		<use xlink:href="#Black01" transform="translate(280,240)" />
		<use xlink:href="#Black01" transform="translate(320,240)" />
		<use xlink:href="#Black01" transform="translate(280,280)" />
		<use xlink:href="#Black01" transform="translate(240,320)" />
		<use xlink:href="#Black01" transform="translate(280,320)" />
		<use xlink:href="#Black01" transform="translate(320,320)" />
		<use xlink:href="#Black01" transform="translate(240,360)" />
		<use xlink:href="#Black01" transform="translate(200,400)" />
		<use xlink:href="#Black01" transform="translate(240,400)" />
		<use xlink:href="#Black01" transform="translate(280,400)" />
		<use xlink:href="#White01" transform="translate(200,280)" />
		<use xlink:href="#White01" transform="translate(240,280)" />
		<use xlink:href="#White01" transform="translate(320,280)" />
		<use xlink:href="#White01" transform="translate(200,320)" />
		<use xlink:href="#White01" transform="translate(360,320)" />
		<use xlink:href="#White01" transform="translate(200,360)" />
		<use xlink:href="#White01" transform="translate(280,360)" />
		<use xlink:href="#White01" transform="translate(360,360)" />
		<use xlink:href="#White01" transform="translate(160,400)" />
		<use xlink:href="#White01" transform="translate(240,440)" />
	</g>
	<g id="Texts" style="font-size:20px;font-style:normal;font-variant:normal;font-weight:bold;text-align:start;text-anchor:start;stroke:none;font-family:Liberation Sans,sans-serif">
		<g style="fill:white">
			<text	x="228.38379"	y="247.06543">15</text>
			<text	x="268.51074"	y="247.06543">13</text>
			<text	x="310.24902"	y="247.1875">21</text>
			<text	x="275.27344"	y="287.1875">1</text>
			<text	x="234.49219"	y="327.06543">3</text>
			<text	x="274.29688"	y="326.93848">5</text>
			<text	x="309.70703"	y="327.1875">11</text>
			<text	x="234.45801"	y="367.06055">7</text>
			<text	x="194.58496"	y="407.06055">9</text>
			<text	x="228.52539"	y="407.1875">17</text>
			<text	x="268.54492"	y="407.06055">19</text>
		</g>
		<g style="fill:black">
			<text	x="194.48242"	y="287.06055">8</text>
			<text	x="234.69238"	y="287.1875">2</text>
			<text	x="308.57422"	y="287.06543">10</text>
			<text	x="194.48242"	y="327.1875">4</text>
			<text	x="348.58398"	y="327.1875">12</text>
			<text	x="194.37012"	y="367.06543">6</text>
			<text	x="268.31055"	y="367.1875">14</text>
			<text	x="348.4375"	y="367.06543">16</text>
			<text	x="149.11621"	y="407.06543">20</text>
			<text	x="228.38379"	y="447.06543">18</text>
		</g>
	</g>
</svg>
