<?xml version="1.0"?>
<Project_Data Version="8.00">
<Project_Settings>
<ProfileName>MP4 with video player (up to 720p)</ProfileName>
<ProjectWidth>1280</ProjectWidth>
<ProjectHeight>720</ProjectHeight>
<IsCustomProject>1</IsCustomProject>
<SavedProjectSettings>1</SavedProjectSettings>
<LastFlashTemplate>-1</LastFlashTemplate>
</Project_Settings>


<AutoSaveFile>C:\Users\bsim\AppData\Local\TechSmith\Camtasia Studio\8.0\Auto-Saves\CS205 Project10d7caaa.autosave.camproj</AutoSaveFile>

<ProjectID>F7838F94-24E3-400A-A532-1A73AC2A2DFF</ProjectID>

<PowerPointProject>0</PowerPointProject>

<PowerPointFilename></PowerPointFilename>


<Project_Notes>
</Project_Notes>

<Project_MetaData>
<Project_MetaData_Object>
<FieldArrayKey>8</FieldArrayKey>
<Value>CS205 Project</Value>
</Project_MetaData_Object>
<Project_MetaData_Object>
<FieldArrayKey>13</FieldArrayKey>
<Value>2013-12-08 08:43:20 PM</Value>
</Project_MetaData_Object>
<Project_MetaData_Object>
<FieldArrayKey>16</FieldArrayKey>
<Value>ENU</Value>
</Project_MetaData_Object>
</Project_MetaData>

<CSMLData>
<GoProject id="1" version="3.0" >
 <Project id="2" editRate="30/1" version="3.0" >
  <Author></Author>
  <Comment></Comment>
  <System></System>
  <SourceBin id="3"  >
    <Source id="4" src="C:\Users\bsim\Dropbox\CS205\final\connectfive\video\AI Depth 2 Plays.camrec" lastMod="20131209T030053" rect="(0,0,660,716)" >
      <SourceTrack range="(0,1642666667)" type="0" editRate="10000000/1" trackRect="(0,0,660,716)" sampleRate="10000000/333333" bitDepth="24" numChannels="0" filename="AI Depth 2 Plays.camrec!Screen_Stream.avi" metaData="AI Depth 2 Plays.camrec!Events.dat;AI Depth 2 Plays.camrec!manifest.camxml;" />
    </Source>
    <Source id="5" src="C:\Users\bsim\Dropbox\CS205\final\connectfive\video\AI Depth 1.camrec" lastMod="20131209T030053" rect="(0,0,1280,720)" >
      <SourceTrack range="(0,300000000)" type="0" editRate="10000000/1" trackRect="(0,0,1280,720)" sampleRate="10000000/333333" bitDepth="24" numChannels="0" filename="AI Depth 1.camrec!Screen_Stream.avi" metaData="AI Depth 1.camrec!Events.dat;AI Depth 1.camrec!manifest.camxml;" />
    </Source>
    <Source id="6" src="C:\ProgramData\TechSmith\Camtasia Studio\Library 2.0\Animated Intro(8)\Digital Stands.mp4" lastMod="20120320T223120" rect="(0,0,1280,720)" >
      <SourceTrack range="(0,200000000)" type="0" editRate="10000000/1" trackRect="(0,0,1280,720)" sampleRate="10000000/333333" bitDepth="24" numChannels="0" filename="" metaData="" />
    </Source>
    <Source id="7" src="C:\ProgramData\TechSmith\Camtasia Studio\Library 2.0\Animated Intro(7)\Dark Hallway.mp4" lastMod="20120320T222910" rect="(0,0,1280,720)" >
      <SourceTrack range="(0,200000000)" type="0" editRate="10000000/1" trackRect="(0,0,1280,720)" sampleRate="10000000/333333" bitDepth="24" numChannels="0" filename="" metaData="" />
    </Source>
    <Source id="8" src="C:\Users\bsim\Dropbox\CS205\final\connectfive\video\tree.png" lastMod="20131209T041823" rect="(0,0,783,508)" >
      <SourceTrack range="(0,1)" type="1" editRate="10000000/1" trackRect="(0,0,783,508)" sampleRate="0/1" bitDepth="24" numChannels="0" filename="" metaData="" />
    </Source>
    <Source id="9" src="C:\Users\bsim\Dropbox\CS205\final\connectfive\video\minimax.camrec" lastMod="20131209T043535" rect="(0,0,2284,1284)" >
      <SourceTrack range="(0,175666667)" type="0" editRate="10000000/1" trackRect="(0,0,2284,1284)" sampleRate="10000000/333333" bitDepth="24" numChannels="0" filename="minimax.camrec!Screen_Stream.avi" metaData="minimax.camrec!Events.dat;minimax.camrec!manifest.camxml;" />
      <SourceTrack range="(0,177000000)" type="2" editRate="10000000/1" trackRect="(0,0,0,0)" sampleRate="22050/1" bitDepth="16" numChannels="1" filename="minimax.camrec!Screen_Stream.avi" metaData="" />
      <SourceTrack range="(0,180666667)" type="2" editRate="10000000/1" trackRect="(0,0,0,0)" sampleRate="44100/1" bitDepth="16" numChannels="2" filename="minimax.camrec!SysAudio.wav" metaData="" />
    </Source>
    <Source id="10" src="C:\Users\bsim\Dropbox\CS205\final\connectfive\video\motivation.camrec" lastMod="20131209T043615" rect="(0,0,2284,1284)" >
      <SourceTrack range="(0,39333333)" type="0" editRate="10000000/1" trackRect="(0,0,2284,1284)" sampleRate="10000000/333333" bitDepth="24" numChannels="0" filename="motivation.camrec!Screen_Stream.avi" metaData="motivation.camrec!Events.dat;motivation.camrec!manifest.camxml;" />
      <SourceTrack range="(0,42000000)" type="2" editRate="10000000/1" trackRect="(0,0,0,0)" sampleRate="22050/1" bitDepth="16" numChannels="1" filename="motivation.camrec!Screen_Stream.avi" metaData="" />
      <SourceTrack range="(0,45000000)" type="2" editRate="10000000/1" trackRect="(0,0,0,0)" sampleRate="44100/1" bitDepth="16" numChannels="2" filename="motivation.camrec!SysAudio.wav" metaData="" />
    </Source>
    <Source id="11" src="C:\Users\bsim\Dropbox\CS205\final\connectfive\video\minimaxsplit.camrec" lastMod="20131209T043647" rect="(0,0,2284,1284)" >
      <SourceTrack range="(0,44333333)" type="0" editRate="10000000/1" trackRect="(0,0,2284,1284)" sampleRate="10000000/333333" bitDepth="24" numChannels="0" filename="minimaxsplit.camrec!Screen_Stream.avi" metaData="minimaxsplit.camrec!Events.dat;minimaxsplit.camrec!manifest.camxml;" />
      <SourceTrack range="(0,47000000)" type="2" editRate="10000000/1" trackRect="(0,0,0,0)" sampleRate="22050/1" bitDepth="16" numChannels="1" filename="minimaxsplit.camrec!Screen_Stream.avi" metaData="" />
      <SourceTrack range="(0,50000000)" type="2" editRate="10000000/1" trackRect="(0,0,0,0)" sampleRate="44100/1" bitDepth="16" numChannels="2" filename="minimaxsplit.camrec!SysAudio.wav" metaData="" />
    </Source>
    <Source id="12" src="C:\Users\bsim\Dropbox\CS205\final\connectfive\video\last.camrec" lastMod="20131209T043906" rect="(0,0,2284,1284)" >
      <SourceTrack range="(0,48666667)" type="0" editRate="10000000/1" trackRect="(0,0,2284,1284)" sampleRate="10000000/333333" bitDepth="24" numChannels="0" filename="last.camrec!Screen_Stream.avi" metaData="last.camrec!Events.dat;last.camrec!manifest.camxml;" />
      <SourceTrack range="(0,50000000)" type="2" editRate="10000000/1" trackRect="(0,0,0,0)" sampleRate="22050/1" bitDepth="16" numChannels="1" filename="last.camrec!Screen_Stream.avi" metaData="" />
      <SourceTrack range="(0,50333333)" type="2" editRate="10000000/1" trackRect="(0,0,0,0)" sampleRate="44100/1" bitDepth="16" numChannels="2" filename="last.camrec!SysAudio.wav" metaData="" />
    </Source>
    <Source id="13" src="C:\Users\bsim\Dropbox\CS205\final\connectfive\video\brandonreal1.wav" lastMod="20131209T045807" rect="(0,0,0,0)" >
      <SourceTrack range="(0,543666667)" type="2" editRate="10000000/1" trackRect="(0,0,0,0)" sampleRate="22050/1" bitDepth="16" numChannels="1" filename="" metaData="" />
    </Source>
    <Source id="14" src="C:\Users\bsim\Dropbox\CS205\final\connectfive\video\brandonreal2.wav" lastMod="20131209T045924" rect="(0,0,0,0)" >
      <SourceTrack range="(0,313666667)" type="2" editRate="10000000/1" trackRect="(0,0,0,0)" sampleRate="22050/1" bitDepth="16" numChannels="1" filename="" metaData="" />
    </Source>
    <Source id="15" src="C:\Users\bsim\Dropbox\CS205\final\connectfive\video\brandonreal3.wav" lastMod="20131209T045959" rect="(0,0,0,0)" >
      <SourceTrack range="(0,283666667)" type="2" editRate="10000000/1" trackRect="(0,0,0,0)" sampleRate="22050/1" bitDepth="16" numChannels="1" filename="" metaData="" />
    </Source>
    <Source id="16" src="C:\Users\bsim\Dropbox\CS205\final\connectfive\video\brandonrealshortened.wav" lastMod="20131209T050153" rect="(0,0,0,0)" >
      <SourceTrack range="(0,78666667)" type="2" editRate="10000000/1" trackRect="(0,0,0,0)" sampleRate="22050/1" bitDepth="16" numChannels="1" filename="" metaData="" />
    </Source>
    <Source id="17" src="C:\Users\bsim\Dropbox\CS205\final\connectfive\video\wesley1.wav" lastMod="20131209T050847" rect="(0,0,0,0)" >
      <SourceTrack range="(0,53666667)" type="2" editRate="10000000/1" trackRect="(0,0,0,0)" sampleRate="22050/1" bitDepth="16" numChannels="1" filename="" metaData="" />
    </Source>
    <Source id="18" src="C:\Users\bsim\Dropbox\CS205\final\connectfive\video\wesley2.wav" lastMod="20131209T050919" rect="(0,0,0,0)" >
      <SourceTrack range="(0,127333333)" type="2" editRate="10000000/1" trackRect="(0,0,0,0)" sampleRate="22050/1" bitDepth="16" numChannels="1" filename="" metaData="" />
    </Source>
    <Source id="19" src="C:\Users\bsim\Dropbox\CS205\final\connectfive\video\wesley3.wav" lastMod="20131209T050950" rect="(0,0,0,0)" >
      <SourceTrack range="(0,53666667)" type="2" editRate="10000000/1" trackRect="(0,0,0,0)" sampleRate="22050/1" bitDepth="16" numChannels="1" filename="" metaData="" />
    </Source>
    <Source id="20" src="C:\Users\bsim\Dropbox\CS205\final\connectfive\video\wesley4.wav" lastMod="20131209T051612" rect="(0,0,0,0)" >
      <SourceTrack range="(0,115000000)" type="2" editRate="10000000/1" trackRect="(0,0,0,0)" sampleRate="22050/1" bitDepth="16" numChannels="1" filename="" metaData="" />
    </Source>
    <Source id="21" src="C:\Users\bsim\Dropbox\CS205\final\connectfive\video\wesley5.wav" lastMod="20131209T051850" rect="(0,0,0,0)" >
      <SourceTrack range="(0,175000000)" type="2" editRate="10000000/1" trackRect="(0,0,0,0)" sampleRate="22050/1" bitDepth="16" numChannels="1" filename="" metaData="" />
    </Source>
    <Source id="22" src="C:\Users\bsim\Dropbox\CS205\final\connectfive\video\wesley6.wav" lastMod="20131209T052005" rect="(0,0,0,0)" >
      <SourceTrack range="(0,61333333)" type="2" editRate="10000000/1" trackRect="(0,0,0,0)" sampleRate="22050/1" bitDepth="16" numChannels="1" filename="" metaData="" />
    </Source>
    <Source id="23" src="C:\Users\bsim\Dropbox\CS205\final\connectfive\video\wesley7.wav" lastMod="20131209T052306" rect="(0,0,0,0)" >
      <SourceTrack range="(0,51333333)" type="2" editRate="10000000/1" trackRect="(0,0,0,0)" sampleRate="22050/1" bitDepth="16" numChannels="1" filename="" metaData="" />
    </Source>
    <Source id="24" src="C:\Users\bsim\Dropbox\CS205\final\connectfive\video\wesley8.wav" lastMod="20131209T052416" rect="(0,0,0,0)" >
      <SourceTrack range="(0,55000000)" type="2" editRate="10000000/1" trackRect="(0,0,0,0)" sampleRate="22050/1" bitDepth="16" numChannels="1" filename="" metaData="" />
    </Source>
    <Source id="25" src="C:\Users\bsim\Dropbox\CS205\final\connectfive\video\wesley9.wav" lastMod="20131209T052520" rect="(0,0,0,0)" >
      <SourceTrack range="(0,103666667)" type="2" editRate="10000000/1" trackRect="(0,0,0,0)" sampleRate="22050/1" bitDepth="16" numChannels="1" filename="" metaData="" />
    </Source>
    <Source id="26" src="C:\Users\bsim\Dropbox\CS205\final\connectfive\video\wesley10.wav" lastMod="20131209T052700" rect="(0,0,0,0)" >
      <SourceTrack range="(0,43666667)" type="2" editRate="10000000/1" trackRect="(0,0,0,0)" sampleRate="22050/1" bitDepth="16" numChannels="1" filename="" metaData="" />
    </Source>
    <Source id="27" src="C:\Users\bsim\Dropbox\CS205\final\connectfive\video\wesley11.wav" lastMod="20131209T052840" rect="(0,0,0,0)" >
      <SourceTrack range="(0,40000000)" type="2" editRate="10000000/1" trackRect="(0,0,0,0)" sampleRate="22050/1" bitDepth="16" numChannels="1" filename="" metaData="" />
    </Source>
    <Source id="28" src="C:\Users\bsim\Dropbox\CS205\final\connectfive\video\wesley12.wav" lastMod="20131209T053406" rect="(0,0,0,0)" >
      <SourceTrack range="(0,53666667)" type="2" editRate="10000000/1" trackRect="(0,0,0,0)" sampleRate="22050/1" bitDepth="16" numChannels="1" filename="" metaData="" />
    </Source>
    <Source id="29" src="C:\Users\bsim\Dropbox\CS205\final\connectfive\video\brandon2.wav" lastMod="20131209T053630" rect="(0,0,0,0)" >
      <SourceTrack range="(0,70000000)" type="2" editRate="10000000/1" trackRect="(0,0,0,0)" sampleRate="22050/1" bitDepth="16" numChannels="1" filename="" metaData="" />
    </Source>
    <Source id="30" src="C:\Users\bsim\Dropbox\CS205\final\connectfive\video\brandon3.wav" lastMod="20131209T053807" rect="(0,0,0,0)" >
      <SourceTrack range="(0,83666667)" type="2" editRate="10000000/1" trackRect="(0,0,0,0)" sampleRate="22050/1" bitDepth="16" numChannels="1" filename="" metaData="" />
    </Source>
    <Source id="31" src="C:\Users\bsim\Dropbox\CS205\final\connectfive\video\brandon4.wav" lastMod="20131209T054204" rect="(0,0,0,0)" >
      <SourceTrack range="(0,70000000)" type="2" editRate="10000000/1" trackRect="(0,0,0,0)" sampleRate="22050/1" bitDepth="16" numChannels="1" filename="" metaData="" />
    </Source>
    <Source id="32" src="C:\Users\bsim\Dropbox\CS205\final\connectfive\video\brandon5.wav" lastMod="20131209T055319" rect="(0,0,0,0)" >
      <SourceTrack range="(0,127333333)" type="2" editRate="10000000/1" trackRect="(0,0,0,0)" sampleRate="22050/1" bitDepth="16" numChannels="1" filename="" metaData="" />
    </Source>
    <Source id="33" src="C:\Users\bsim\Dropbox\CS205\final\connectfive\video\brandon6.wav" lastMod="20131209T055418" rect="(0,0,0,0)" >
      <SourceTrack range="(0,46333333)" type="2" editRate="10000000/1" trackRect="(0,0,0,0)" sampleRate="22050/1" bitDepth="16" numChannels="1" filename="" metaData="" />
    </Source>
    <Source id="34" src="C:\Users\bsim\Dropbox\CS205\final\connectfive\video\brandon7.wav" lastMod="20131209T055707" rect="(0,0,0,0)" >
      <SourceTrack range="(0,57333333)" type="2" editRate="10000000/1" trackRect="(0,0,0,0)" sampleRate="22050/1" bitDepth="16" numChannels="1" filename="" metaData="" />
    </Source>
    <Source id="35" src="C:\Users\bsim\Dropbox\CS205\final\connectfive\video\brandon8.wav" lastMod="20131209T055929" rect="(0,0,0,0)" >
      <SourceTrack range="(0,216333333)" type="2" editRate="10000000/1" trackRect="(0,0,0,0)" sampleRate="22050/1" bitDepth="16" numChannels="1" filename="" metaData="" />
    </Source>
    <Source id="36" src="C:\Users\bsim\Dropbox\CS205\final\connectfive\video\brandon9.wav" lastMod="20131209T060713" rect="(0,0,0,0)" >
      <SourceTrack range="(0,127333333)" type="2" editRate="10000000/1" trackRect="(0,0,0,0)" sampleRate="22050/1" bitDepth="16" numChannels="1" filename="" metaData="" />
    </Source>
  </SourceBin>
  <Timeline id="37"  >
   <Attributes>
    <Attribute id="38" value="1280" name="width"/>
    <Attribute id="39" value="720" name="height"/>
    <Attribute id="40" value="(0,0,0,255)" name="backgroundColor"/>
   </Attributes>
    <GenericMixer id="41"  name="Unified Mixer">
     <MetaData>
      <entry key="MixerType" val="TimelineMixer"/>
     </MetaData>
     <Tracks>
      <GenericTrack id="42"  >
       <Attributes>
        <Attribute id="43" value="" name="ident"/>
       </Attributes>
       <MetaData>
        <entry key="IsLocked" val="False"/>
        <entry key="WinTrackHeight" val="62"/>
       </MetaData>
       <Medias>
        <ScreenVMFile id="44" start="172" duration="593" scalar="658/527" mediaStart="0/1" mediaDuration="312511/658" trackNumber="0" src="9" >
         <Transformer>
          <VectorParam id="45"  name="translation">
           <InterpolatingParam id="46" interp="linr"  time="-9999999/1" value="0" leadInLength="0/1"  />
           <InterpolatingParam id="47" interp="linr"  time="-9999999/1" value="0" leadInLength="0/1"  />
           <InterpolatingParam id="48" interp="linr"  time="-9999999/1" value="0" leadInLength="0/1"  />
          </VectorParam>
          <VectorParam id="49"  name="rotation">
           <InterpolatingParam id="50" interp="linr"  time="-9999999/1" value="0" leadInLength="0/1"  />
           <InterpolatingParam id="51" interp="linr"  time="-9999999/1" value="0" leadInLength="0/1"  />
           <InterpolatingParam id="52" interp="linr"  time="-9999999/1" value="0" leadInLength="0/1"  />
          </VectorParam>
          <VectorParam id="53"  name="shear">
           <InterpolatingParam id="54" interp="linr"  time="-9999999/1" value="0" leadInLength="0/1"  />
           <InterpolatingParam id="55" interp="linr"  time="-9999999/1" value="0" leadInLength="0/1"  />
           <InterpolatingParam id="56" interp="linr"  time="-9999999/1" value="0" leadInLength="0/1"  />
          </VectorParam>
          <VectorParam id="57"  name="scale">
           <InterpolatingParam id="58" interp="linr"  time="-9999999/1" value="0.56042031523642732" leadInLength="0/1"  />
           <InterpolatingParam id="59" interp="linr"  time="-9999999/1" value="0.56042031523642732" leadInLength="0/1"  />
           <InterpolatingParam id="60" interp="linr"  time="-9999999/1" value="1" leadInLength="0/1"  />
          </VectorParam>
          <VectorParam id="61"  name="anchor">
           <InterpolatingParam id="62" interp="linr"  time="0/1" value="0" leadInLength="0/1"  />
           <InterpolatingParam id="63" interp="linr"  time="0/1" value="0" leadInLength="0/1"  />
           <InterpolatingParam id="64" interp="linr"  time="0/1" value="0" leadInLength="0/1"  />
          </VectorParam>
         </Transformer>
         <Parameters>
          <VectorParam id="65"  name="sourceCrop">
           <InterpolatingParam id="66" interp="linr"  time="0/1" value="0" leadInLength="0/1"  />
           <InterpolatingParam id="67" interp="linr"  time="0/1" value="0" leadInLength="0/1"  />
           <InterpolatingParam id="68" interp="linr"  time="0/1" value="0" leadInLength="0/1"  />
           <InterpolatingParam id="69" interp="linr"  time="0/1" value="0" leadInLength="0/1"  />
          </VectorParam>
          <VectorParam id="70"  name="geometryCrop">
           <InterpolatingParam id="71" interp="linr"  time="-9999999/1" value="0" leadInLength="0/1"  />
           <InterpolatingParam id="72" interp="linr"  time="-9999999/1" value="0" leadInLength="0/1"  />
           <InterpolatingParam id="73" interp="linr"  time="-9999999/1" value="0" leadInLength="0/1"  />
           <InterpolatingParam id="74" interp="linr"  time="-9999999/1" value="0" leadInLength="0/1"  />
          </VectorParam>
          <InterpolatingParam id="75" interp="linr"  time="-9999999/1" value="1" leadInLength="0/1"  name="opacity"/>
          <InterpolatingParam id="76" interp="linr"  time="0/1" value="1" leadInLength="0/1"  name="cursorOpacity"/>
          <InterpolatingParam id="77" interp="linr"  time="0/1" value="1" leadInLength="0/1"  name="cursorScale"/>
         </Parameters>
         <Effects>
          <GenericEffect id="78" name = "CursorBaseEffectName" >
           <Parameters>
           <InterpolatingParam id="79" interp="linr"  time="-9999999/1" value="1" leadInLength="0/1"   name="cursorSize"/>
           <InterpolatingParam id="80" interp="linr"  time="-9999999/1" value="0" leadInLength="0/1"   name="highlightBlurRadius"/>
           <InterpolatingParam id="81" interp="linr"  time="-9999999/1" value="0" leadInLength="0/1"   name="highlightColorBlue"/>
           <InterpolatingParam id="82" interp="linr"  time="-9999999/1" value="255" leadInLength="0/1"   name="highlightColorGreen"/>
           <InterpolatingParam id="83" interp="linr"  time="-9999999/1" value="255" leadInLength="0/1"   name="highlightColorRed"/>
           <InterpolatingParam id="84" interp="linr"  time="-9999999/1" value="5" leadInLength="0/1"   name="highlightFeatherSize"/>
           <InterpolatingParam id="85" interp="linr"  time="-9999999/1" value="2" leadInLength="0/1"   name="highlightMagnification"/>
           <InterpolatingParam id="86" interp="linr"  time="-9999999/1" value="1" leadInLength="0/1"   name="highlightOpacity"/>
           <InterpolatingParam id="87" interp="linr"  time="-9999999/1" value="45" leadInLength="0/1"   name="highlightSize"/>
           <Parameter id="88"   name="highlightType">
            <Keyframes>
            <Keyframe id="89"  time="-9999999/1" value="0" leadInLength="0/1"  />
            </Keyframes>
           </Parameter>
           <InterpolatingParam id="90" interp="linr"  time="-9999999/1" value="0" leadInLength="0/1"   name="leftClickColorBlue"/>
           <InterpolatingParam id="91" interp="linr"  time="-9999999/1" value="0" leadInLength="0/1"   name="leftClickColorGreen"/>
           <InterpolatingParam id="92" interp="linr"  time="-9999999/1" value="255" leadInLength="0/1"   name="leftClickColorRed"/>
           <InterpolatingParam id="93" interp="linr"  time="-9999999/1" value="0.80000000000000004" leadInLength="0/1"   name="leftClickDuration"/>
           <InterpolatingParam id="94" interp="linr"  time="-9999999/1" value="20" leadInLength="0/1"   name="leftClickSize"/>
           <Parameter id="95"   name="leftClickSoundFilename">
            <Keyframes>
            <Keyframe id="96"  time="-9999999/1" value="" leadInLength="0/1"  />
            </Keyframes>
           </Parameter>
           <InterpolatingParam id="97" interp="linr"  time="-9999999/1" value="1" leadInLength="0/1"   name="leftClickSoundVolume"/>
           <Parameter id="98"   name="leftClickType">
            <Keyframes>
            <Keyframe id="99"  time="-9999999/1" value="0" leadInLength="0/1"  />
            </Keyframes>
           </Parameter>
           <InterpolatingParam id="100" interp="linr"  time="-9999999/1" value="1" leadInLength="0/1"   name="opacity"/>
           <InterpolatingParam id="101" interp="linr"  time="-9999999/1" value="255" leadInLength="0/1"   name="rightClickColorBlue"/>
           <InterpolatingParam id="102" interp="linr"  time="-9999999/1" value="0" leadInLength="0/1"   name="rightClickColorGreen"/>
           <InterpolatingParam id="103" interp="linr"  time="-9999999/1" value="0" leadInLength="0/1"   name="rightClickColorRed"/>
           <InterpolatingParam id="104" interp="linr"  time="-9999999/1" value="0.80000000000000004" leadInLength="0/1"   name="rightClickDuration"/>
           <InterpolatingParam id="105" interp="linr"  time="-9999999/1" value="20" leadInLength="0/1"   name="rightClickSize"/>
           <Parameter id="106"   name="rightClickSoundFilename">
            <Keyframes>
            <Keyframe id="107"  time="-9999999/1" value="" leadInLength="0/1"  />
            </Keyframes>
           </Parameter>
           <InterpolatingParam id="108" interp="linr"  time="-9999999/1" value="1" leadInLength="0/1"   name="rightClickSoundVolume"/>
           <Parameter id="109"   name="rightClickType">
            <Keyframes>
            <Keyframe id="110"  time="-9999999/1" value="0" leadInLength="0/1"  />
            </Keyframes>
           </Parameter>
           </Parameters>
           <MetaData>
            <entry key="effectIndex" val="0"/>
           </MetaData>
          </GenericEffect>
         </Effects>
         <Attributes>
          <Attribute id="111" value="" name="ident"/>
         </Attributes>
         <MetaData>
          <entry key="AutoAppliedSmartFocus" val="False"/>
          <entry key="WinSubProjectDisplayName" val=""/>
         </MetaData>
         <ExtraData>
          <Entry key="ZoomPanBin">
           <ZoomPanBin id="112"  >
            <ZoomPanKeyframes>
             <ZoomPanKeyframe id="113" timeRangeEnd="-9999999/1" timeRangeDuration="0/1" interpolaterName="linr"  />
            </ZoomPanKeyframes>
           </ZoomPanBin>
          </Entry>
          <Entry key="CursorEffectBin">
           <CursorEffectBin id="114"  >
            <CursorEffectKeyframes>
             <CursorEffectKeyframe id="115" timeRangeEnd="-9999999/1" timeRangeDuration="0/1" interpolaterName=""  />
            </CursorEffectKeyframes>
           </CursorEffectBin>
          </Entry>
         </ExtraData>
        </ScreenVMFile>
        <StitchedMedia id="116" start="765" duration="357" scalar="1/1" mediaStart="0/1" mediaDuration="357/1" minMediaStart="-108000/1" >
         <Transformer>
          <VectorParam id="117"  name="translation">
           <InterpolatingParam id="118" interp="linr"  time="-9999999/1" value="0" leadInLength="0/1"  />
           <InterpolatingParam id="119" interp="linr"  time="-9999999/1" value="0" leadInLength="0/1"  />
           <InterpolatingParam id="120" interp="linr"  time="-9999999/1" value="0" leadInLength="0/1"  />
          </VectorParam>
          <VectorParam id="121"  name="rotation">
           <InterpolatingParam id="122" interp="linr"  time="-9999999/1" value="0" leadInLength="0/1"  />
           <InterpolatingParam id="123" interp="linr"  time="-9999999/1" value="0" leadInLength="0/1"  />
           <InterpolatingParam id="124" interp="linr"  time="-9999999/1" value="0" leadInLength="0/1"  />
          </VectorParam>
          <VectorParam id="125"  name="shear">
           <InterpolatingParam id="126" interp="linr"  time="-9999999/1" value="0" leadInLength="0/1"  />
           <InterpolatingParam id="127" interp="linr"  time="-9999999/1" value="0" leadInLength="0/1"  />
           <InterpolatingParam id="128" interp="linr"  time="-9999999/1" value="0" leadInLength="0/1"  />
          </VectorParam>
          <VectorParam id="129"  name="scale">
           <InterpolatingParam id="130" interp="linr"  time="-9999999/1" value="0.56042031523642732" leadInLength="0/1"  />
           <InterpolatingParam id="131" interp="linr"  time="-9999999/1" value="0.56042031523642732" leadInLength="0/1"  />
           <InterpolatingParam id="132" interp="linr"  time="-9999999/1" value="1" leadInLength="0/1"  />
          </VectorParam>
          <VectorParam id="133"  name="anchor">
           <InterpolatingParam id="134" interp="linr"  >
            <Keyframes>
            <Keyframe id="135"  time="0/1" value="0" leadInLength="0/1"  />
            <Keyframe id="136"  time="30/1" value="0" leadInLength="0/1"  />
            <Keyframe id="137"  time="90/1" value="0" leadInLength="0/1"  />
            <Keyframe id="138"  time="137/1" value="0" leadInLength="0/1"  />
            </Keyframes>
           </InterpolatingParam>
           <InterpolatingParam id="139" interp="linr"  >
            <Keyframes>
            <Keyframe id="140"  time="0/1" value="0" leadInLength="0/1"  />
            <Keyframe id="141"  time="30/1" value="0" leadInLength="0/1"  />
            <Keyframe id="142"  time="90/1" value="0" leadInLength="0/1"  />
            <Keyframe id="143"  time="137/1" value="0" leadInLength="0/1"  />
            </Keyframes>
           </InterpolatingParam>
           <InterpolatingParam id="144" interp="linr"  >
            <Keyframes>
            <Keyframe id="145"  time="0/1" value="0" leadInLength="0/1"  />
            <Keyframe id="146"  time="30/1" value="0" leadInLength="0/1"  />
            <Keyframe id="147"  time="90/1" value="0" leadInLength="0/1"  />
            <Keyframe id="148"  time="137/1" value="0" leadInLength="0/1"  />
            </Keyframes>
           </InterpolatingParam>
          </VectorParam>
         </Transformer>
         <Parameters>
          <VectorParam id="149"  name="sourceCrop">
           <InterpolatingParam id="150" interp="linr"  >
            <Keyframes>
            <Keyframe id="151"  time="0/1" value="0" leadInLength="0/1"  />
            <Keyframe id="152"  time="30/1" value="0" leadInLength="0/1"  />
            <Keyframe id="153"  time="90/1" value="0" leadInLength="0/1"  />
            <Keyframe id="154"  time="137/1" value="0" leadInLength="0/1"  />
            </Keyframes>
           </InterpolatingParam>
           <InterpolatingParam id="155" interp="linr"  >
            <Keyframes>
            <Keyframe id="156"  time="0/1" value="0" leadInLength="0/1"  />
            <Keyframe id="157"  time="30/1" value="0" leadInLength="0/1"  />
            <Keyframe id="158"  time="90/1" value="0" leadInLength="0/1"  />
            <Keyframe id="159"  time="137/1" value="0" leadInLength="0/1"  />
            </Keyframes>
           </InterpolatingParam>
           <InterpolatingParam id="160" interp="linr"  >
            <Keyframes>
            <Keyframe id="161"  time="0/1" value="0" leadInLength="0/1"  />
            <Keyframe id="162"  time="30/1" value="0" leadInLength="0/1"  />
            <Keyframe id="163"  time="90/1" value="0" leadInLength="0/1"  />
            <Keyframe id="164"  time="137/1" value="0" leadInLength="0/1"  />
            </Keyframes>
           </InterpolatingParam>
           <InterpolatingParam id="165" interp="linr"  >
            <Keyframes>
            <Keyframe id="166"  time="0/1" value="0" leadInLength="0/1"  />
            <Keyframe id="167"  time="30/1" value="0" leadInLength="0/1"  />
            <Keyframe id="168"  time="90/1" value="0" leadInLength="0/1"  />
            <Keyframe id="169"  time="137/1" value="0" leadInLength="0/1"  />
            </Keyframes>
           </InterpolatingParam>
          </VectorParam>
          <VectorParam id="170"  name="geometryCrop">
           <InterpolatingParam id="171" interp="linr"  time="-9999999/1" value="0" leadInLength="0/1"  />
           <InterpolatingParam id="172" interp="linr"  time="-9999999/1" value="0" leadInLength="0/1"  />
           <InterpolatingParam id="173" interp="linr"  time="-9999999/1" value="0" leadInLength="0/1"  />
           <InterpolatingParam id="174" interp="linr"  time="-9999999/1" value="0" leadInLength="0/1"  />
          </VectorParam>
          <InterpolatingParam id="175" interp="linr"  time="-9999999/1" value="1" leadInLength="0/1"  name="opacity"/>
          <InterpolatingParam id="176" interp="linr"  name="cursorOpacity">
           <Keyframes>
           <Keyframe id="177"  time="30/1" value="1" leadInLength="0/1"  />
           <Keyframe id="178"  time="90/1" value="1" leadInLength="0/1"  />
           </Keyframes>
          </InterpolatingParam>
          <InterpolatingParam id="179" interp="linr"  name="cursorScale">
           <Keyframes>
           <Keyframe id="180"  time="30/1" value="1" leadInLength="0/1"  />
           <Keyframe id="181"  time="90/1" value="1" leadInLength="0/1"  />
           </Keyframes>
          </InterpolatingParam>
          <Parameter id="182"  name="captions"/>
         </Parameters>
         <Effects>
          <GenericEffect id="183" range="(-134001728/1,-1/1)" name = "CursorBaseEffectName" >
           <Parameters>
           <InterpolatingParam id="184" interp="linr"  time="-9999999/1" value="1" leadInLength="0/1"   name="cursorSize"/>
           <InterpolatingParam id="185" interp="linr"  time="-9999999/1" value="0" leadInLength="0/1"   name="highlightBlurRadius"/>
           <InterpolatingParam id="186" interp="linr"  time="-9999999/1" value="0" leadInLength="0/1"   name="highlightColorBlue"/>
           <InterpolatingParam id="187" interp="linr"  time="-9999999/1" value="255" leadInLength="0/1"   name="highlightColorGreen"/>
           <InterpolatingParam id="188" interp="linr"  time="-9999999/1" value="255" leadInLength="0/1"   name="highlightColorRed"/>
           <InterpolatingParam id="189" interp="linr"  time="-9999999/1" value="5" leadInLength="0/1"   name="highlightFeatherSize"/>
           <InterpolatingParam id="190" interp="linr"  time="-9999999/1" value="2" leadInLength="0/1"   name="highlightMagnification"/>
           <InterpolatingParam id="191" interp="linr"  time="-9999999/1" value="1" leadInLength="0/1"   name="highlightOpacity"/>
           <InterpolatingParam id="192" interp="linr"  time="-9999999/1" value="45" leadInLength="0/1"   name="highlightSize"/>
           <Parameter id="193"   name="highlightType">
            <Keyframes>
            <Keyframe id="194"  time="-9999999/1" value="0" leadInLength="0/1"  />
            </Keyframes>
           </Parameter>
           <InterpolatingParam id="195" interp="linr"  time="-9999999/1" value="0" leadInLength="0/1"   name="leftClickColorBlue"/>
           <InterpolatingParam id="196" interp="linr"  time="-9999999/1" value="0" leadInLength="0/1"   name="leftClickColorGreen"/>
           <InterpolatingParam id="197" interp="linr"  time="-9999999/1" value="255" leadInLength="0/1"   name="leftClickColorRed"/>
           <InterpolatingParam id="198" interp="linr"  time="-9999999/1" value="0.80000000000000004" leadInLength="0/1"   name="leftClickDuration"/>
           <InterpolatingParam id="199" interp="linr"  time="-9999999/1" value="20" leadInLength="0/1"   name="leftClickSize"/>
           <Parameter id="200"   name="leftClickSoundFilename">
            <Keyframes>
            <Keyframe id="201"  time="-9999999/1" value="" leadInLength="0/1"  />
            </Keyframes>
           </Parameter>
           <InterpolatingParam id="202" interp="linr"  time="-9999999/1" value="1" leadInLength="0/1"   name="leftClickSoundVolume"/>
           <Parameter id="203"   name="leftClickType">
            <Keyframes>
            <Keyframe id="204"  time="-9999999/1" value="0" leadInLength="0/1"  />
            </Keyframes>
           </Parameter>
           <InterpolatingParam id="205" interp="linr"  time="-9999999/1" value="1" leadInLength="0/1"   name="opacity"/>
           <InterpolatingParam id="206" interp="linr"  time="-9999999/1" value="255" leadInLength="0/1"   name="rightClickColorBlue"/>
           <InterpolatingParam id="207" interp="linr"  time="-9999999/1" value="0" leadInLength="0/1"   name="rightClickColorGreen"/>
           <InterpolatingParam id="208" interp="linr"  time="-9999999/1" value="0" leadInLength="0/1"   name="rightClickColorRed"/>
           <InterpolatingParam id="209" interp="linr"  time="-9999999/1" value="0.80000000000000004" leadInLength="0/1"   name="rightClickDuration"/>
           <InterpolatingParam id="210" interp="linr"  time="-9999999/1" value="20" leadInLength="0/1"   name="rightClickSize"/>
           <Parameter id="211"   name="rightClickSoundFilename">
            <Keyframes>
            <Keyframe id="212"  time="-9999999/1" value="" leadInLength="0/1"  />
            </Keyframes>
           </Parameter>
           <InterpolatingParam id="213" interp="linr"  time="-9999999/1" value="1" leadInLength="0/1"   name="rightClickSoundVolume"/>
           <Parameter id="214"   name="rightClickType">
            <Keyframes>
            <Keyframe id="215"  time="-9999999/1" value="0" leadInLength="0/1"  />
            </Keyframes>
           </Parameter>
           </Parameters>
          </GenericEffect>
         </Effects>
         <Attributes>
          <Attribute id="216" value="" name="ident"/>
         </Attributes>
         <MetaData>
          <entry key="AutoAppliedSmartFocus" val="False"/>
          <entry key="WinSubProjectDisplayName" val=""/>
         </MetaData>
         <ExtraData>
          <Entry key="ZoomPanBin">
           <ZoomPanBin id="217"  >
            <ZoomPanKeyframes>
             <ZoomPanKeyframe id="218" timeRangeEnd="-9999999/1" timeRangeDuration="0/1" interpolaterName=""  />
            </ZoomPanKeyframes>
           </ZoomPanBin>
          </Entry>
          <Entry key="CursorEffectBin">
           <CursorEffectBin id="219"  >
            <CursorEffectKeyframes>
             <CursorEffectKeyframe id="220" timeRangeEnd="-9999999/1" timeRangeDuration="0/1" interpolaterName=""  />
            </CursorEffectKeyframes>
           </CursorEffectBin>
          </Entry>
         </ExtraData>
         <GenericTrack id="221"  >
          <Attributes>
           <Attribute id="222" value="" name="ident"/>
          </Attributes>
          <MetaData>
           <entry key="IsLocked" val="False"/>
           <entry key="WinTrackHeight" val="0"/>
          </MetaData>
          <Medias>
           <ScreenIMFile id="223" start="-108000" duration="108090" scalar="1/1" mediaStart="0/1" mediaDuration="1/1" trackNumber="0" src="10" trimStartSum="-108000/1" >
            <Transformer>
             <VectorParam id="224"  name="translation">
              <InterpolatingParam id="225" interp="linr"  time="-9999999/1" value="0" leadInLength="0/1"  />
              <InterpolatingParam id="226" interp="linr"  time="-9999999/1" value="0" leadInLength="0/1"  />
              <InterpolatingParam id="227" interp="linr"  time="-9999999/1" value="0" leadInLength="0/1"  />
             </VectorParam>
             <VectorParam id="228"  name="rotation">
              <InterpolatingParam id="229" interp="linr"  time="-9999999/1" value="0" leadInLength="0/1"  />
              <InterpolatingParam id="230" interp="linr"  time="-9999999/1" value="0" leadInLength="0/1"  />
              <InterpolatingParam id="231" interp="linr"  time="-9999999/1" value="0" leadInLength="0/1"  />
             </VectorParam>
             <VectorParam id="232"  name="shear">
              <InterpolatingParam id="233" interp="linr"  time="-9999999/1" value="0" leadInLength="0/1"  />
              <InterpolatingParam id="234" interp="linr"  time="-9999999/1" value="0" leadInLength="0/1"  />
              <InterpolatingParam id="235" interp="linr"  time="-9999999/1" value="0" leadInLength="0/1"  />
             </VectorParam>
             <VectorParam id="236"  name="scale">
              <InterpolatingParam id="237" interp="linr"  time="-9999999/1" value="1" leadInLength="0/1"  />
              <InterpolatingParam id="238" interp="linr"  time="-9999999/1" value="1" leadInLength="0/1"  />
              <InterpolatingParam id="239" interp="linr"  time="-9999999/1" value="1" leadInLength="0/1"  />
             </VectorParam>
             <VectorParam id="240"  name="anchor">
              <InterpolatingParam id="241" interp="linr"  time="0/1" value="0" leadInLength="0/1"  />
              <InterpolatingParam id="242" interp="linr"  time="0/1" value="0" leadInLength="0/1"  />
              <InterpolatingParam id="243" interp="linr"  time="0/1" value="0" leadInLength="0/1"  />
             </VectorParam>
            </Transformer>
            <Parameters>
             <VectorParam id="244"  name="sourceCrop">
              <InterpolatingParam id="245" interp="linr"  time="0/1" value="0" leadInLength="0/1"  />
              <InterpolatingParam id="246" interp="linr"  time="0/1" value="0" leadInLength="0/1"  />
              <InterpolatingParam id="247" interp="linr"  time="0/1" value="0" leadInLength="0/1"  />
              <InterpolatingParam id="248" interp="linr"  time="0/1" value="0" leadInLength="0/1"  />
             </VectorParam>
             <VectorParam id="249"  name="geometryCrop">
              <InterpolatingParam id="250" interp="linr"  time="-9999999/1" value="0" leadInLength="0/1"  />
              <InterpolatingParam id="251" interp="linr"  time="-9999999/1" value="0" leadInLength="0/1"  />
              <InterpolatingParam id="252" interp="linr"  time="-9999999/1" value="0" leadInLength="0/1"  />
              <InterpolatingParam id="253" interp="linr"  time="-9999999/1" value="0" leadInLength="0/1"  />
             </VectorParam>
             <InterpolatingParam id="254" interp="linr"  time="-9999999/1" value="1" leadInLength="0/1"  name="opacity"/>
             <InterpolatingParam id="255" interp="linr"  time="0/1" value="0" leadInLength="0/1"  name="cursorOpacity"/>
             <InterpolatingParam id="256" interp="linr"  time="0/1" value="0" leadInLength="0/1"  name="recordedCursorOpacity"/>
             <InterpolatingParam id="257" interp="linr"  time="0/1" value="0" leadInLength="0/1"  name="cursorScale"/>
            </Parameters>
            <Attributes>
             <Attribute id="258" value="" name="ident"/>
            </Attributes>
            <MetaData>
             <entry key="AutoAppliedSmartFocus" val="False"/>
             <entry key="WinSubProjectDisplayName" val=""/>
            </MetaData>
            <ExtraData>
             <Entry key="ZoomPanBin">
              <ZoomPanBin id="259"  >
               <ZoomPanKeyframes>
                <ZoomPanKeyframe id="260" timeRangeEnd="-9999999/1" timeRangeDuration="0/1" interpolaterName=""  />
               </ZoomPanKeyframes>
              </ZoomPanBin>
             </Entry>
             <Entry key="CursorEffectBin">
              <CursorEffectBin id="261"  >
               <CursorEffectKeyframes>
               </CursorEffectKeyframes>
              </CursorEffectBin>
             </Entry>
            </ExtraData>
           </ScreenIMFile>
           <ScreenVMFile id="262" start="90" duration="47" scalar="1/1" mediaStart="0/1" mediaDuration="47/1" trackNumber="0" src="10" >
            <Transformer>
             <VectorParam id="263"  name="translation">
              <InterpolatingParam id="264" interp="linr"  time="-9999999/1" value="0" leadInLength="0/1"  />
              <InterpolatingParam id="265" interp="linr"  time="-9999999/1" value="0" leadInLength="0/1"  />
              <InterpolatingParam id="266" interp="linr"  time="-9999999/1" value="0" leadInLength="0/1"  />
             </VectorParam>
             <VectorParam id="267"  name="rotation">
              <InterpolatingParam id="268" interp="linr"  time="-9999999/1" value="0" leadInLength="0/1"  />
              <InterpolatingParam id="269" interp="linr"  time="-9999999/1" value="0" leadInLength="0/1"  />
              <InterpolatingParam id="270" interp="linr"  time="-9999999/1" value="0" leadInLength="0/1"  />
             </VectorParam>
             <VectorParam id="271"  name="shear">
              <InterpolatingParam id="272" interp="linr"  time="-9999999/1" value="0" leadInLength="0/1"  />
              <InterpolatingParam id="273" interp="linr"  time="-9999999/1" value="0" leadInLength="0/1"  />
              <InterpolatingParam id="274" interp="linr"  time="-9999999/1" value="0" leadInLength="0/1"  />
             </VectorParam>
             <VectorParam id="275"  name="scale">
              <InterpolatingParam id="276" interp="linr"  time="-9999999/1" value="1" leadInLength="0/1"  />
              <InterpolatingParam id="277" interp="linr"  time="-9999999/1" value="1" leadInLength="0/1"  />
              <InterpolatingParam id="278" interp="linr"  time="-9999999/1" value="1" leadInLength="0/1"  />
             </VectorParam>
             <VectorParam id="279"  name="anchor">
              <InterpolatingParam id="280" interp="linr"  time="0/1" value="0" leadInLength="0/1"  />
              <InterpolatingParam id="281" interp="linr"  time="0/1" value="0" leadInLength="0/1"  />
              <InterpolatingParam id="282" interp="linr"  time="0/1" value="0" leadInLength="0/1"  />
             </VectorParam>
            </Transformer>
            <Parameters>
             <VectorParam id="283"  name="sourceCrop">
              <InterpolatingParam id="284" interp="linr"  time="0/1" value="0" leadInLength="0/1"  />
              <InterpolatingParam id="285" interp="linr"  time="0/1" value="0" leadInLength="0/1"  />
              <InterpolatingParam id="286" interp="linr"  time="0/1" value="0" leadInLength="0/1"  />
              <InterpolatingParam id="287" interp="linr"  time="0/1" value="0" leadInLength="0/1"  />
             </VectorParam>
             <VectorParam id="288"  name="geometryCrop">
              <InterpolatingParam id="289" interp="linr"  time="-9999999/1" value="0" leadInLength="0/1"  />
              <InterpolatingParam id="290" interp="linr"  time="-9999999/1" value="0" leadInLength="0/1"  />
              <InterpolatingParam id="291" interp="linr"  time="-9999999/1" value="0" leadInLength="0/1"  />
              <InterpolatingParam id="292" interp="linr"  time="-9999999/1" value="0" leadInLength="0/1"  />
             </VectorParam>
             <InterpolatingParam id="293" interp="linr"  time="-9999999/1" value="1" leadInLength="0/1"  name="opacity"/>
             <InterpolatingParam id="294" interp="linr"  time="0/1" value="0" leadInLength="0/1"  name="cursorOpacity"/>
             <InterpolatingParam id="295" interp="linr"  time="0/1" value="0" leadInLength="0/1"  name="cursorScale"/>
            </Parameters>
            <Attributes>
             <Attribute id="296" value="" name="ident"/>
            </Attributes>
            <MetaData>
             <entry key="AutoAppliedSmartFocus" val="False"/>
             <entry key="WinSubProjectDisplayName" val=""/>
            </MetaData>
            <ExtraData>
             <Entry key="ZoomPanBin">
              <ZoomPanBin id="297"  >
               <ZoomPanKeyframes>
                <ZoomPanKeyframe id="298" timeRangeEnd="-9999999/1" timeRangeDuration="0/1" interpolaterName=""  />
               </ZoomPanKeyframes>
              </ZoomPanBin>
             </Entry>
             <Entry key="CursorEffectBin">
              <CursorEffectBin id="299"  >
               <CursorEffectKeyframes>
               </CursorEffectKeyframes>
              </CursorEffectBin>
             </Entry>
            </ExtraData>
           </ScreenVMFile>
           <ScreenIMFile id="300" start="137" duration="150" scalar="1/1" mediaStart="47/1" mediaDuration="1/1" trackNumber="0" src="10" trimStartSum="0/1" >
            <Transformer>
             <VectorParam id="301"  name="translation">
              <InterpolatingParam id="302" interp="linr"  time="-9999999/1" value="0" leadInLength="0/1"  />
              <InterpolatingParam id="303" interp="linr"  time="-9999999/1" value="0" leadInLength="0/1"  />
              <InterpolatingParam id="304" interp="linr"  time="-9999999/1" value="0" leadInLength="0/1"  />
             </VectorParam>
             <VectorParam id="305"  name="rotation">
              <InterpolatingParam id="306" interp="linr"  time="-9999999/1" value="0" leadInLength="0/1"  />
              <InterpolatingParam id="307" interp="linr"  time="-9999999/1" value="0" leadInLength="0/1"  />
              <InterpolatingParam id="308" interp="linr"  time="-9999999/1" value="0" leadInLength="0/1"  />
             </VectorParam>
             <VectorParam id="309"  name="shear">
              <InterpolatingParam id="310" interp="linr"  time="-9999999/1" value="0" leadInLength="0/1"  />
              <InterpolatingParam id="311" interp="linr"  time="-9999999/1" value="0" leadInLength="0/1"  />
              <InterpolatingParam id="312" interp="linr"  time="-9999999/1" value="0" leadInLength="0/1"  />
             </VectorParam>
             <VectorParam id="313"  name="scale">
              <InterpolatingParam id="314" interp="linr"  time="-9999999/1" value="1" leadInLength="0/1"  />
              <InterpolatingParam id="315" interp="linr"  time="-9999999/1" value="1" leadInLength="0/1"  />
              <InterpolatingParam id="316" interp="linr"  time="-9999999/1" value="1" leadInLength="0/1"  />
             </VectorParam>
             <VectorParam id="317"  name="anchor">
              <InterpolatingParam id="318" interp="linr"  time="0/1" value="0" leadInLength="0/1"  />
              <InterpolatingParam id="319" interp="linr"  time="0/1" value="0" leadInLength="0/1"  />
              <InterpolatingParam id="320" interp="linr"  time="0/1" value="0" leadInLength="0/1"  />
             </VectorParam>
            </Transformer>
            <Parameters>
             <VectorParam id="321"  name="sourceCrop">
              <InterpolatingParam id="322" interp="linr"  time="0/1" value="0" leadInLength="0/1"  />
              <InterpolatingParam id="323" interp="linr"  time="0/1" value="0" leadInLength="0/1"  />
              <InterpolatingParam id="324" interp="linr"  time="0/1" value="0" leadInLength="0/1"  />
              <InterpolatingParam id="325" interp="linr"  time="0/1" value="0" leadInLength="0/1"  />
             </VectorParam>
             <VectorParam id="326"  name="geometryCrop">
              <InterpolatingParam id="327" interp="linr"  time="-9999999/1" value="0" leadInLength="0/1"  />
              <InterpolatingParam id="328" interp="linr"  time="-9999999/1" value="0" leadInLength="0/1"  />
              <InterpolatingParam id="329" interp="linr"  time="-9999999/1" value="0" leadInLength="0/1"  />
              <InterpolatingParam id="330" interp="linr"  time="-9999999/1" value="0" leadInLength="0/1"  />
             </VectorParam>
             <InterpolatingParam id="331" interp="linr"  time="-9999999/1" value="1" leadInLength="0/1"  name="opacity"/>
             <InterpolatingParam id="332" interp="linr"  time="0/1" value="0" leadInLength="0/1"  name="cursorOpacity"/>
             <InterpolatingParam id="333" interp="linr"  time="0/1" value="0" leadInLength="0/1"  name="recordedCursorOpacity"/>
             <InterpolatingParam id="334" interp="linr"  time="0/1" value="0" leadInLength="0/1"  name="cursorScale"/>
            </Parameters>
            <Attributes>
             <Attribute id="335" value="" name="ident"/>
            </Attributes>
            <MetaData>
             <entry key="AutoAppliedSmartFocus" val="False"/>
             <entry key="WinSubProjectDisplayName" val=""/>
            </MetaData>
            <ExtraData>
             <Entry key="ZoomPanBin">
              <ZoomPanBin id="336"  >
               <ZoomPanKeyframes>
                <ZoomPanKeyframe id="337" timeRangeEnd="-9999999/1" timeRangeDuration="0/1" interpolaterName=""  />
               </ZoomPanKeyframes>
              </ZoomPanBin>
             </Entry>
             <Entry key="CursorEffectBin">
              <CursorEffectBin id="338"  >
               <CursorEffectKeyframes>
               </CursorEffectKeyframes>
              </CursorEffectBin>
             </Entry>
            </ExtraData>
           </ScreenIMFile>
           <ScreenVMFile id="339" start="287" duration="70" scalar="1/1" mediaStart="47/1" mediaDuration="70/1" trackNumber="0" src="10" >
            <Transformer>
             <VectorParam id="340"  name="translation">
              <InterpolatingParam id="341" interp="linr"  time="-9999999/1" value="0" leadInLength="0/1"  />
              <InterpolatingParam id="342" interp="linr"  time="-9999999/1" value="0" leadInLength="0/1"  />
              <InterpolatingParam id="343" interp="linr"  time="-9999999/1" value="0" leadInLength="0/1"  />
             </VectorParam>
             <VectorParam id="344"  name="rotation">
              <InterpolatingParam id="345" interp="linr"  time="-9999999/1" value="0" leadInLength="0/1"  />
              <InterpolatingParam id="346" interp="linr"  time="-9999999/1" value="0" leadInLength="0/1"  />
              <InterpolatingParam id="347" interp="linr"  time="-9999999/1" value="0" leadInLength="0/1"  />
             </VectorParam>
             <VectorParam id="348"  name="shear">
              <InterpolatingParam id="349" interp="linr"  time="-9999999/1" value="0" leadInLength="0/1"  />
              <InterpolatingParam id="350" interp="linr"  time="-9999999/1" value="0" leadInLength="0/1"  />
              <InterpolatingParam id="351" interp="linr"  time="-9999999/1" value="0" leadInLength="0/1"  />
             </VectorParam>
             <VectorParam id="352"  name="scale">
              <InterpolatingParam id="353" interp="linr"  time="-9999999/1" value="1" leadInLength="0/1"  />
              <InterpolatingParam id="354" interp="linr"  time="-9999999/1" value="1" leadInLength="0/1"  />
              <InterpolatingParam id="355" interp="linr"  time="-9999999/1" value="1" leadInLength="0/1"  />
             </VectorParam>
             <VectorParam id="356"  name="anchor">
              <InterpolatingParam id="357" interp="linr"  time="0/1" value="0" leadInLength="0/1"  />
              <InterpolatingParam id="358" interp="linr"  time="0/1" value="0" leadInLength="0/1"  />
              <InterpolatingParam id="359" interp="linr"  time="0/1" value="0" leadInLength="0/1"  />
             </VectorParam>
            </Transformer>
            <Parameters>
             <VectorParam id="360"  name="sourceCrop">
              <InterpolatingParam id="361" interp="linr"  time="0/1" value="0" leadInLength="0/1"  />
              <InterpolatingParam id="362" interp="linr"  time="0/1" value="0" leadInLength="0/1"  />
              <InterpolatingParam id="363" interp="linr"  time="0/1" value="0" leadInLength="0/1"  />
              <InterpolatingParam id="364" interp="linr"  time="0/1" value="0" leadInLength="0/1"  />
             </VectorParam>
             <VectorParam id="365"  name="geometryCrop">
              <InterpolatingParam id="366" interp="linr"  time="-9999999/1" value="0" leadInLength="0/1"  />
              <InterpolatingParam id="367" interp="linr"  time="-9999999/1" value="0" leadInLength="0/1"  />
              <InterpolatingParam id="368" interp="linr"  time="-9999999/1" value="0" leadInLength="0/1"  />
              <InterpolatingParam id="369" interp="linr"  time="-9999999/1" value="0" leadInLength="0/1"  />
             </VectorParam>
             <InterpolatingParam id="370" interp="linr"  time="-9999999/1" value="1" leadInLength="0/1"  name="opacity"/>
             <InterpolatingParam id="371" interp="linr"  time="0/1" value="0" leadInLength="0/1"  name="cursorOpacity"/>
             <InterpolatingParam id="372" interp="linr"  time="0/1" value="0" leadInLength="0/1"  name="cursorScale"/>
            </Parameters>
            <Attributes>
             <Attribute id="373" value="" name="ident"/>
            </Attributes>
            <MetaData>
             <entry key="AutoAppliedSmartFocus" val="False"/>
             <entry key="WinSubProjectDisplayName" val=""/>
            </MetaData>
            <ExtraData>
             <Entry key="ZoomPanBin">
              <ZoomPanBin id="374"  >
               <ZoomPanKeyframes>
                <ZoomPanKeyframe id="375" timeRangeEnd="-9999999/1" timeRangeDuration="0/1" interpolaterName=""  />
               </ZoomPanKeyframes>
              </ZoomPanBin>
             </Entry>
             <Entry key="CursorEffectBin">
              <CursorEffectBin id="376"  >
               <CursorEffectKeyframes>
               </CursorEffectKeyframes>
              </CursorEffectBin>
             </Entry>
            </ExtraData>
           </ScreenVMFile>
          </Medias>
         </GenericTrack>
        </StitchedMedia>
        <UnifiedMedia id="377"  >
         <AMFile id="378" start="1122" duration="58" scalar="1/1" mediaStart="0/1" mediaDuration="58/1" trackNumber="1" src="9" channelNumber="0" >
          <Parameters>
           <InterpolatingParam id="379" interp="linr"  time="0/1" value="1" leadInLength="0/1"  name="volume"/>
           <Parameter id="380"  name="captions"/>
          </Parameters>
          <Attributes>
           <Attribute id="381" value="" name="ident"/>
           <Attribute id="382" value="22050" name="sampleRate"/>
           <Attribute id="383" value="16" name="bitDepth"/>
           <Attribute id="384" value="1" name="gain"/>
          </Attributes>
         </AMFile>
         <ScreenVMFile id="385" start="1122" duration="58" scalar="1/1" mediaStart="0/1" mediaDuration="58/1" trackNumber="0" src="9" >
          <Transformer>
           <VectorParam id="386"  name="translation">
            <InterpolatingParam id="387" interp="linr"  time="-9999999/1" value="0" leadInLength="0/1"  />
            <InterpolatingParam id="388" interp="linr"  time="-9999999/1" value="0" leadInLength="0/1"  />
            <InterpolatingParam id="389" interp="linr"  time="-9999999/1" value="0" leadInLength="0/1"  />
           </VectorParam>
           <VectorParam id="390"  name="rotation">
            <InterpolatingParam id="391" interp="linr"  time="-9999999/1" value="0" leadInLength="0/1"  />
            <InterpolatingParam id="392" interp="linr"  time="-9999999/1" value="0" leadInLength="0/1"  />
            <InterpolatingParam id="393" interp="linr"  time="-9999999/1" value="0" leadInLength="0/1"  />
           </VectorParam>
           <VectorParam id="394"  name="shear">
            <InterpolatingParam id="395" interp="linr"  time="-9999999/1" value="0" leadInLength="0/1"  />
            <InterpolatingParam id="396" interp="linr"  time="-9999999/1" value="0" leadInLength="0/1"  />
            <InterpolatingParam id="397" interp="linr"  time="-9999999/1" value="0" leadInLength="0/1"  />
           </VectorParam>
           <VectorParam id="398"  name="scale">
            <InterpolatingParam id="399" interp="linr"  time="-9999999/1" value="0.56042031523642732" leadInLength="0/1"  />
            <InterpolatingParam id="400" interp="linr"  time="-9999999/1" value="0.56042031523642732" leadInLength="0/1"  />
            <InterpolatingParam id="401" interp="linr"  time="-9999999/1" value="1" leadInLength="0/1"  />
           </VectorParam>
           <VectorParam id="402"  name="anchor">
            <InterpolatingParam id="403" interp="linr"  time="0/1" value="0" leadInLength="0/1"  />
            <InterpolatingParam id="404" interp="linr"  time="0/1" value="0" leadInLength="0/1"  />
            <InterpolatingParam id="405" interp="linr"  time="0/1" value="0" leadInLength="0/1"  />
           </VectorParam>
          </Transformer>
          <Parameters>
           <VectorParam id="406"  name="sourceCrop">
            <InterpolatingParam id="407" interp="linr"  time="0/1" value="0" leadInLength="0/1"  />
            <InterpolatingParam id="408" interp="linr"  time="0/1" value="0" leadInLength="0/1"  />
            <InterpolatingParam id="409" interp="linr"  time="0/1" value="0" leadInLength="0/1"  />
            <InterpolatingParam id="410" interp="linr"  time="0/1" value="0" leadInLength="0/1"  />
           </VectorParam>
           <VectorParam id="411"  name="geometryCrop">
            <InterpolatingParam id="412" interp="linr"  time="-9999999/1" value="0" leadInLength="0/1"  />
            <InterpolatingParam id="413" interp="linr"  time="-9999999/1" value="0" leadInLength="0/1"  />
            <InterpolatingParam id="414" interp="linr"  time="-9999999/1" value="0" leadInLength="0/1"  />
            <InterpolatingParam id="415" interp="linr"  time="-9999999/1" value="0" leadInLength="0/1"  />
           </VectorParam>
           <InterpolatingParam id="416" interp="linr"  time="-9999999/1" value="1" leadInLength="0/1"  name="opacity"/>
           <InterpolatingParam id="417" interp="linr"  time="0/1" value="1" leadInLength="0/1"  name="cursorOpacity"/>
           <InterpolatingParam id="418" interp="linr"  time="0/1" value="1" leadInLength="0/1"  name="cursorScale"/>
          </Parameters>
          <Effects>
           <GenericEffect id="419" name = "CursorBaseEffectName" >
            <Parameters>
            <InterpolatingParam id="420" interp="linr"  time="-9999999/1" value="1" leadInLength="0/1"   name="cursorSize"/>
            <InterpolatingParam id="421" interp="linr"  time="-9999999/1" value="0" leadInLength="0/1"   name="highlightBlurRadius"/>
            <InterpolatingParam id="422" interp="linr"  time="-9999999/1" value="0" leadInLength="0/1"   name="highlightColorBlue"/>
            <InterpolatingParam id="423" interp="linr"  time="-9999999/1" value="255" leadInLength="0/1"   name="highlightColorGreen"/>
            <InterpolatingParam id="424" interp="linr"  time="-9999999/1" value="255" leadInLength="0/1"   name="highlightColorRed"/>
            <InterpolatingParam id="425" interp="linr"  time="-9999999/1" value="5" leadInLength="0/1"   name="highlightFeatherSize"/>
            <InterpolatingParam id="426" interp="linr"  time="-9999999/1" value="2" leadInLength="0/1"   name="highlightMagnification"/>
            <InterpolatingParam id="427" interp="linr"  time="-9999999/1" value="1" leadInLength="0/1"   name="highlightOpacity"/>
            <InterpolatingParam id="428" interp="linr"  time="-9999999/1" value="45" leadInLength="0/1"   name="highlightSize"/>
            <Parameter id="429"   name="highlightType">
             <Keyframes>
             <Keyframe id="430"  time="-9999999/1" value="0" leadInLength="0/1"  />
             </Keyframes>
            </Parameter>
            <InterpolatingParam id="431" interp="linr"  time="-9999999/1" value="0" leadInLength="0/1"   name="leftClickColorBlue"/>
            <InterpolatingParam id="432" interp="linr"  time="-9999999/1" value="0" leadInLength="0/1"   name="leftClickColorGreen"/>
            <InterpolatingParam id="433" interp="linr"  time="-9999999/1" value="255" leadInLength="0/1"   name="leftClickColorRed"/>
            <InterpolatingParam id="434" interp="linr"  time="-9999999/1" value="0.80000000000000004" leadInLength="0/1"   name="leftClickDuration"/>
            <InterpolatingParam id="435" interp="linr"  time="-9999999/1" value="20" leadInLength="0/1"   name="leftClickSize"/>
            <Parameter id="436"   name="leftClickSoundFilename">
             <Keyframes>
             <Keyframe id="437"  time="-9999999/1" value="" leadInLength="0/1"  />
             </Keyframes>
            </Parameter>
            <InterpolatingParam id="438" interp="linr"  time="-9999999/1" value="1" leadInLength="0/1"   name="leftClickSoundVolume"/>
            <Parameter id="439"   name="leftClickType">
             <Keyframes>
             <Keyframe id="440"  time="-9999999/1" value="0" leadInLength="0/1"  />
             </Keyframes>
            </Parameter>
            <InterpolatingParam id="441" interp="linr"  time="-9999999/1" value="1" leadInLength="0/1"   name="opacity"/>
            <InterpolatingParam id="442" interp="linr"  time="-9999999/1" value="255" leadInLength="0/1"   name="rightClickColorBlue"/>
            <InterpolatingParam id="443" interp="linr"  time="-9999999/1" value="0" leadInLength="0/1"   name="rightClickColorGreen"/>
            <InterpolatingParam id="444" interp="linr"  time="-9999999/1" value="0" leadInLength="0/1"   name="rightClickColorRed"/>
            <InterpolatingParam id="445" interp="linr"  time="-9999999/1" value="0.80000000000000004" leadInLength="0/1"   name="rightClickDuration"/>
            <InterpolatingParam id="446" interp="linr"  time="-9999999/1" value="20" leadInLength="0/1"   name="rightClickSize"/>
            <Parameter id="447"   name="rightClickSoundFilename">
             <Keyframes>
             <Keyframe id="448"  time="-9999999/1" value="" leadInLength="0/1"  />
             </Keyframes>
            </Parameter>
            <InterpolatingParam id="449" interp="linr"  time="-9999999/1" value="1" leadInLength="0/1"   name="rightClickSoundVolume"/>
            <Parameter id="450"   name="rightClickType">
             <Keyframes>
             <Keyframe id="451"  time="-9999999/1" value="0" leadInLength="0/1"  />
             </Keyframes>
            </Parameter>
            </Parameters>
            <MetaData>
             <entry key="effectIndex" val="0"/>
            </MetaData>
           </GenericEffect>
          </Effects>
          <Attributes>
           <Attribute id="452" value="" name="ident"/>
          </Attributes>
          <ExtraData>
           <Entry key="ZoomPanBin">
            <ZoomPanBin id="453"  >
             <ZoomPanKeyframes>
              <ZoomPanKeyframe id="454" timeRangeEnd="-9999999/1" timeRangeDuration="0/1" interpolaterName="linr"  />
             </ZoomPanKeyframes>
            </ZoomPanBin>
           </Entry>
           <Entry key="CursorEffectBin">
            <CursorEffectBin id="455"  >
             <CursorEffectKeyframes>
              <CursorEffectKeyframe id="456" timeRangeEnd="-9999999/1" timeRangeDuration="0/1" interpolaterName=""  />
             </CursorEffectKeyframes>
            </CursorEffectBin>
           </Entry>
          </ExtraData>
         </ScreenVMFile>
         <MetaData>
          <entry key="AutoAppliedSmartFocus" val="False"/>
          <entry key="WinSubProjectDisplayName" val=""/>
         </MetaData>
        </UnifiedMedia>
        <UnifiedMedia id="457"  >
         <AMFile id="458" start="1180" duration="81" scalar="1/1" mediaStart="0/1" mediaDuration="81/1" trackNumber="1" src="11" channelNumber="0" >
          <Parameters>
           <InterpolatingParam id="459" interp="linr"  time="0/1" value="1" leadInLength="0/1"  name="volume"/>
           <Parameter id="460"  name="captions"/>
          </Parameters>
          <Attributes>
           <Attribute id="461" value="" name="ident"/>
           <Attribute id="462" value="22050" name="sampleRate"/>
           <Attribute id="463" value="16" name="bitDepth"/>
           <Attribute id="464" value="1" name="gain"/>
          </Attributes>
         </AMFile>
         <ScreenVMFile id="465" start="1180" duration="81" scalar="1/1" mediaStart="0/1" mediaDuration="81/1" trackNumber="0" src="11" >
          <Transformer>
           <VectorParam id="466"  name="translation">
            <InterpolatingParam id="467" interp="linr"  time="-9999999/1" value="0" leadInLength="0/1"  />
            <InterpolatingParam id="468" interp="linr"  time="-9999999/1" value="0" leadInLength="0/1"  />
            <InterpolatingParam id="469" interp="linr"  time="-9999999/1" value="0" leadInLength="0/1"  />
           </VectorParam>
           <VectorParam id="470"  name="rotation">
            <InterpolatingParam id="471" interp="linr"  time="-9999999/1" value="0" leadInLength="0/1"  />
            <InterpolatingParam id="472" interp="linr"  time="-9999999/1" value="0" leadInLength="0/1"  />
            <InterpolatingParam id="473" interp="linr"  time="-9999999/1" value="0" leadInLength="0/1"  />
           </VectorParam>
           <VectorParam id="474"  name="shear">
            <InterpolatingParam id="475" interp="linr"  time="-9999999/1" value="0" leadInLength="0/1"  />
            <InterpolatingParam id="476" interp="linr"  time="-9999999/1" value="0" leadInLength="0/1"  />
            <InterpolatingParam id="477" interp="linr"  time="-9999999/1" value="0" leadInLength="0/1"  />
           </VectorParam>
           <VectorParam id="478"  name="scale">
            <InterpolatingParam id="479" interp="linr"  time="-9999999/1" value="0.56042031523642732" leadInLength="0/1"  />
            <InterpolatingParam id="480" interp="linr"  time="-9999999/1" value="0.56042031523642732" leadInLength="0/1"  />
            <InterpolatingParam id="481" interp="linr"  time="-9999999/1" value="1" leadInLength="0/1"  />
           </VectorParam>
           <VectorParam id="482"  name="anchor">
            <InterpolatingParam id="483" interp="linr"  time="0/1" value="0" leadInLength="0/1"  />
            <InterpolatingParam id="484" interp="linr"  time="0/1" value="0" leadInLength="0/1"  />
            <InterpolatingParam id="485" interp="linr"  time="0/1" value="0" leadInLength="0/1"  />
           </VectorParam>
          </Transformer>
          <Parameters>
           <VectorParam id="486"  name="sourceCrop">
            <InterpolatingParam id="487" interp="linr"  time="0/1" value="0" leadInLength="0/1"  />
            <InterpolatingParam id="488" interp="linr"  time="0/1" value="0" leadInLength="0/1"  />
            <InterpolatingParam id="489" interp="linr"  time="0/1" value="0" leadInLength="0/1"  />
            <InterpolatingParam id="490" interp="linr"  time="0/1" value="0" leadInLength="0/1"  />
           </VectorParam>
           <VectorParam id="491"  name="geometryCrop">
            <InterpolatingParam id="492" interp="linr"  time="-9999999/1" value="0" leadInLength="0/1"  />
            <InterpolatingParam id="493" interp="linr"  time="-9999999/1" value="0" leadInLength="0/1"  />
            <InterpolatingParam id="494" interp="linr"  time="-9999999/1" value="0" leadInLength="0/1"  />
            <InterpolatingParam id="495" interp="linr"  time="-9999999/1" value="0" leadInLength="0/1"  />
           </VectorParam>
           <InterpolatingParam id="496" interp="linr"  time="-9999999/1" value="1" leadInLength="0/1"  name="opacity"/>
           <InterpolatingParam id="497" interp="linr"  time="0/1" value="1" leadInLength="0/1"  name="cursorOpacity"/>
           <InterpolatingParam id="498" interp="linr"  time="0/1" value="1" leadInLength="0/1"  name="cursorScale"/>
          </Parameters>
          <Effects>
           <GenericEffect id="499" name = "CursorBaseEffectName" >
            <Parameters>
            <InterpolatingParam id="500" interp="linr"  time="-9999999/1" value="1" leadInLength="0/1"   name="cursorSize"/>
            <InterpolatingParam id="501" interp="linr"  time="-9999999/1" value="0" leadInLength="0/1"   name="highlightBlurRadius"/>
            <InterpolatingParam id="502" interp="linr"  time="-9999999/1" value="0" leadInLength="0/1"   name="highlightColorBlue"/>
            <InterpolatingParam id="503" interp="linr"  time="-9999999/1" value="255" leadInLength="0/1"   name="highlightColorGreen"/>
            <InterpolatingParam id="504" interp="linr"  time="-9999999/1" value="255" leadInLength="0/1"   name="highlightColorRed"/>
            <InterpolatingParam id="505" interp="linr"  time="-9999999/1" value="5" leadInLength="0/1"   name="highlightFeatherSize"/>
            <InterpolatingParam id="506" interp="linr"  time="-9999999/1" value="2" leadInLength="0/1"   name="highlightMagnification"/>
            <InterpolatingParam id="507" interp="linr"  time="-9999999/1" value="1" leadInLength="0/1"   name="highlightOpacity"/>
            <InterpolatingParam id="508" interp="linr"  time="-9999999/1" value="45" leadInLength="0/1"   name="highlightSize"/>
            <Parameter id="509"   name="highlightType">
             <Keyframes>
             <Keyframe id="510"  time="-9999999/1" value="0" leadInLength="0/1"  />
             </Keyframes>
            </Parameter>
            <InterpolatingParam id="511" interp="linr"  time="-9999999/1" value="0" leadInLength="0/1"   name="leftClickColorBlue"/>
            <InterpolatingParam id="512" interp="linr"  time="-9999999/1" value="0" leadInLength="0/1"   name="leftClickColorGreen"/>
            <InterpolatingParam id="513" interp="linr"  time="-9999999/1" value="255" leadInLength="0/1"   name="leftClickColorRed"/>
            <InterpolatingParam id="514" interp="linr"  time="-9999999/1" value="0.80000000000000004" leadInLength="0/1"   name="leftClickDuration"/>
            <InterpolatingParam id="515" interp="linr"  time="-9999999/1" value="20" leadInLength="0/1"   name="leftClickSize"/>
            <Parameter id="516"   name="leftClickSoundFilename">
             <Keyframes>
             <Keyframe id="517"  time="-9999999/1" value="" leadInLength="0/1"  />
             </Keyframes>
            </Parameter>
            <InterpolatingParam id="518" interp="linr"  time="-9999999/1" value="1" leadInLength="0/1"   name="leftClickSoundVolume"/>
            <Parameter id="519"   name="leftClickType">
             <Keyframes>
             <Keyframe id="520"  time="-9999999/1" value="0" leadInLength="0/1"  />
             </Keyframes>
            </Parameter>
            <InterpolatingParam id="521" interp="linr"  time="-9999999/1" value="1" leadInLength="0/1"   name="opacity"/>
            <InterpolatingParam id="522" interp="linr"  time="-9999999/1" value="255" leadInLength="0/1"   name="rightClickColorBlue"/>
            <InterpolatingParam id="523" interp="linr"  time="-9999999/1" value="0" leadInLength="0/1"   name="rightClickColorGreen"/>
            <InterpolatingParam id="524" interp="linr"  time="-9999999/1" value="0" leadInLength="0/1"   name="rightClickColorRed"/>
            <InterpolatingParam id="525" interp="linr"  time="-9999999/1" value="0.80000000000000004" leadInLength="0/1"   name="rightClickDuration"/>
            <InterpolatingParam id="526" interp="linr"  time="-9999999/1" value="20" leadInLength="0/1"   name="rightClickSize"/>
            <Parameter id="527"   name="rightClickSoundFilename">
             <Keyframes>
             <Keyframe id="528"  time="-9999999/1" value="" leadInLength="0/1"  />
             </Keyframes>
            </Parameter>
            <InterpolatingParam id="529" interp="linr"  time="-9999999/1" value="1" leadInLength="0/1"   name="rightClickSoundVolume"/>
            <Parameter id="530"   name="rightClickType">
             <Keyframes>
             <Keyframe id="531"  time="-9999999/1" value="0" leadInLength="0/1"  />
             </Keyframes>
            </Parameter>
            </Parameters>
            <MetaData>
             <entry key="effectIndex" val="0"/>
            </MetaData>
           </GenericEffect>
          </Effects>
          <Attributes>
           <Attribute id="532" value="" name="ident"/>
          </Attributes>
          <ExtraData>
           <Entry key="ZoomPanBin">
            <ZoomPanBin id="533"  >
             <ZoomPanKeyframes>
              <ZoomPanKeyframe id="534" timeRangeEnd="-9999999/1" timeRangeDuration="0/1" interpolaterName="linr"  />
             </ZoomPanKeyframes>
            </ZoomPanBin>
           </Entry>
           <Entry key="CursorEffectBin">
            <CursorEffectBin id="535"  >
             <CursorEffectKeyframes>
              <CursorEffectKeyframe id="536" timeRangeEnd="-9999999/1" timeRangeDuration="0/1" interpolaterName=""  />
             </CursorEffectKeyframes>
            </CursorEffectBin>
           </Entry>
          </ExtraData>
         </ScreenVMFile>
         <MetaData>
          <entry key="AutoAppliedSmartFocus" val="False"/>
          <entry key="WinSubProjectDisplayName" val=""/>
         </MetaData>
        </UnifiedMedia>
        <StitchedMedia id="537" start="1261" duration="352" scalar="2/1" mediaStart="0/1" mediaDuration="176/1" minMediaStart="0/1" >
         <Transformer>
          <VectorParam id="538"  name="translation">
           <InterpolatingParam id="539" interp="linr"  time="-9999999/1" value="0" leadInLength="0/1"  />
           <InterpolatingParam id="540" interp="linr"  time="-9999999/1" value="0" leadInLength="0/1"  />
           <InterpolatingParam id="541" interp="linr"  time="-9999999/1" value="0" leadInLength="0/1"  />
          </VectorParam>
          <VectorParam id="542"  name="rotation">
           <InterpolatingParam id="543" interp="linr"  time="-9999999/1" value="0" leadInLength="0/1"  />
           <InterpolatingParam id="544" interp="linr"  time="-9999999/1" value="0" leadInLength="0/1"  />
           <InterpolatingParam id="545" interp="linr"  time="-9999999/1" value="0" leadInLength="0/1"  />
          </VectorParam>
          <VectorParam id="546"  name="shear">
           <InterpolatingParam id="547" interp="linr"  time="-9999999/1" value="0" leadInLength="0/1"  />
           <InterpolatingParam id="548" interp="linr"  time="-9999999/1" value="0" leadInLength="0/1"  />
           <InterpolatingParam id="549" interp="linr"  time="-9999999/1" value="0" leadInLength="0/1"  />
          </VectorParam>
          <VectorParam id="550"  name="scale">
           <InterpolatingParam id="551" interp="linr"  time="-9999999/1" value="0.56042031523642732" leadInLength="0/1"  />
           <InterpolatingParam id="552" interp="linr"  time="-9999999/1" value="0.56042031523642732" leadInLength="0/1"  />
           <InterpolatingParam id="553" interp="linr"  time="-9999999/1" value="1" leadInLength="0/1"  />
          </VectorParam>
          <VectorParam id="554"  name="anchor">
           <InterpolatingParam id="555" interp="linr"  >
            <Keyframes>
            <Keyframe id="556"  time="0/1" value="0" leadInLength="0/1"  />
            <Keyframe id="557"  time="135/1" value="0" leadInLength="0/1"  />
            </Keyframes>
           </InterpolatingParam>
           <InterpolatingParam id="558" interp="linr"  >
            <Keyframes>
            <Keyframe id="559"  time="0/1" value="0" leadInLength="0/1"  />
            <Keyframe id="560"  time="135/1" value="0" leadInLength="0/1"  />
            </Keyframes>
           </InterpolatingParam>
           <InterpolatingParam id="561" interp="linr"  >
            <Keyframes>
            <Keyframe id="562"  time="0/1" value="0" leadInLength="0/1"  />
            <Keyframe id="563"  time="135/1" value="0" leadInLength="0/1"  />
            </Keyframes>
           </InterpolatingParam>
          </VectorParam>
         </Transformer>
         <Parameters>
          <VectorParam id="564"  name="sourceCrop">
           <InterpolatingParam id="565" interp="linr"  >
            <Keyframes>
            <Keyframe id="566"  time="0/1" value="0" leadInLength="0/1"  />
            <Keyframe id="567"  time="135/1" value="0" leadInLength="0/1"  />
            </Keyframes>
           </InterpolatingParam>
           <InterpolatingParam id="568" interp="linr"  >
            <Keyframes>
            <Keyframe id="569"  time="0/1" value="0" leadInLength="0/1"  />
            <Keyframe id="570"  time="135/1" value="0" leadInLength="0/1"  />
            </Keyframes>
           </InterpolatingParam>
           <InterpolatingParam id="571" interp="linr"  >
            <Keyframes>
            <Keyframe id="572"  time="0/1" value="0" leadInLength="0/1"  />
            <Keyframe id="573"  time="135/1" value="0" leadInLength="0/1"  />
            </Keyframes>
           </InterpolatingParam>
           <InterpolatingParam id="574" interp="linr"  >
            <Keyframes>
            <Keyframe id="575"  time="0/1" value="0" leadInLength="0/1"  />
            <Keyframe id="576"  time="135/1" value="0" leadInLength="0/1"  />
            </Keyframes>
           </InterpolatingParam>
          </VectorParam>
          <VectorParam id="577"  name="geometryCrop">
           <InterpolatingParam id="578" interp="linr"  time="-9999999/1" value="0" leadInLength="0/1"  />
           <InterpolatingParam id="579" interp="linr"  time="-9999999/1" value="0" leadInLength="0/1"  />
           <InterpolatingParam id="580" interp="linr"  time="-9999999/1" value="0" leadInLength="0/1"  />
           <InterpolatingParam id="581" interp="linr"  time="-9999999/1" value="0" leadInLength="0/1"  />
          </VectorParam>
          <InterpolatingParam id="582" interp="linr"  time="-9999999/1" value="1" leadInLength="0/1"  name="opacity"/>
          <InterpolatingParam id="583" interp="linr"  time="0/1" value="1" leadInLength="0/1"  name="cursorOpacity"/>
          <InterpolatingParam id="584" interp="linr"  time="0/1" value="1" leadInLength="0/1"  name="cursorScale"/>
          <InterpolatingParam id="585" interp="linr"  name="volume">
           <Keyframes>
           <Keyframe id="586"  time="-1/2" value="1" leadInLength="0/1"  />
           <Keyframe id="587"  time="0/1" value="0" leadInLength="0/1"  />
           <Keyframe id="588"  time="176/1" value="0" leadInLength="0/1"  />
           <Keyframe id="589"  time="353/2" value="1" leadInLength="0/1"  />
           </Keyframes>
          </InterpolatingParam>
          <Parameter id="590"  name="captions"/>
         </Parameters>
         <Effects>
          <GenericEffect id="591" name = "CursorBaseEffectName" >
           <Parameters>
           <InterpolatingParam id="592" interp="linr"  time="-9999999/1" value="1" leadInLength="0/1"   name="cursorSize"/>
           <InterpolatingParam id="593" interp="linr"  time="-9999999/1" value="0" leadInLength="0/1"   name="highlightBlurRadius"/>
           <InterpolatingParam id="594" interp="linr"  time="-9999999/1" value="0" leadInLength="0/1"   name="highlightColorBlue"/>
           <InterpolatingParam id="595" interp="linr"  time="-9999999/1" value="255" leadInLength="0/1"   name="highlightColorGreen"/>
           <InterpolatingParam id="596" interp="linr"  time="-9999999/1" value="255" leadInLength="0/1"   name="highlightColorRed"/>
           <InterpolatingParam id="597" interp="linr"  time="-9999999/1" value="5" leadInLength="0/1"   name="highlightFeatherSize"/>
           <InterpolatingParam id="598" interp="linr"  time="-9999999/1" value="2" leadInLength="0/1"   name="highlightMagnification"/>
           <InterpolatingParam id="599" interp="linr"  time="-9999999/1" value="1" leadInLength="0/1"   name="highlightOpacity"/>
           <InterpolatingParam id="600" interp="linr"  time="-9999999/1" value="45" leadInLength="0/1"   name="highlightSize"/>
           <Parameter id="601"   name="highlightType">
            <Keyframes>
            <Keyframe id="602"  time="-9999999/1" value="0" leadInLength="0/1"  />
            </Keyframes>
           </Parameter>
           <InterpolatingParam id="603" interp="linr"  time="-9999999/1" value="0" leadInLength="0/1"   name="leftClickColorBlue"/>
           <InterpolatingParam id="604" interp="linr"  time="-9999999/1" value="0" leadInLength="0/1"   name="leftClickColorGreen"/>
           <InterpolatingParam id="605" interp="linr"  time="-9999999/1" value="255" leadInLength="0/1"   name="leftClickColorRed"/>
           <InterpolatingParam id="606" interp="linr"  time="-9999999/1" value="0.80000000000000004" leadInLength="0/1"   name="leftClickDuration"/>
           <InterpolatingParam id="607" interp="linr"  time="-9999999/1" value="20" leadInLength="0/1"   name="leftClickSize"/>
           <Parameter id="608"   name="leftClickSoundFilename">
            <Keyframes>
            <Keyframe id="609"  time="-9999999/1" value="" leadInLength="0/1"  />
            </Keyframes>
           </Parameter>
           <InterpolatingParam id="610" interp="linr"  time="-9999999/1" value="1" leadInLength="0/1"   name="leftClickSoundVolume"/>
           <Parameter id="611"   name="leftClickType">
            <Keyframes>
            <Keyframe id="612"  time="-9999999/1" value="0" leadInLength="0/1"  />
            </Keyframes>
           </Parameter>
           <InterpolatingParam id="613" interp="linr"  time="-9999999/1" value="1" leadInLength="0/1"   name="opacity"/>
           <InterpolatingParam id="614" interp="linr"  time="-9999999/1" value="255" leadInLength="0/1"   name="rightClickColorBlue"/>
           <InterpolatingParam id="615" interp="linr"  time="-9999999/1" value="0" leadInLength="0/1"   name="rightClickColorGreen"/>
           <InterpolatingParam id="616" interp="linr"  time="-9999999/1" value="0" leadInLength="0/1"   name="rightClickColorRed"/>
           <InterpolatingParam id="617" interp="linr"  time="-9999999/1" value="0.80000000000000004" leadInLength="0/1"   name="rightClickDuration"/>
           <InterpolatingParam id="618" interp="linr"  time="-9999999/1" value="20" leadInLength="0/1"   name="rightClickSize"/>
           <Parameter id="619"   name="rightClickSoundFilename">
            <Keyframes>
            <Keyframe id="620"  time="-9999999/1" value="" leadInLength="0/1"  />
            </Keyframes>
           </Parameter>
           <InterpolatingParam id="621" interp="linr"  time="-9999999/1" value="1" leadInLength="0/1"   name="rightClickSoundVolume"/>
           <Parameter id="622"   name="rightClickType">
            <Keyframes>
            <Keyframe id="623"  time="-9999999/1" value="0" leadInLength="0/1"  />
            </Keyframes>
           </Parameter>
           </Parameters>
           <MetaData>
            <entry key="effectIndex" val="0"/>
           </MetaData>
          </GenericEffect>
         </Effects>
         <Attributes>
          <Attribute id="624" value="" name="ident"/>
         </Attributes>
         <MetaData>
          <entry key="AutoAppliedSmartFocus" val="False"/>
          <entry key="WinSubProjectDisplayName" val=""/>
         </MetaData>
         <ExtraData>
          <Entry key="ZoomPanBin">
           <ZoomPanBin id="625"  >
            <ZoomPanKeyframes>
             <ZoomPanKeyframe id="626" timeRangeEnd="-9999999/1" timeRangeDuration="0/1" interpolaterName=""  />
            </ZoomPanKeyframes>
           </ZoomPanBin>
          </Entry>
          <Entry key="CursorEffectBin">
           <CursorEffectBin id="627"  >
            <CursorEffectKeyframes>
             <CursorEffectKeyframe id="628" timeRangeEnd="-9999999/1" timeRangeDuration="0/1" interpolaterName=""  />
            </CursorEffectKeyframes>
           </CursorEffectBin>
          </Entry>
         </ExtraData>
         <GenericTrack id="629"  >
          <Attributes>
           <Attribute id="630" value="" name="ident"/>
          </Attributes>
          <MetaData>
           <entry key="IsLocked" val="False"/>
           <entry key="WinTrackHeight" val="0"/>
          </MetaData>
          <Medias>
           <UnifiedMedia id="631"  >
            <AMFile id="632" start="0" duration="135" scalar="1/1" mediaStart="0/1" mediaDuration="135/1" trackNumber="1" src="12" channelNumber="0" >
             <Parameters>
              <InterpolatingParam id="633" interp="linr"  time="0/1" value="1" leadInLength="0/1"  name="volume"/>
              <Parameter id="634"  name="captions"/>
             </Parameters>
             <Attributes>
              <Attribute id="635" value="" name="ident"/>
              <Attribute id="636" value="22050" name="sampleRate"/>
              <Attribute id="637" value="16" name="bitDepth"/>
              <Attribute id="638" value="1" name="gain"/>
             </Attributes>
            </AMFile>
            <ScreenVMFile id="639" start="0" duration="135" scalar="1/1" mediaStart="0/1" mediaDuration="135/1" trackNumber="0" src="12" >
             <Transformer>
              <VectorParam id="640"  name="translation">
               <InterpolatingParam id="641" interp="linr"  time="-9999999/1" value="0" leadInLength="0/1"  />
               <InterpolatingParam id="642" interp="linr"  time="-9999999/1" value="0" leadInLength="0/1"  />
               <InterpolatingParam id="643" interp="linr"  time="-9999999/1" value="0" leadInLength="0/1"  />
              </VectorParam>
              <VectorParam id="644"  name="rotation">
               <InterpolatingParam id="645" interp="linr"  time="-9999999/1" value="0" leadInLength="0/1"  />
               <InterpolatingParam id="646" interp="linr"  time="-9999999/1" value="0" leadInLength="0/1"  />
               <InterpolatingParam id="647" interp="linr"  time="-9999999/1" value="0" leadInLength="0/1"  />
              </VectorParam>
              <VectorParam id="648"  name="shear">
               <InterpolatingParam id="649" interp="linr"  time="-9999999/1" value="0" leadInLength="0/1"  />
               <InterpolatingParam id="650" interp="linr"  time="-9999999/1" value="0" leadInLength="0/1"  />
               <InterpolatingParam id="651" interp="linr"  time="-9999999/1" value="0" leadInLength="0/1"  />
              </VectorParam>
              <VectorParam id="652"  name="scale">
               <InterpolatingParam id="653" interp="linr"  time="-9999999/1" value="1" leadInLength="0/1"  />
               <InterpolatingParam id="654" interp="linr"  time="-9999999/1" value="1" leadInLength="0/1"  />
               <InterpolatingParam id="655" interp="linr"  time="-9999999/1" value="1" leadInLength="0/1"  />
              </VectorParam>
              <VectorParam id="656"  name="anchor">
               <InterpolatingParam id="657" interp="linr"  time="0/1" value="0" leadInLength="0/1"  />
               <InterpolatingParam id="658" interp="linr"  time="0/1" value="0" leadInLength="0/1"  />
               <InterpolatingParam id="659" interp="linr"  time="0/1" value="0" leadInLength="0/1"  />
              </VectorParam>
             </Transformer>
             <Parameters>
              <VectorParam id="660"  name="sourceCrop">
               <InterpolatingParam id="661" interp="linr"  time="0/1" value="0" leadInLength="0/1"  />
               <InterpolatingParam id="662" interp="linr"  time="0/1" value="0" leadInLength="0/1"  />
               <InterpolatingParam id="663" interp="linr"  time="0/1" value="0" leadInLength="0/1"  />
               <InterpolatingParam id="664" interp="linr"  time="0/1" value="0" leadInLength="0/1"  />
              </VectorParam>
              <VectorParam id="665"  name="geometryCrop">
               <InterpolatingParam id="666" interp="linr"  time="-9999999/1" value="0" leadInLength="0/1"  />
               <InterpolatingParam id="667" interp="linr"  time="-9999999/1" value="0" leadInLength="0/1"  />
               <InterpolatingParam id="668" interp="linr"  time="-9999999/1" value="0" leadInLength="0/1"  />
               <InterpolatingParam id="669" interp="linr"  time="-9999999/1" value="0" leadInLength="0/1"  />
              </VectorParam>
              <InterpolatingParam id="670" interp="linr"  time="-9999999/1" value="1" leadInLength="0/1"  name="opacity"/>
              <InterpolatingParam id="671" interp="linr"  time="0/1" value="0" leadInLength="0/1"  name="cursorOpacity"/>
              <InterpolatingParam id="672" interp="linr"  time="0/1" value="0" leadInLength="0/1"  name="cursorScale"/>
             </Parameters>
             <Attributes>
              <Attribute id="673" value="" name="ident"/>
             </Attributes>
             <ExtraData>
              <Entry key="ZoomPanBin">
               <ZoomPanBin id="674"  >
                <ZoomPanKeyframes>
                 <ZoomPanKeyframe id="675" timeRangeEnd="-9999999/1" timeRangeDuration="0/1" interpolaterName=""  />
                </ZoomPanKeyframes>
               </ZoomPanBin>
              </Entry>
              <Entry key="CursorEffectBin">
               <CursorEffectBin id="676"  >
                <CursorEffectKeyframes>
                </CursorEffectKeyframes>
               </CursorEffectBin>
              </Entry>
             </ExtraData>
            </ScreenVMFile>
            <MetaData>
             <entry key="AutoAppliedSmartFocus" val="False"/>
             <entry key="WinSubProjectDisplayName" val=""/>
            </MetaData>
           </UnifiedMedia>
           <ScreenIMFile id="677" start="135" duration="30" scalar="1/1" mediaStart="135/1" mediaDuration="1/1" trackNumber="0" src="12" trimStartSum="0/1" >
            <Transformer>
             <VectorParam id="678"  name="translation">
              <InterpolatingParam id="679" interp="linr"  time="-9999999/1" value="0" leadInLength="0/1"  />
              <InterpolatingParam id="680" interp="linr"  time="-9999999/1" value="0" leadInLength="0/1"  />
              <InterpolatingParam id="681" interp="linr"  time="-9999999/1" value="0" leadInLength="0/1"  />
             </VectorParam>
             <VectorParam id="682"  name="rotation">
              <InterpolatingParam id="683" interp="linr"  time="-9999999/1" value="0" leadInLength="0/1"  />
              <InterpolatingParam id="684" interp="linr"  time="-9999999/1" value="0" leadInLength="0/1"  />
              <InterpolatingParam id="685" interp="linr"  time="-9999999/1" value="0" leadInLength="0/1"  />
             </VectorParam>
             <VectorParam id="686"  name="shear">
              <InterpolatingParam id="687" interp="linr"  time="-9999999/1" value="0" leadInLength="0/1"  />
              <InterpolatingParam id="688" interp="linr"  time="-9999999/1" value="0" leadInLength="0/1"  />
              <InterpolatingParam id="689" interp="linr"  time="-9999999/1" value="0" leadInLength="0/1"  />
             </VectorParam>
             <VectorParam id="690"  name="scale">
              <InterpolatingParam id="691" interp="linr"  time="-9999999/1" value="1" leadInLength="0/1"  />
              <InterpolatingParam id="692" interp="linr"  time="-9999999/1" value="1" leadInLength="0/1"  />
              <InterpolatingParam id="693" interp="linr"  time="-9999999/1" value="1" leadInLength="0/1"  />
             </VectorParam>
             <VectorParam id="694"  name="anchor">
              <InterpolatingParam id="695" interp="linr"  time="0/1" value="0" leadInLength="0/1"  />
              <InterpolatingParam id="696" interp="linr"  time="0/1" value="0" leadInLength="0/1"  />
              <InterpolatingParam id="697" interp="linr"  time="0/1" value="0" leadInLength="0/1"  />
             </VectorParam>
            </Transformer>
            <Parameters>
             <VectorParam id="698"  name="sourceCrop">
              <InterpolatingParam id="699" interp="linr"  time="0/1" value="0" leadInLength="0/1"  />
              <InterpolatingParam id="700" interp="linr"  time="0/1" value="0" leadInLength="0/1"  />
              <InterpolatingParam id="701" interp="linr"  time="0/1" value="0" leadInLength="0/1"  />
              <InterpolatingParam id="702" interp="linr"  time="0/1" value="0" leadInLength="0/1"  />
             </VectorParam>
             <VectorParam id="703"  name="geometryCrop">
              <InterpolatingParam id="704" interp="linr"  time="-9999999/1" value="0" leadInLength="0/1"  />
              <InterpolatingParam id="705" interp="linr"  time="-9999999/1" value="0" leadInLength="0/1"  />
              <InterpolatingParam id="706" interp="linr"  time="-9999999/1" value="0" leadInLength="0/1"  />
              <InterpolatingParam id="707" interp="linr"  time="-9999999/1" value="0" leadInLength="0/1"  />
             </VectorParam>
             <InterpolatingParam id="708" interp="linr"  time="-9999999/1" value="1" leadInLength="0/1"  name="opacity"/>
             <InterpolatingParam id="709" interp="linr"  time="0/1" value="0" leadInLength="0/1"  name="cursorOpacity"/>
             <InterpolatingParam id="710" interp="linr"  time="0/1" value="0" leadInLength="0/1"  name="recordedCursorOpacity"/>
             <InterpolatingParam id="711" interp="linr"  time="0/1" value="0" leadInLength="0/1"  name="cursorScale"/>
            </Parameters>
            <Attributes>
             <Attribute id="712" value="" name="ident"/>
            </Attributes>
            <MetaData>
             <entry key="AutoAppliedSmartFocus" val="False"/>
             <entry key="WinSubProjectDisplayName" val=""/>
            </MetaData>
            <ExtraData>
             <Entry key="ZoomPanBin">
              <ZoomPanBin id="713"  >
               <ZoomPanKeyframes>
                <ZoomPanKeyframe id="714" timeRangeEnd="-9999999/1" timeRangeDuration="0/1" interpolaterName=""  />
               </ZoomPanKeyframes>
              </ZoomPanBin>
             </Entry>
             <Entry key="CursorEffectBin">
              <CursorEffectBin id="715"  >
               <CursorEffectKeyframes>
               </CursorEffectKeyframes>
              </CursorEffectBin>
             </Entry>
            </ExtraData>
           </ScreenIMFile>
           <UnifiedMedia id="716"  >
            <AMFile id="717" start="165" duration="15" scalar="1/1" mediaStart="135/1" mediaDuration="15/1" trackNumber="1" src="12" channelNumber="0" >
             <Parameters>
              <InterpolatingParam id="718" interp="linr"  time="0/1" value="1" leadInLength="0/1"  name="volume"/>
              <Parameter id="719"  name="captions"/>
             </Parameters>
             <Attributes>
              <Attribute id="720" value="" name="ident"/>
              <Attribute id="721" value="22050" name="sampleRate"/>
              <Attribute id="722" value="16" name="bitDepth"/>
              <Attribute id="723" value="1" name="gain"/>
             </Attributes>
            </AMFile>
            <ScreenVMFile id="724" start="165" duration="11" scalar="1/1" mediaStart="135/1" mediaDuration="11/1" trackNumber="0" src="12" >
             <Transformer>
              <VectorParam id="725"  name="translation">
               <InterpolatingParam id="726" interp="linr"  time="-9999999/1" value="0" leadInLength="0/1"  />
               <InterpolatingParam id="727" interp="linr"  time="-9999999/1" value="0" leadInLength="0/1"  />
               <InterpolatingParam id="728" interp="linr"  time="-9999999/1" value="0" leadInLength="0/1"  />
              </VectorParam>
              <VectorParam id="729"  name="rotation">
               <InterpolatingParam id="730" interp="linr"  time="-9999999/1" value="0" leadInLength="0/1"  />
               <InterpolatingParam id="731" interp="linr"  time="-9999999/1" value="0" leadInLength="0/1"  />
               <InterpolatingParam id="732" interp="linr"  time="-9999999/1" value="0" leadInLength="0/1"  />
              </VectorParam>
              <VectorParam id="733"  name="shear">
               <InterpolatingParam id="734" interp="linr"  time="-9999999/1" value="0" leadInLength="0/1"  />
               <InterpolatingParam id="735" interp="linr"  time="-9999999/1" value="0" leadInLength="0/1"  />
               <InterpolatingParam id="736" interp="linr"  time="-9999999/1" value="0" leadInLength="0/1"  />
              </VectorParam>
              <VectorParam id="737"  name="scale">
               <InterpolatingParam id="738" interp="linr"  time="-9999999/1" value="1" leadInLength="0/1"  />
               <InterpolatingParam id="739" interp="linr"  time="-9999999/1" value="1" leadInLength="0/1"  />
               <InterpolatingParam id="740" interp="linr"  time="-9999999/1" value="1" leadInLength="0/1"  />
              </VectorParam>
              <VectorParam id="741"  name="anchor">
               <InterpolatingParam id="742" interp="linr"  time="0/1" value="0" leadInLength="0/1"  />
               <InterpolatingParam id="743" interp="linr"  time="0/1" value="0" leadInLength="0/1"  />
               <InterpolatingParam id="744" interp="linr"  time="0/1" value="0" leadInLength="0/1"  />
              </VectorParam>
             </Transformer>
             <Parameters>
              <VectorParam id="745"  name="sourceCrop">
               <InterpolatingParam id="746" interp="linr"  time="0/1" value="0" leadInLength="0/1"  />
               <InterpolatingParam id="747" interp="linr"  time="0/1" value="0" leadInLength="0/1"  />
               <InterpolatingParam id="748" interp="linr"  time="0/1" value="0" leadInLength="0/1"  />
               <InterpolatingParam id="749" interp="linr"  time="0/1" value="0" leadInLength="0/1"  />
              </VectorParam>
              <VectorParam id="750"  name="geometryCrop">
               <InterpolatingParam id="751" interp="linr"  time="-9999999/1" value="0" leadInLength="0/1"  />
               <InterpolatingParam id="752" interp="linr"  time="-9999999/1" value="0" leadInLength="0/1"  />
               <InterpolatingParam id="753" interp="linr"  time="-9999999/1" value="0" leadInLength="0/1"  />
               <InterpolatingParam id="754" interp="linr"  time="-9999999/1" value="0" leadInLength="0/1"  />
              </VectorParam>
              <InterpolatingParam id="755" interp="linr"  time="-9999999/1" value="1" leadInLength="0/1"  name="opacity"/>
              <InterpolatingParam id="756" interp="linr"  time="0/1" value="0" leadInLength="0/1"  name="cursorOpacity"/>
              <InterpolatingParam id="757" interp="linr"  time="0/1" value="0" leadInLength="0/1"  name="cursorScale"/>
             </Parameters>
             <Attributes>
              <Attribute id="758" value="" name="ident"/>
             </Attributes>
             <ExtraData>
              <Entry key="ZoomPanBin">
               <ZoomPanBin id="759"  >
                <ZoomPanKeyframes>
                 <ZoomPanKeyframe id="760" timeRangeEnd="-9999999/1" timeRangeDuration="0/1" interpolaterName=""  />
                </ZoomPanKeyframes>
               </ZoomPanBin>
              </Entry>
              <Entry key="CursorEffectBin">
               <CursorEffectBin id="761"  >
                <CursorEffectKeyframes>
                </CursorEffectKeyframes>
               </CursorEffectBin>
              </Entry>
             </ExtraData>
            </ScreenVMFile>
            <MetaData>
             <entry key="AutoAppliedSmartFocus" val="False"/>
             <entry key="WinSubProjectDisplayName" val=""/>
            </MetaData>
           </UnifiedMedia>
          </Medias>
         </GenericTrack>
        </StitchedMedia>
        <UnifiedMedia id="762"  >
         <AMFile id="763" start="1613" duration="254" scalar="2/1" mediaStart="0/1" mediaDuration="127/1" trackNumber="1" src="12" channelNumber="0" >
          <Parameters>
           <InterpolatingParam id="764" interp="linr"  name="volume">
            <Keyframes>
            <Keyframe id="765"  time="-1/2" value="1" leadInLength="0/1"  />
            <Keyframe id="766"  time="0/1" value="0" leadInLength="0/1"  />
            <Keyframe id="767"  time="146/1" value="0" leadInLength="0/1"  />
            <Keyframe id="768"  time="293/2" value="1" leadInLength="0/1"  />
            </Keyframes>
           </InterpolatingParam>
           <Parameter id="769"  name="captions"/>
          </Parameters>
          <Attributes>
           <Attribute id="770" value="" name="ident"/>
           <Attribute id="771" value="22050" name="sampleRate"/>
           <Attribute id="772" value="16" name="bitDepth"/>
           <Attribute id="773" value="1" name="gain"/>
          </Attributes>
         </AMFile>
         <ScreenVMFile id="774" start="1613" duration="254" scalar="2/1" mediaStart="0/1" mediaDuration="127/1" trackNumber="0" src="12" >
          <Transformer>
           <VectorParam id="775"  name="translation">
            <InterpolatingParam id="776" interp="linr"  time="-9999999/1" value="0" leadInLength="0/1"  />
            <InterpolatingParam id="777" interp="linr"  time="-9999999/1" value="0" leadInLength="0/1"  />
            <InterpolatingParam id="778" interp="linr"  time="-9999999/1" value="0" leadInLength="0/1"  />
           </VectorParam>
           <VectorParam id="779"  name="rotation">
            <InterpolatingParam id="780" interp="linr"  time="-9999999/1" value="0" leadInLength="0/1"  />
            <InterpolatingParam id="781" interp="linr"  time="-9999999/1" value="0" leadInLength="0/1"  />
            <InterpolatingParam id="782" interp="linr"  time="-9999999/1" value="0" leadInLength="0/1"  />
           </VectorParam>
           <VectorParam id="783"  name="shear">
            <InterpolatingParam id="784" interp="linr"  time="-9999999/1" value="0" leadInLength="0/1"  />
            <InterpolatingParam id="785" interp="linr"  time="-9999999/1" value="0" leadInLength="0/1"  />
            <InterpolatingParam id="786" interp="linr"  time="-9999999/1" value="0" leadInLength="0/1"  />
           </VectorParam>
           <VectorParam id="787"  name="scale">
            <InterpolatingParam id="788" interp="linr"  time="-9999999/1" value="0.56042031523642732" leadInLength="0/1"  />
            <InterpolatingParam id="789" interp="linr"  time="-9999999/1" value="0.56042031523642732" leadInLength="0/1"  />
            <InterpolatingParam id="790" interp="linr"  time="-9999999/1" value="1" leadInLength="0/1"  />
           </VectorParam>
           <VectorParam id="791"  name="anchor">
            <InterpolatingParam id="792" interp="linr"  time="0/1" value="0" leadInLength="0/1"  />
            <InterpolatingParam id="793" interp="linr"  time="0/1" value="0" leadInLength="0/1"  />
            <InterpolatingParam id="794" interp="linr"  time="0/1" value="0" leadInLength="0/1"  />
           </VectorParam>
          </Transformer>
          <Parameters>
           <VectorParam id="795"  name="sourceCrop">
            <InterpolatingParam id="796" interp="linr"  time="0/1" value="0" leadInLength="0/1"  />
            <InterpolatingParam id="797" interp="linr"  time="0/1" value="0" leadInLength="0/1"  />
            <InterpolatingParam id="798" interp="linr"  time="0/1" value="0" leadInLength="0/1"  />
            <InterpolatingParam id="799" interp="linr"  time="0/1" value="0" leadInLength="0/1"  />
           </VectorParam>
           <VectorParam id="800"  name="geometryCrop">
            <InterpolatingParam id="801" interp="linr"  time="-9999999/1" value="0" leadInLength="0/1"  />
            <InterpolatingParam id="802" interp="linr"  time="-9999999/1" value="0" leadInLength="0/1"  />
            <InterpolatingParam id="803" interp="linr"  time="-9999999/1" value="0" leadInLength="0/1"  />
            <InterpolatingParam id="804" interp="linr"  time="-9999999/1" value="0" leadInLength="0/1"  />
           </VectorParam>
           <InterpolatingParam id="805" interp="linr"  time="-9999999/1" value="1" leadInLength="0/1"  name="opacity"/>
           <InterpolatingParam id="806" interp="linr"  time="0/1" value="1" leadInLength="0/1"  name="cursorOpacity"/>
           <InterpolatingParam id="807" interp="linr"  time="0/1" value="1" leadInLength="0/1"  name="cursorScale"/>
          </Parameters>
          <Effects>
           <GenericEffect id="808" name = "CursorBaseEffectName" >
            <Parameters>
            <InterpolatingParam id="809" interp="linr"  time="-9999999/1" value="1" leadInLength="0/1"   name="cursorSize"/>
            <InterpolatingParam id="810" interp="linr"  time="-9999999/1" value="0" leadInLength="0/1"   name="highlightBlurRadius"/>
            <InterpolatingParam id="811" interp="linr"  time="-9999999/1" value="0" leadInLength="0/1"   name="highlightColorBlue"/>
            <InterpolatingParam id="812" interp="linr"  time="-9999999/1" value="255" leadInLength="0/1"   name="highlightColorGreen"/>
            <InterpolatingParam id="813" interp="linr"  time="-9999999/1" value="255" leadInLength="0/1"   name="highlightColorRed"/>
            <InterpolatingParam id="814" interp="linr"  time="-9999999/1" value="5" leadInLength="0/1"   name="highlightFeatherSize"/>
            <InterpolatingParam id="815" interp="linr"  time="-9999999/1" value="2" leadInLength="0/1"   name="highlightMagnification"/>
            <InterpolatingParam id="816" interp="linr"  time="-9999999/1" value="1" leadInLength="0/1"   name="highlightOpacity"/>
            <InterpolatingParam id="817" interp="linr"  time="-9999999/1" value="45" leadInLength="0/1"   name="highlightSize"/>
            <Parameter id="818"   name="highlightType">
             <Keyframes>
             <Keyframe id="819"  time="-9999999/1" value="0" leadInLength="0/1"  />
             </Keyframes>
            </Parameter>
            <InterpolatingParam id="820" interp="linr"  time="-9999999/1" value="0" leadInLength="0/1"   name="leftClickColorBlue"/>
            <InterpolatingParam id="821" interp="linr"  time="-9999999/1" value="0" leadInLength="0/1"   name="leftClickColorGreen"/>
            <InterpolatingParam id="822" interp="linr"  time="-9999999/1" value="255" leadInLength="0/1"   name="leftClickColorRed"/>
            <InterpolatingParam id="823" interp="linr"  time="-9999999/1" value="0.80000000000000004" leadInLength="0/1"   name="leftClickDuration"/>
            <InterpolatingParam id="824" interp="linr"  time="-9999999/1" value="20" leadInLength="0/1"   name="leftClickSize"/>
            <Parameter id="825"   name="leftClickSoundFilename">
             <Keyframes>
             <Keyframe id="826"  time="-9999999/1" value="" leadInLength="0/1"  />
             </Keyframes>
            </Parameter>
            <InterpolatingParam id="827" interp="linr"  time="-9999999/1" value="1" leadInLength="0/1"   name="leftClickSoundVolume"/>
            <Parameter id="828"   name="leftClickType">
             <Keyframes>
             <Keyframe id="829"  time="-9999999/1" value="0" leadInLength="0/1"  />
             </Keyframes>
            </Parameter>
            <InterpolatingParam id="830" interp="linr"  time="-9999999/1" value="1" leadInLength="0/1"   name="opacity"/>
            <InterpolatingParam id="831" interp="linr"  time="-9999999/1" value="255" leadInLength="0/1"   name="rightClickColorBlue"/>
            <InterpolatingParam id="832" interp="linr"  time="-9999999/1" value="0" leadInLength="0/1"   name="rightClickColorGreen"/>
            <InterpolatingParam id="833" interp="linr"  time="-9999999/1" value="0" leadInLength="0/1"   name="rightClickColorRed"/>
            <InterpolatingParam id="834" interp="linr"  time="-9999999/1" value="0.80000000000000004" leadInLength="0/1"   name="rightClickDuration"/>
            <InterpolatingParam id="835" interp="linr"  time="-9999999/1" value="20" leadInLength="0/1"   name="rightClickSize"/>
            <Parameter id="836"   name="rightClickSoundFilename">
             <Keyframes>
             <Keyframe id="837"  time="-9999999/1" value="" leadInLength="0/1"  />
             </Keyframes>
            </Parameter>
            <InterpolatingParam id="838" interp="linr"  time="-9999999/1" value="1" leadInLength="0/1"   name="rightClickSoundVolume"/>
            <Parameter id="839"   name="rightClickType">
             <Keyframes>
             <Keyframe id="840"  time="-9999999/1" value="0" leadInLength="0/1"  />
             </Keyframes>
            </Parameter>
            </Parameters>
            <MetaData>
             <entry key="effectIndex" val="0"/>
            </MetaData>
           </GenericEffect>
          </Effects>
          <Attributes>
           <Attribute id="841" value="" name="ident"/>
          </Attributes>
          <ExtraData>
           <Entry key="ZoomPanBin">
            <ZoomPanBin id="842"  >
             <ZoomPanKeyframes>
              <ZoomPanKeyframe id="843" timeRangeEnd="-9999999/1" timeRangeDuration="0/1" interpolaterName="linr"  />
             </ZoomPanKeyframes>
            </ZoomPanBin>
           </Entry>
           <Entry key="CursorEffectBin">
            <CursorEffectBin id="844"  >
             <CursorEffectKeyframes>
              <CursorEffectKeyframe id="845" timeRangeEnd="-9999999/1" timeRangeDuration="0/1" interpolaterName=""  />
             </CursorEffectKeyframes>
            </CursorEffectBin>
           </Entry>
          </ExtraData>
         </ScreenVMFile>
         <MetaData>
          <entry key="AutoAppliedSmartFocus" val="False"/>
          <entry key="WinSubProjectDisplayName" val=""/>
         </MetaData>
        </UnifiedMedia>
        <StitchedMedia id="846" start="1867" duration="592" scalar="1717/5048" mediaStart="0/1" mediaDuration="2988416/1717" minMediaStart="0/1" >
         <Transformer>
          <VectorParam id="847"  name="translation">
           <InterpolatingParam id="848" interp="linr"  time="-9999999/1" value="0" leadInLength="0/1"  />
           <InterpolatingParam id="849" interp="linr"  time="-9999999/1" value="0" leadInLength="0/1"  />
           <InterpolatingParam id="850" interp="linr"  time="-9999999/1" value="0" leadInLength="0/1"  />
          </VectorParam>
          <VectorParam id="851"  name="rotation">
           <InterpolatingParam id="852" interp="linr"  time="-9999999/1" value="0" leadInLength="0/1"  />
           <InterpolatingParam id="853" interp="linr"  time="-9999999/1" value="0" leadInLength="0/1"  />
           <InterpolatingParam id="854" interp="linr"  time="-9999999/1" value="0" leadInLength="0/1"  />
          </VectorParam>
          <VectorParam id="855"  name="shear">
           <InterpolatingParam id="856" interp="linr"  time="-9999999/1" value="0" leadInLength="0/1"  />
           <InterpolatingParam id="857" interp="linr"  time="-9999999/1" value="0" leadInLength="0/1"  />
           <InterpolatingParam id="858" interp="linr"  time="-9999999/1" value="0" leadInLength="0/1"  />
          </VectorParam>
          <VectorParam id="859"  name="scale">
           <InterpolatingParam id="860" interp="linr"  time="-9999999/1" value="1" leadInLength="0/1"  />
           <InterpolatingParam id="861" interp="linr"  time="-9999999/1" value="1" leadInLength="0/1"  />
           <InterpolatingParam id="862" interp="linr"  time="-9999999/1" value="1" leadInLength="0/1"  />
          </VectorParam>
          <VectorParam id="863"  name="anchor">
           <InterpolatingParam id="864" interp="linr"  >
            <Keyframes>
            <Keyframe id="865"  time="0/1" value="0" leadInLength="0/1"  />
            <Keyframe id="866"  time="4624/1" value="0" leadInLength="0/1"  />
            </Keyframes>
           </InterpolatingParam>
           <InterpolatingParam id="867" interp="linr"  >
            <Keyframes>
            <Keyframe id="868"  time="0/1" value="0" leadInLength="0/1"  />
            <Keyframe id="869"  time="4624/1" value="0" leadInLength="0/1"  />
            </Keyframes>
           </InterpolatingParam>
           <InterpolatingParam id="870" interp="linr"  >
            <Keyframes>
            <Keyframe id="871"  time="0/1" value="0" leadInLength="0/1"  />
            <Keyframe id="872"  time="4624/1" value="0" leadInLength="0/1"  />
            </Keyframes>
           </InterpolatingParam>
          </VectorParam>
         </Transformer>
         <Parameters>
          <VectorParam id="873"  name="sourceCrop">
           <InterpolatingParam id="874" interp="linr"  >
            <Keyframes>
            <Keyframe id="875"  time="0/1" value="0" leadInLength="0/1"  />
            <Keyframe id="876"  time="4624/1" value="0" leadInLength="0/1"  />
            </Keyframes>
           </InterpolatingParam>
           <InterpolatingParam id="877" interp="linr"  >
            <Keyframes>
            <Keyframe id="878"  time="0/1" value="0" leadInLength="0/1"  />
            <Keyframe id="879"  time="4624/1" value="0" leadInLength="0/1"  />
            </Keyframes>
           </InterpolatingParam>
           <InterpolatingParam id="880" interp="linr"  >
            <Keyframes>
            <Keyframe id="881"  time="0/1" value="0" leadInLength="0/1"  />
            <Keyframe id="882"  time="4624/1" value="0" leadInLength="0/1"  />
            </Keyframes>
           </InterpolatingParam>
           <InterpolatingParam id="883" interp="linr"  >
            <Keyframes>
            <Keyframe id="884"  time="0/1" value="0" leadInLength="0/1"  />
            <Keyframe id="885"  time="4624/1" value="0" leadInLength="0/1"  />
            </Keyframes>
           </InterpolatingParam>
          </VectorParam>
          <VectorParam id="886"  name="geometryCrop">
           <InterpolatingParam id="887" interp="linr"  time="-9999999/1" value="0" leadInLength="0/1"  />
           <InterpolatingParam id="888" interp="linr"  time="-9999999/1" value="0" leadInLength="0/1"  />
           <InterpolatingParam id="889" interp="linr"  time="-9999999/1" value="0" leadInLength="0/1"  />
           <InterpolatingParam id="890" interp="linr"  time="-9999999/1" value="0" leadInLength="0/1"  />
          </VectorParam>
          <InterpolatingParam id="891" interp="linr"  time="-9999999/1" value="1" leadInLength="0/1"  name="opacity"/>
          <InterpolatingParam id="892" interp="linr"  time="0/1" value="1" leadInLength="0/1"  name="cursorOpacity"/>
          <InterpolatingParam id="893" interp="linr"  time="0/1" value="1" leadInLength="0/1"  name="cursorScale"/>
          <Parameter id="894"  name="captions"/>
         </Parameters>
         <Effects>
          <GenericEffect id="895" name = "CursorBaseEffectName" >
           <Parameters>
           <InterpolatingParam id="896" interp="linr"  time="-9999999/1" value="1" leadInLength="0/1"   name="cursorSize"/>
           <InterpolatingParam id="897" interp="linr"  time="-9999999/1" value="0" leadInLength="0/1"   name="highlightBlurRadius"/>
           <InterpolatingParam id="898" interp="linr"  time="-9999999/1" value="0" leadInLength="0/1"   name="highlightColorBlue"/>
           <InterpolatingParam id="899" interp="linr"  time="-9999999/1" value="255" leadInLength="0/1"   name="highlightColorGreen"/>
           <InterpolatingParam id="900" interp="linr"  time="-9999999/1" value="255" leadInLength="0/1"   name="highlightColorRed"/>
           <InterpolatingParam id="901" interp="linr"  time="-9999999/1" value="5" leadInLength="0/1"   name="highlightFeatherSize"/>
           <InterpolatingParam id="902" interp="linr"  time="-9999999/1" value="2" leadInLength="0/1"   name="highlightMagnification"/>
           <InterpolatingParam id="903" interp="linr"  time="-9999999/1" value="1" leadInLength="0/1"   name="highlightOpacity"/>
           <InterpolatingParam id="904" interp="linr"  time="-9999999/1" value="45" leadInLength="0/1"   name="highlightSize"/>
           <Parameter id="905"   name="highlightType">
            <Keyframes>
            <Keyframe id="906"  time="-9999999/1" value="0" leadInLength="0/1"  />
            </Keyframes>
           </Parameter>
           <InterpolatingParam id="907" interp="linr"  time="-9999999/1" value="0" leadInLength="0/1"   name="leftClickColorBlue"/>
           <InterpolatingParam id="908" interp="linr"  time="-9999999/1" value="0" leadInLength="0/1"   name="leftClickColorGreen"/>
           <InterpolatingParam id="909" interp="linr"  time="-9999999/1" value="255" leadInLength="0/1"   name="leftClickColorRed"/>
           <InterpolatingParam id="910" interp="linr"  time="-9999999/1" value="0.80000000000000004" leadInLength="0/1"   name="leftClickDuration"/>
           <InterpolatingParam id="911" interp="linr"  time="-9999999/1" value="20" leadInLength="0/1"   name="leftClickSize"/>
           <Parameter id="912"   name="leftClickSoundFilename">
            <Keyframes>
            <Keyframe id="913"  time="-9999999/1" value="" leadInLength="0/1"  />
            </Keyframes>
           </Parameter>
           <InterpolatingParam id="914" interp="linr"  time="-9999999/1" value="1" leadInLength="0/1"   name="leftClickSoundVolume"/>
           <Parameter id="915"   name="leftClickType">
            <Keyframes>
            <Keyframe id="916"  time="-9999999/1" value="0" leadInLength="0/1"  />
            </Keyframes>
           </Parameter>
           <InterpolatingParam id="917" interp="linr"  time="-9999999/1" value="1" leadInLength="0/1"   name="opacity"/>
           <InterpolatingParam id="918" interp="linr"  time="-9999999/1" value="255" leadInLength="0/1"   name="rightClickColorBlue"/>
           <InterpolatingParam id="919" interp="linr"  time="-9999999/1" value="0" leadInLength="0/1"   name="rightClickColorGreen"/>
           <InterpolatingParam id="920" interp="linr"  time="-9999999/1" value="0" leadInLength="0/1"   name="rightClickColorRed"/>
           <InterpolatingParam id="921" interp="linr"  time="-9999999/1" value="0.80000000000000004" leadInLength="0/1"   name="rightClickDuration"/>
           <InterpolatingParam id="922" interp="linr"  time="-9999999/1" value="20" leadInLength="0/1"   name="rightClickSize"/>
           <Parameter id="923"   name="rightClickSoundFilename">
            <Keyframes>
            <Keyframe id="924"  time="-9999999/1" value="" leadInLength="0/1"  />
            </Keyframes>
           </Parameter>
           <InterpolatingParam id="925" interp="linr"  time="-9999999/1" value="1" leadInLength="0/1"   name="rightClickSoundVolume"/>
           <Parameter id="926"   name="rightClickType">
            <Keyframes>
            <Keyframe id="927"  time="-9999999/1" value="0" leadInLength="0/1"  />
            </Keyframes>
           </Parameter>
           </Parameters>
          </GenericEffect>
         </Effects>
         <Attributes>
          <Attribute id="928" value="" name="ident"/>
         </Attributes>
         <MetaData>
          <entry key="AutoAppliedSmartFocus" val="False"/>
          <entry key="WinSubProjectDisplayName" val=""/>
         </MetaData>
         <ExtraData>
          <Entry key="ZoomPanBin">
           <ZoomPanBin id="929"  >
            <ZoomPanKeyframes>
             <ZoomPanKeyframe id="930" timeRangeEnd="-9999999/1" timeRangeDuration="0/1" interpolaterName=""  />
            </ZoomPanKeyframes>
           </ZoomPanBin>
          </Entry>
          <Entry key="CursorEffectBin">
           <CursorEffectBin id="931"  >
            <CursorEffectKeyframes>
             <CursorEffectKeyframe id="932" timeRangeEnd="-9999999/1" timeRangeDuration="0/1" interpolaterName=""  />
            </CursorEffectKeyframes>
           </CursorEffectBin>
          </Entry>
         </ExtraData>
         <GenericTrack id="933"  >
          <Attributes>
           <Attribute id="934" value="" name="ident"/>
          </Attributes>
          <MetaData>
           <entry key="IsLocked" val="False"/>
           <entry key="WinTrackHeight" val="0"/>
          </MetaData>
          <Medias>
           <ScreenVMFile id="935" start="0" duration="4624" scalar="1/1" mediaStart="0/1" mediaDuration="4624/1" trackNumber="0" src="4" >
            <Transformer>
             <VectorParam id="936"  name="translation">
              <InterpolatingParam id="937" interp="linr"  time="-9999999/1" value="0" leadInLength="0/1"  />
              <InterpolatingParam id="938" interp="linr"  time="-9999999/1" value="0" leadInLength="0/1"  />
              <InterpolatingParam id="939" interp="linr"  time="-9999999/1" value="0" leadInLength="0/1"  />
             </VectorParam>
             <VectorParam id="940"  name="rotation">
              <InterpolatingParam id="941" interp="linr"  time="-9999999/1" value="0" leadInLength="0/1"  />
              <InterpolatingParam id="942" interp="linr"  time="-9999999/1" value="0" leadInLength="0/1"  />
              <InterpolatingParam id="943" interp="linr"  time="-9999999/1" value="0" leadInLength="0/1"  />
             </VectorParam>
             <VectorParam id="944"  name="shear">
              <InterpolatingParam id="945" interp="linr"  time="-9999999/1" value="0" leadInLength="0/1"  />
              <InterpolatingParam id="946" interp="linr"  time="-9999999/1" value="0" leadInLength="0/1"  />
              <InterpolatingParam id="947" interp="linr"  time="-9999999/1" value="0" leadInLength="0/1"  />
             </VectorParam>
             <VectorParam id="948"  name="scale">
              <InterpolatingParam id="949" interp="linr"  time="-9999999/1" value="1" leadInLength="0/1"  />
              <InterpolatingParam id="950" interp="linr"  time="-9999999/1" value="1" leadInLength="0/1"  />
              <InterpolatingParam id="951" interp="linr"  time="-9999999/1" value="1" leadInLength="0/1"  />
             </VectorParam>
             <VectorParam id="952"  name="anchor">
              <InterpolatingParam id="953" interp="linr"  time="0/1" value="0" leadInLength="0/1"  />
              <InterpolatingParam id="954" interp="linr"  time="0/1" value="0" leadInLength="0/1"  />
              <InterpolatingParam id="955" interp="linr"  time="0/1" value="0" leadInLength="0/1"  />
             </VectorParam>
            </Transformer>
            <Parameters>
             <VectorParam id="956"  name="sourceCrop">
              <InterpolatingParam id="957" interp="linr"  time="0/1" value="0" leadInLength="0/1"  />
              <InterpolatingParam id="958" interp="linr"  time="0/1" value="0" leadInLength="0/1"  />
              <InterpolatingParam id="959" interp="linr"  time="0/1" value="0" leadInLength="0/1"  />
              <InterpolatingParam id="960" interp="linr"  time="0/1" value="0" leadInLength="0/1"  />
             </VectorParam>
             <VectorParam id="961"  name="geometryCrop">
              <InterpolatingParam id="962" interp="linr"  time="-9999999/1" value="0" leadInLength="0/1"  />
              <InterpolatingParam id="963" interp="linr"  time="-9999999/1" value="0" leadInLength="0/1"  />
              <InterpolatingParam id="964" interp="linr"  time="-9999999/1" value="0" leadInLength="0/1"  />
              <InterpolatingParam id="965" interp="linr"  time="-9999999/1" value="0" leadInLength="0/1"  />
             </VectorParam>
             <InterpolatingParam id="966" interp="linr"  time="-9999999/1" value="1" leadInLength="0/1"  name="opacity"/>
             <InterpolatingParam id="967" interp="linr"  time="0/1" value="0" leadInLength="0/1"  name="cursorOpacity"/>
             <InterpolatingParam id="968" interp="linr"  time="0/1" value="0" leadInLength="0/1"  name="cursorScale"/>
            </Parameters>
            <Attributes>
             <Attribute id="969" value="" name="ident"/>
            </Attributes>
            <MetaData>
             <entry key="AutoAppliedSmartFocus" val="False"/>
             <entry key="WinSubProjectDisplayName" val=""/>
            </MetaData>
            <ExtraData>
             <Entry key="ZoomPanBin">
              <ZoomPanBin id="970"  >
               <ZoomPanKeyframes>
                <ZoomPanKeyframe id="971" timeRangeEnd="-9999999/1" timeRangeDuration="0/1" interpolaterName=""  />
               </ZoomPanKeyframes>
              </ZoomPanBin>
             </Entry>
             <Entry key="CursorEffectBin">
              <CursorEffectBin id="972"  >
               <CursorEffectKeyframes>
               </CursorEffectKeyframes>
              </CursorEffectBin>
             </Entry>
            </ExtraData>
           </ScreenVMFile>
           <ScreenIMFile id="973" start="4624" duration="120" scalar="1/1" mediaStart="4624/1" mediaDuration="1/1" trackNumber="0" src="4" trimStartSum="0/1" >
            <Transformer>
             <VectorParam id="974"  name="translation">
              <InterpolatingParam id="975" interp="linr"  time="-9999999/1" value="0" leadInLength="0/1"  />
              <InterpolatingParam id="976" interp="linr"  time="-9999999/1" value="0" leadInLength="0/1"  />
              <InterpolatingParam id="977" interp="linr"  time="-9999999/1" value="0" leadInLength="0/1"  />
             </VectorParam>
             <VectorParam id="978"  name="rotation">
              <InterpolatingParam id="979" interp="linr"  time="-9999999/1" value="0" leadInLength="0/1"  />
              <InterpolatingParam id="980" interp="linr"  time="-9999999/1" value="0" leadInLength="0/1"  />
              <InterpolatingParam id="981" interp="linr"  time="-9999999/1" value="0" leadInLength="0/1"  />
             </VectorParam>
             <VectorParam id="982"  name="shear">
              <InterpolatingParam id="983" interp="linr"  time="-9999999/1" value="0" leadInLength="0/1"  />
              <InterpolatingParam id="984" interp="linr"  time="-9999999/1" value="0" leadInLength="0/1"  />
              <InterpolatingParam id="985" interp="linr"  time="-9999999/1" value="0" leadInLength="0/1"  />
             </VectorParam>
             <VectorParam id="986"  name="scale">
              <InterpolatingParam id="987" interp="linr"  time="-9999999/1" value="1" leadInLength="0/1"  />
              <InterpolatingParam id="988" interp="linr"  time="-9999999/1" value="1" leadInLength="0/1"  />
              <InterpolatingParam id="989" interp="linr"  time="-9999999/1" value="1" leadInLength="0/1"  />
             </VectorParam>
             <VectorParam id="990"  name="anchor">
              <InterpolatingParam id="991" interp="linr"  time="0/1" value="0" leadInLength="0/1"  />
              <InterpolatingParam id="992" interp="linr"  time="0/1" value="0" leadInLength="0/1"  />
              <InterpolatingParam id="993" interp="linr"  time="0/1" value="0" leadInLength="0/1"  />
             </VectorParam>
            </Transformer>
            <Parameters>
             <VectorParam id="994"  name="sourceCrop">
              <InterpolatingParam id="995" interp="linr"  time="0/1" value="0" leadInLength="0/1"  />
              <InterpolatingParam id="996" interp="linr"  time="0/1" value="0" leadInLength="0/1"  />
              <InterpolatingParam id="997" interp="linr"  time="0/1" value="0" leadInLength="0/1"  />
              <InterpolatingParam id="998" interp="linr"  time="0/1" value="0" leadInLength="0/1"  />
             </VectorParam>
             <VectorParam id="999"  name="geometryCrop">
              <InterpolatingParam id="1000" interp="linr"  time="-9999999/1" value="0" leadInLength="0/1"  />
              <InterpolatingParam id="1001" interp="linr"  time="-9999999/1" value="0" leadInLength="0/1"  />
              <InterpolatingParam id="1002" interp="linr"  time="-9999999/1" value="0" leadInLength="0/1"  />
              <InterpolatingParam id="1003" interp="linr"  time="-9999999/1" value="0" leadInLength="0/1"  />
             </VectorParam>
             <InterpolatingParam id="1004" interp="linr"  time="-9999999/1" value="1" leadInLength="0/1"  name="opacity"/>
             <InterpolatingParam id="1005" interp="linr"  time="0/1" value="0" leadInLength="0/1"  name="cursorOpacity"/>
             <InterpolatingParam id="1006" interp="linr"  time="0/1" value="0" leadInLength="0/1"  name="recordedCursorOpacity"/>
             <InterpolatingParam id="1007" interp="linr"  time="0/1" value="0" leadInLength="0/1"  name="cursorScale"/>
            </Parameters>
            <Attributes>
             <Attribute id="1008" value="" name="ident"/>
            </Attributes>
            <MetaData>
             <entry key="AutoAppliedSmartFocus" val="False"/>
             <entry key="WinSubProjectDisplayName" val=""/>
            </MetaData>
            <ExtraData>
             <Entry key="ZoomPanBin">
              <ZoomPanBin id="1009"  >
               <ZoomPanKeyframes>
                <ZoomPanKeyframe id="1010" timeRangeEnd="-9999999/1" timeRangeDuration="0/1" interpolaterName=""  />
               </ZoomPanKeyframes>
              </ZoomPanBin>
             </Entry>
             <Entry key="CursorEffectBin">
              <CursorEffectBin id="1011"  >
               <CursorEffectKeyframes>
               </CursorEffectKeyframes>
              </CursorEffectBin>
             </Entry>
            </ExtraData>
           </ScreenIMFile>
           <ScreenVMFile id="1012" start="4744" duration="304" scalar="1/1" mediaStart="4624/1" mediaDuration="304/1" trackNumber="0" src="4" >
            <Transformer>
             <VectorParam id="1013"  name="translation">
              <InterpolatingParam id="1014" interp="linr"  time="-9999999/1" value="0" leadInLength="0/1"  />
              <InterpolatingParam id="1015" interp="linr"  time="-9999999/1" value="0" leadInLength="0/1"  />
              <InterpolatingParam id="1016" interp="linr"  time="-9999999/1" value="0" leadInLength="0/1"  />
             </VectorParam>
             <VectorParam id="1017"  name="rotation">
              <InterpolatingParam id="1018" interp="linr"  time="-9999999/1" value="0" leadInLength="0/1"  />
              <InterpolatingParam id="1019" interp="linr"  time="-9999999/1" value="0" leadInLength="0/1"  />
              <InterpolatingParam id="1020" interp="linr"  time="-9999999/1" value="0" leadInLength="0/1"  />
             </VectorParam>
             <VectorParam id="1021"  name="shear">
              <InterpolatingParam id="1022" interp="linr"  time="-9999999/1" value="0" leadInLength="0/1"  />
              <InterpolatingParam id="1023" interp="linr"  time="-9999999/1" value="0" leadInLength="0/1"  />
              <InterpolatingParam id="1024" interp="linr"  time="-9999999/1" value="0" leadInLength="0/1"  />
             </VectorParam>
             <VectorParam id="1025"  name="scale">
              <InterpolatingParam id="1026" interp="linr"  time="-9999999/1" value="1" leadInLength="0/1"  />
              <InterpolatingParam id="1027" interp="linr"  time="-9999999/1" value="1" leadInLength="0/1"  />
              <InterpolatingParam id="1028" interp="linr"  time="-9999999/1" value="1" leadInLength="0/1"  />
             </VectorParam>
             <VectorParam id="1029"  name="anchor">
              <InterpolatingParam id="1030" interp="linr"  time="0/1" value="0" leadInLength="0/1"  />
              <InterpolatingParam id="1031" interp="linr"  time="0/1" value="0" leadInLength="0/1"  />
              <InterpolatingParam id="1032" interp="linr"  time="0/1" value="0" leadInLength="0/1"  />
             </VectorParam>
            </Transformer>
            <Parameters>
             <VectorParam id="1033"  name="sourceCrop">
              <InterpolatingParam id="1034" interp="linr"  time="0/1" value="0" leadInLength="0/1"  />
              <InterpolatingParam id="1035" interp="linr"  time="0/1" value="0" leadInLength="0/1"  />
              <InterpolatingParam id="1036" interp="linr"  time="0/1" value="0" leadInLength="0/1"  />
              <InterpolatingParam id="1037" interp="linr"  time="0/1" value="0" leadInLength="0/1"  />
             </VectorParam>
             <VectorParam id="1038"  name="geometryCrop">
              <InterpolatingParam id="1039" interp="linr"  time="-9999999/1" value="0" leadInLength="0/1"  />
              <InterpolatingParam id="1040" interp="linr"  time="-9999999/1" value="0" leadInLength="0/1"  />
              <InterpolatingParam id="1041" interp="linr"  time="-9999999/1" value="0" leadInLength="0/1"  />
              <InterpolatingParam id="1042" interp="linr"  time="-9999999/1" value="0" leadInLength="0/1"  />
             </VectorParam>
             <InterpolatingParam id="1043" interp="linr"  time="-9999999/1" value="1" leadInLength="0/1"  name="opacity"/>
             <InterpolatingParam id="1044" interp="linr"  time="0/1" value="0" leadInLength="0/1"  name="cursorOpacity"/>
             <InterpolatingParam id="1045" interp="linr"  time="0/1" value="0" leadInLength="0/1"  name="cursorScale"/>
            </Parameters>
            <Attributes>
             <Attribute id="1046" value="" name="ident"/>
            </Attributes>
            <MetaData>
             <entry key="AutoAppliedSmartFocus" val="False"/>
             <entry key="WinSubProjectDisplayName" val=""/>
            </MetaData>
            <ExtraData>
             <Entry key="ZoomPanBin">
              <ZoomPanBin id="1047"  >
               <ZoomPanKeyframes>
                <ZoomPanKeyframe id="1048" timeRangeEnd="-9999999/1" timeRangeDuration="0/1" interpolaterName=""  />
               </ZoomPanKeyframes>
              </ZoomPanBin>
             </Entry>
             <Entry key="CursorEffectBin">
              <CursorEffectBin id="1049"  >
               <CursorEffectKeyframes>
               </CursorEffectKeyframes>
              </CursorEffectBin>
             </Entry>
            </ExtraData>
           </ScreenVMFile>
          </Medias>
         </GenericTrack>
        </StitchedMedia>
        <StitchedMedia id="1050" start="2459" duration="73" scalar="60095/176433" mediaStart="2988416/1717" mediaDuration="12879609/60095" minMediaStart="0/1" >
         <Transformer>
          <VectorParam id="1051"  name="translation">
           <InterpolatingParam id="1052" interp="linr"  time="-9999999/1" value="0" leadInLength="0/1"  />
           <InterpolatingParam id="1053" interp="linr"  time="-9999999/1" value="0" leadInLength="0/1"  />
           <InterpolatingParam id="1054" interp="linr"  time="-9999999/1" value="0" leadInLength="0/1"  />
          </VectorParam>
          <VectorParam id="1055"  name="rotation">
           <InterpolatingParam id="1056" interp="linr"  time="-9999999/1" value="0" leadInLength="0/1"  />
           <InterpolatingParam id="1057" interp="linr"  time="-9999999/1" value="0" leadInLength="0/1"  />
           <InterpolatingParam id="1058" interp="linr"  time="-9999999/1" value="0" leadInLength="0/1"  />
          </VectorParam>
          <VectorParam id="1059"  name="shear">
           <InterpolatingParam id="1060" interp="linr"  time="-9999999/1" value="0" leadInLength="0/1"  />
           <InterpolatingParam id="1061" interp="linr"  time="-9999999/1" value="0" leadInLength="0/1"  />
           <InterpolatingParam id="1062" interp="linr"  time="-9999999/1" value="0" leadInLength="0/1"  />
          </VectorParam>
          <VectorParam id="1063"  name="scale">
           <InterpolatingParam id="1064" interp="linr"  time="-9999999/1" value="1" leadInLength="0/1"  />
           <InterpolatingParam id="1065" interp="linr"  time="-9999999/1" value="1" leadInLength="0/1"  />
           <InterpolatingParam id="1066" interp="linr"  time="-9999999/1" value="1" leadInLength="0/1"  />
          </VectorParam>
          <VectorParam id="1067"  name="anchor">
           <InterpolatingParam id="1068" interp="linr"  >
            <Keyframes>
            <Keyframe id="1069"  time="0/1" value="0" leadInLength="0/1"  />
            <Keyframe id="1070"  time="1858/1" value="0" leadInLength="0/1"  />
            </Keyframes>
           </InterpolatingParam>
           <InterpolatingParam id="1071" interp="linr"  >
            <Keyframes>
            <Keyframe id="1072"  time="0/1" value="0" leadInLength="0/1"  />
            <Keyframe id="1073"  time="1858/1" value="0" leadInLength="0/1"  />
            </Keyframes>
           </InterpolatingParam>
           <InterpolatingParam id="1074" interp="linr"  >
            <Keyframes>
            <Keyframe id="1075"  time="0/1" value="0" leadInLength="0/1"  />
            <Keyframe id="1076"  time="1858/1" value="0" leadInLength="0/1"  />
            </Keyframes>
           </InterpolatingParam>
          </VectorParam>
         </Transformer>
         <Parameters>
          <VectorParam id="1077"  name="sourceCrop">
           <InterpolatingParam id="1078" interp="linr"  >
            <Keyframes>
            <Keyframe id="1079"  time="0/1" value="0" leadInLength="0/1"  />
            <Keyframe id="1080"  time="1858/1" value="0" leadInLength="0/1"  />
            </Keyframes>
           </InterpolatingParam>
           <InterpolatingParam id="1081" interp="linr"  >
            <Keyframes>
            <Keyframe id="1082"  time="0/1" value="0" leadInLength="0/1"  />
            <Keyframe id="1083"  time="1858/1" value="0" leadInLength="0/1"  />
            </Keyframes>
           </InterpolatingParam>
           <InterpolatingParam id="1084" interp="linr"  >
            <Keyframes>
            <Keyframe id="1085"  time="0/1" value="0" leadInLength="0/1"  />
            <Keyframe id="1086"  time="1858/1" value="0" leadInLength="0/1"  />
            </Keyframes>
           </InterpolatingParam>
           <InterpolatingParam id="1087" interp="linr"  >
            <Keyframes>
            <Keyframe id="1088"  time="0/1" value="0" leadInLength="0/1"  />
            <Keyframe id="1089"  time="1858/1" value="0" leadInLength="0/1"  />
            </Keyframes>
           </InterpolatingParam>
          </VectorParam>
          <VectorParam id="1090"  name="geometryCrop">
           <InterpolatingParam id="1091" interp="linr"  time="-9999999/1" value="0" leadInLength="0/1"  />
           <InterpolatingParam id="1092" interp="linr"  time="-9999999/1" value="0" leadInLength="0/1"  />
           <InterpolatingParam id="1093" interp="linr"  time="-9999999/1" value="0" leadInLength="0/1"  />
           <InterpolatingParam id="1094" interp="linr"  time="-9999999/1" value="0" leadInLength="0/1"  />
          </VectorParam>
          <InterpolatingParam id="1095" interp="linr"  time="-9999999/1" value="1" leadInLength="0/1"  name="opacity"/>
          <InterpolatingParam id="1096" interp="linr"  time="0/1" value="1" leadInLength="0/1"  name="cursorOpacity"/>
          <InterpolatingParam id="1097" interp="linr"  time="0/1" value="1" leadInLength="0/1"  name="cursorScale"/>
          <Parameter id="1098"  name="captions"/>
         </Parameters>
         <Effects>
          <GenericEffect id="1099" name = "CursorBaseEffectName" >
           <Parameters>
           <InterpolatingParam id="1100" interp="linr"  time="-9999999/1" value="1" leadInLength="0/1"   name="cursorSize"/>
           <InterpolatingParam id="1101" interp="linr"  time="-9999999/1" value="0" leadInLength="0/1"   name="highlightBlurRadius"/>
           <InterpolatingParam id="1102" interp="linr"  time="-9999999/1" value="0" leadInLength="0/1"   name="highlightColorBlue"/>
           <InterpolatingParam id="1103" interp="linr"  time="-9999999/1" value="255" leadInLength="0/1"   name="highlightColorGreen"/>
           <InterpolatingParam id="1104" interp="linr"  time="-9999999/1" value="255" leadInLength="0/1"   name="highlightColorRed"/>
           <InterpolatingParam id="1105" interp="linr"  time="-9999999/1" value="5" leadInLength="0/1"   name="highlightFeatherSize"/>
           <InterpolatingParam id="1106" interp="linr"  time="-9999999/1" value="2" leadInLength="0/1"   name="highlightMagnification"/>
           <InterpolatingParam id="1107" interp="linr"  time="-9999999/1" value="1" leadInLength="0/1"   name="highlightOpacity"/>
           <InterpolatingParam id="1108" interp="linr"  time="-9999999/1" value="45" leadInLength="0/1"   name="highlightSize"/>
           <Parameter id="1109"   name="highlightType">
            <Keyframes>
            <Keyframe id="1110"  time="-9999999/1" value="0" leadInLength="0/1"  />
            </Keyframes>
           </Parameter>
           <InterpolatingParam id="1111" interp="linr"  time="-9999999/1" value="0" leadInLength="0/1"   name="leftClickColorBlue"/>
           <InterpolatingParam id="1112" interp="linr"  time="-9999999/1" value="0" leadInLength="0/1"   name="leftClickColorGreen"/>
           <InterpolatingParam id="1113" interp="linr"  time="-9999999/1" value="255" leadInLength="0/1"   name="leftClickColorRed"/>
           <InterpolatingParam id="1114" interp="linr"  time="-9999999/1" value="0.80000000000000004" leadInLength="0/1"   name="leftClickDuration"/>
           <InterpolatingParam id="1115" interp="linr"  time="-9999999/1" value="20" leadInLength="0/1"   name="leftClickSize"/>
           <Parameter id="1116"   name="leftClickSoundFilename">
            <Keyframes>
            <Keyframe id="1117"  time="-9999999/1" value="" leadInLength="0/1"  />
            </Keyframes>
           </Parameter>
           <InterpolatingParam id="1118" interp="linr"  time="-9999999/1" value="1" leadInLength="0/1"   name="leftClickSoundVolume"/>
           <Parameter id="1119"   name="leftClickType">
            <Keyframes>
            <Keyframe id="1120"  time="-9999999/1" value="0" leadInLength="0/1"  />
            </Keyframes>
           </Parameter>
           <InterpolatingParam id="1121" interp="linr"  time="-9999999/1" value="1" leadInLength="0/1"   name="opacity"/>
           <InterpolatingParam id="1122" interp="linr"  time="-9999999/1" value="255" leadInLength="0/1"   name="rightClickColorBlue"/>
           <InterpolatingParam id="1123" interp="linr"  time="-9999999/1" value="0" leadInLength="0/1"   name="rightClickColorGreen"/>
           <InterpolatingParam id="1124" interp="linr"  time="-9999999/1" value="0" leadInLength="0/1"   name="rightClickColorRed"/>
           <InterpolatingParam id="1125" interp="linr"  time="-9999999/1" value="0.80000000000000004" leadInLength="0/1"   name="rightClickDuration"/>
           <InterpolatingParam id="1126" interp="linr"  time="-9999999/1" value="20" leadInLength="0/1"   name="rightClickSize"/>
           <Parameter id="1127"   name="rightClickSoundFilename">
            <Keyframes>
            <Keyframe id="1128"  time="-9999999/1" value="" leadInLength="0/1"  />
            </Keyframes>
           </Parameter>
           <InterpolatingParam id="1129" interp="linr"  time="-9999999/1" value="1" leadInLength="0/1"   name="rightClickSoundVolume"/>
           <Parameter id="1130"   name="rightClickType">
            <Keyframes>
            <Keyframe id="1131"  time="-9999999/1" value="0" leadInLength="0/1"  />
            </Keyframes>
           </Parameter>
           </Parameters>
          </GenericEffect>
         </Effects>
         <Attributes>
          <Attribute id="1132" value="" name="ident"/>
         </Attributes>
         <MetaData>
          <entry key="AutoAppliedSmartFocus" val="False"/>
          <entry key="WinSubProjectDisplayName" val=""/>
         </MetaData>
         <ExtraData>
          <Entry key="ZoomPanBin">
           <ZoomPanBin id="1133"  >
            <ZoomPanKeyframes>
             <ZoomPanKeyframe id="1134" timeRangeEnd="-9999999/1" timeRangeDuration="0/1" interpolaterName=""  />
            </ZoomPanKeyframes>
           </ZoomPanBin>
          </Entry>
          <Entry key="CursorEffectBin">
           <CursorEffectBin id="1135"  >
            <CursorEffectKeyframes>
             <CursorEffectKeyframe id="1136" timeRangeEnd="-9999999/1" timeRangeDuration="0/1" interpolaterName=""  />
            </CursorEffectKeyframes>
           </CursorEffectBin>
          </Entry>
         </ExtraData>
         <GenericTrack id="1137"  >
          <Attributes>
           <Attribute id="1138" value="" name="ident"/>
          </Attributes>
          <MetaData>
           <entry key="IsLocked" val="False"/>
           <entry key="WinTrackHeight" val="0"/>
          </MetaData>
          <Medias>
           <ScreenVMFile id="1139" start="0" duration="1858" scalar="1/1" mediaStart="0/1" mediaDuration="1858/1" trackNumber="0" src="4" >
            <Transformer>
             <VectorParam id="1140"  name="translation">
              <InterpolatingParam id="1141" interp="linr"  time="-9999999/1" value="0" leadInLength="0/1"  />
              <InterpolatingParam id="1142" interp="linr"  time="-9999999/1" value="0" leadInLength="0/1"  />
              <InterpolatingParam id="1143" interp="linr"  time="-9999999/1" value="0" leadInLength="0/1"  />
             </VectorParam>
             <VectorParam id="1144"  name="rotation">
              <InterpolatingParam id="1145" interp="linr"  time="-9999999/1" value="0" leadInLength="0/1"  />
              <InterpolatingParam id="1146" interp="linr"  time="-9999999/1" value="0" leadInLength="0/1"  />
              <InterpolatingParam id="1147" interp="linr"  time="-9999999/1" value="0" leadInLength="0/1"  />
             </VectorParam>
             <VectorParam id="1148"  name="shear">
              <InterpolatingParam id="1149" interp="linr"  time="-9999999/1" value="0" leadInLength="0/1"  />
              <InterpolatingParam id="1150" interp="linr"  time="-9999999/1" value="0" leadInLength="0/1"  />
              <InterpolatingParam id="1151" interp="linr"  time="-9999999/1" value="0" leadInLength="0/1"  />
             </VectorParam>
             <VectorParam id="1152"  name="scale">
              <InterpolatingParam id="1153" interp="linr"  time="-9999999/1" value="1" leadInLength="0/1"  />
              <InterpolatingParam id="1154" interp="linr"  time="-9999999/1" value="1" leadInLength="0/1"  />
              <InterpolatingParam id="1155" interp="linr"  time="-9999999/1" value="1" leadInLength="0/1"  />
             </VectorParam>
             <VectorParam id="1156"  name="anchor">
              <InterpolatingParam id="1157" interp="linr"  time="0/1" value="0" leadInLength="0/1"  />
              <InterpolatingParam id="1158" interp="linr"  time="0/1" value="0" leadInLength="0/1"  />
              <InterpolatingParam id="1159" interp="linr"  time="0/1" value="0" leadInLength="0/1"  />
             </VectorParam>
            </Transformer>
            <Parameters>
             <VectorParam id="1160"  name="sourceCrop">
              <InterpolatingParam id="1161" interp="linr"  time="0/1" value="0" leadInLength="0/1"  />
              <InterpolatingParam id="1162" interp="linr"  time="0/1" value="0" leadInLength="0/1"  />
              <InterpolatingParam id="1163" interp="linr"  time="0/1" value="0" leadInLength="0/1"  />
              <InterpolatingParam id="1164" interp="linr"  time="0/1" value="0" leadInLength="0/1"  />
             </VectorParam>
             <VectorParam id="1165"  name="geometryCrop">
              <InterpolatingParam id="1166" interp="linr"  time="-9999999/1" value="0" leadInLength="0/1"  />
              <InterpolatingParam id="1167" interp="linr"  time="-9999999/1" value="0" leadInLength="0/1"  />
              <InterpolatingParam id="1168" interp="linr"  time="-9999999/1" value="0" leadInLength="0/1"  />
              <InterpolatingParam id="1169" interp="linr"  time="-9999999/1" value="0" leadInLength="0/1"  />
             </VectorParam>
             <InterpolatingParam id="1170" interp="linr"  time="-9999999/1" value="1" leadInLength="0/1"  name="opacity"/>
             <InterpolatingParam id="1171" interp="linr"  time="0/1" value="0" leadInLength="0/1"  name="cursorOpacity"/>
             <InterpolatingParam id="1172" interp="linr"  time="0/1" value="0" leadInLength="0/1"  name="cursorScale"/>
            </Parameters>
            <Attributes>
             <Attribute id="1173" value="" name="ident"/>
            </Attributes>
            <MetaData>
             <entry key="AutoAppliedSmartFocus" val="False"/>
             <entry key="WinSubProjectDisplayName" val=""/>
            </MetaData>
            <ExtraData>
             <Entry key="ZoomPanBin">
              <ZoomPanBin id="1174"  >
               <ZoomPanKeyframes>
                <ZoomPanKeyframe id="1175" timeRangeEnd="-9999999/1" timeRangeDuration="0/1" interpolaterName=""  />
               </ZoomPanKeyframes>
              </ZoomPanBin>
             </Entry>
             <Entry key="CursorEffectBin">
              <CursorEffectBin id="1176"  >
               <CursorEffectKeyframes>
               </CursorEffectKeyframes>
              </CursorEffectBin>
             </Entry>
            </ExtraData>
           </ScreenVMFile>
           <ScreenIMFile id="1177" start="1858" duration="316888" scalar="1/1" mediaStart="1855/1" mediaDuration="1/1" trackNumber="0" src="4" trimStartSum="0/1" >
            <Transformer>
             <VectorParam id="1178"  name="translation">
              <InterpolatingParam id="1179" interp="linr"  time="-9999999/1" value="0" leadInLength="0/1"  />
              <InterpolatingParam id="1180" interp="linr"  time="-9999999/1" value="0" leadInLength="0/1"  />
              <InterpolatingParam id="1181" interp="linr"  time="-9999999/1" value="0" leadInLength="0/1"  />
             </VectorParam>
             <VectorParam id="1182"  name="rotation">
              <InterpolatingParam id="1183" interp="linr"  time="-9999999/1" value="0" leadInLength="0/1"  />
              <InterpolatingParam id="1184" interp="linr"  time="-9999999/1" value="0" leadInLength="0/1"  />
              <InterpolatingParam id="1185" interp="linr"  time="-9999999/1" value="0" leadInLength="0/1"  />
             </VectorParam>
             <VectorParam id="1186"  name="shear">
              <InterpolatingParam id="1187" interp="linr"  time="-9999999/1" value="0" leadInLength="0/1"  />
              <InterpolatingParam id="1188" interp="linr"  time="-9999999/1" value="0" leadInLength="0/1"  />
              <InterpolatingParam id="1189" interp="linr"  time="-9999999/1" value="0" leadInLength="0/1"  />
             </VectorParam>
             <VectorParam id="1190"  name="scale">
              <InterpolatingParam id="1191" interp="linr"  time="-9999999/1" value="1" leadInLength="0/1"  />
              <InterpolatingParam id="1192" interp="linr"  time="-9999999/1" value="1" leadInLength="0/1"  />
              <InterpolatingParam id="1193" interp="linr"  time="-9999999/1" value="1" leadInLength="0/1"  />
             </VectorParam>
             <VectorParam id="1194"  name="anchor">
              <InterpolatingParam id="1195" interp="linr"  time="0/1" value="0" leadInLength="0/1"  />
              <InterpolatingParam id="1196" interp="linr"  time="0/1" value="0" leadInLength="0/1"  />
              <InterpolatingParam id="1197" interp="linr"  time="0/1" value="0" leadInLength="0/1"  />
             </VectorParam>
            </Transformer>
            <Parameters>
             <VectorParam id="1198"  name="sourceCrop">
              <InterpolatingParam id="1199" interp="linr"  time="0/1" value="0" leadInLength="0/1"  />
              <InterpolatingParam id="1200" interp="linr"  time="0/1" value="0" leadInLength="0/1"  />
              <InterpolatingParam id="1201" interp="linr"  time="0/1" value="0" leadInLength="0/1"  />
              <InterpolatingParam id="1202" interp="linr"  time="0/1" value="0" leadInLength="0/1"  />
             </VectorParam>
             <VectorParam id="1203"  name="geometryCrop">
              <InterpolatingParam id="1204" interp="linr"  time="-9999999/1" value="0" leadInLength="0/1"  />
              <InterpolatingParam id="1205" interp="linr"  time="-9999999/1" value="0" leadInLength="0/1"  />
              <InterpolatingParam id="1206" interp="linr"  time="-9999999/1" value="0" leadInLength="0/1"  />
              <InterpolatingParam id="1207" interp="linr"  time="-9999999/1" value="0" leadInLength="0/1"  />
             </VectorParam>
             <InterpolatingParam id="1208" interp="linr"  time="-9999999/1" value="1" leadInLength="0/1"  name="opacity"/>
             <InterpolatingParam id="1209" interp="linr"  time="0/1" value="0" leadInLength="0/1"  name="cursorOpacity"/>
             <InterpolatingParam id="1210" interp="linr"  time="0/1" value="0" leadInLength="0/1"  name="recordedCursorOpacity"/>
             <InterpolatingParam id="1211" interp="linr"  time="0/1" value="0" leadInLength="0/1"  name="cursorScale"/>
            </Parameters>
            <Attributes>
             <Attribute id="1212" value="" name="ident"/>
            </Attributes>
            <MetaData>
             <entry key="AutoAppliedSmartFocus" val="False"/>
             <entry key="WinSubProjectDisplayName" val=""/>
            </MetaData>
            <ExtraData>
             <Entry key="ZoomPanBin">
              <ZoomPanBin id="1213"  >
               <ZoomPanKeyframes>
                <ZoomPanKeyframe id="1214" timeRangeEnd="-9999999/1" timeRangeDuration="0/1" interpolaterName=""  />
               </ZoomPanKeyframes>
              </ZoomPanBin>
             </Entry>
             <Entry key="CursorEffectBin">
              <CursorEffectBin id="1215"  >
               <CursorEffectKeyframes>
               </CursorEffectKeyframes>
              </CursorEffectBin>
             </Entry>
            </ExtraData>
           </ScreenIMFile>
          </Medias>
         </GenericTrack>
        </StitchedMedia>
        <StitchedMedia id="1216" start="2532" duration="1085" scalar="1717/5048" mediaStart="3190336/1717" mediaDuration="5477080/1717" minMediaStart="0/1" >
         <Transformer>
          <VectorParam id="1217"  name="translation">
           <InterpolatingParam id="1218" interp="linr"  time="-9999999/1" value="0" leadInLength="0/1"  />
           <InterpolatingParam id="1219" interp="linr"  time="-9999999/1" value="0" leadInLength="0/1"  />
           <InterpolatingParam id="1220" interp="linr"  time="-9999999/1" value="0" leadInLength="0/1"  />
          </VectorParam>
          <VectorParam id="1221"  name="rotation">
           <InterpolatingParam id="1222" interp="linr"  time="-9999999/1" value="0" leadInLength="0/1"  />
           <InterpolatingParam id="1223" interp="linr"  time="-9999999/1" value="0" leadInLength="0/1"  />
           <InterpolatingParam id="1224" interp="linr"  time="-9999999/1" value="0" leadInLength="0/1"  />
          </VectorParam>
          <VectorParam id="1225"  name="shear">
           <InterpolatingParam id="1226" interp="linr"  time="-9999999/1" value="0" leadInLength="0/1"  />
           <InterpolatingParam id="1227" interp="linr"  time="-9999999/1" value="0" leadInLength="0/1"  />
           <InterpolatingParam id="1228" interp="linr"  time="-9999999/1" value="0" leadInLength="0/1"  />
          </VectorParam>
          <VectorParam id="1229"  name="scale">
           <InterpolatingParam id="1230" interp="linr"  time="-9999999/1" value="1" leadInLength="0/1"  />
           <InterpolatingParam id="1231" interp="linr"  time="-9999999/1" value="1" leadInLength="0/1"  />
           <InterpolatingParam id="1232" interp="linr"  time="-9999999/1" value="1" leadInLength="0/1"  />
          </VectorParam>
          <VectorParam id="1233"  name="anchor">
           <InterpolatingParam id="1234" interp="linr"  >
            <Keyframes>
            <Keyframe id="1235"  time="0/1" value="0" leadInLength="0/1"  />
            <Keyframe id="1236"  time="4624/1" value="0" leadInLength="0/1"  />
            </Keyframes>
           </InterpolatingParam>
           <InterpolatingParam id="1237" interp="linr"  >
            <Keyframes>
            <Keyframe id="1238"  time="0/1" value="0" leadInLength="0/1"  />
            <Keyframe id="1239"  time="4624/1" value="0" leadInLength="0/1"  />
            </Keyframes>
           </InterpolatingParam>
           <InterpolatingParam id="1240" interp="linr"  >
            <Keyframes>
            <Keyframe id="1241"  time="0/1" value="0" leadInLength="0/1"  />
            <Keyframe id="1242"  time="4624/1" value="0" leadInLength="0/1"  />
            </Keyframes>
           </InterpolatingParam>
          </VectorParam>
         </Transformer>
         <Parameters>
          <VectorParam id="1243"  name="sourceCrop">
           <InterpolatingParam id="1244" interp="linr"  >
            <Keyframes>
            <Keyframe id="1245"  time="0/1" value="0" leadInLength="0/1"  />
            <Keyframe id="1246"  time="4624/1" value="0" leadInLength="0/1"  />
            </Keyframes>
           </InterpolatingParam>
           <InterpolatingParam id="1247" interp="linr"  >
            <Keyframes>
            <Keyframe id="1248"  time="0/1" value="0" leadInLength="0/1"  />
            <Keyframe id="1249"  time="4624/1" value="0" leadInLength="0/1"  />
            </Keyframes>
           </InterpolatingParam>
           <InterpolatingParam id="1250" interp="linr"  >
            <Keyframes>
            <Keyframe id="1251"  time="0/1" value="0" leadInLength="0/1"  />
            <Keyframe id="1252"  time="4624/1" value="0" leadInLength="0/1"  />
            </Keyframes>
           </InterpolatingParam>
           <InterpolatingParam id="1253" interp="linr"  >
            <Keyframes>
            <Keyframe id="1254"  time="0/1" value="0" leadInLength="0/1"  />
            <Keyframe id="1255"  time="4624/1" value="0" leadInLength="0/1"  />
            </Keyframes>
           </InterpolatingParam>
          </VectorParam>
          <VectorParam id="1256"  name="geometryCrop">
           <InterpolatingParam id="1257" interp="linr"  time="-9999999/1" value="0" leadInLength="0/1"  />
           <InterpolatingParam id="1258" interp="linr"  time="-9999999/1" value="0" leadInLength="0/1"  />
           <InterpolatingParam id="1259" interp="linr"  time="-9999999/1" value="0" leadInLength="0/1"  />
           <InterpolatingParam id="1260" interp="linr"  time="-9999999/1" value="0" leadInLength="0/1"  />
          </VectorParam>
          <InterpolatingParam id="1261" interp="linr"  time="-9999999/1" value="1" leadInLength="0/1"  name="opacity"/>
          <InterpolatingParam id="1262" interp="linr"  time="0/1" value="1" leadInLength="0/1"  name="cursorOpacity"/>
          <InterpolatingParam id="1263" interp="linr"  time="0/1" value="1" leadInLength="0/1"  name="cursorScale"/>
          <Parameter id="1264"  name="captions"/>
         </Parameters>
         <Effects>
          <GenericEffect id="1265" name = "CursorBaseEffectName" >
           <Parameters>
           <InterpolatingParam id="1266" interp="linr"  time="-9999999/1" value="1" leadInLength="0/1"   name="cursorSize"/>
           <InterpolatingParam id="1267" interp="linr"  time="-9999999/1" value="0" leadInLength="0/1"   name="highlightBlurRadius"/>
           <InterpolatingParam id="1268" interp="linr"  time="-9999999/1" value="0" leadInLength="0/1"   name="highlightColorBlue"/>
           <InterpolatingParam id="1269" interp="linr"  time="-9999999/1" value="255" leadInLength="0/1"   name="highlightColorGreen"/>
           <InterpolatingParam id="1270" interp="linr"  time="-9999999/1" value="255" leadInLength="0/1"   name="highlightColorRed"/>
           <InterpolatingParam id="1271" interp="linr"  time="-9999999/1" value="5" leadInLength="0/1"   name="highlightFeatherSize"/>
           <InterpolatingParam id="1272" interp="linr"  time="-9999999/1" value="2" leadInLength="0/1"   name="highlightMagnification"/>
           <InterpolatingParam id="1273" interp="linr"  time="-9999999/1" value="1" leadInLength="0/1"   name="highlightOpacity"/>
           <InterpolatingParam id="1274" interp="linr"  time="-9999999/1" value="45" leadInLength="0/1"   name="highlightSize"/>
           <Parameter id="1275"   name="highlightType">
            <Keyframes>
            <Keyframe id="1276"  time="-9999999/1" value="0" leadInLength="0/1"  />
            </Keyframes>
           </Parameter>
           <InterpolatingParam id="1277" interp="linr"  time="-9999999/1" value="0" leadInLength="0/1"   name="leftClickColorBlue"/>
           <InterpolatingParam id="1278" interp="linr"  time="-9999999/1" value="0" leadInLength="0/1"   name="leftClickColorGreen"/>
           <InterpolatingParam id="1279" interp="linr"  time="-9999999/1" value="255" leadInLength="0/1"   name="leftClickColorRed"/>
           <InterpolatingParam id="1280" interp="linr"  time="-9999999/1" value="0.80000000000000004" leadInLength="0/1"   name="leftClickDuration"/>
           <InterpolatingParam id="1281" interp="linr"  time="-9999999/1" value="20" leadInLength="0/1"   name="leftClickSize"/>
           <Parameter id="1282"   name="leftClickSoundFilename">
            <Keyframes>
            <Keyframe id="1283"  time="-9999999/1" value="" leadInLength="0/1"  />
            </Keyframes>
           </Parameter>
           <InterpolatingParam id="1284" interp="linr"  time="-9999999/1" value="1" leadInLength="0/1"   name="leftClickSoundVolume"/>
           <Parameter id="1285"   name="leftClickType">
            <Keyframes>
            <Keyframe id="1286"  time="-9999999/1" value="0" leadInLength="0/1"  />
            </Keyframes>
           </Parameter>
           <InterpolatingParam id="1287" interp="linr"  time="-9999999/1" value="1" leadInLength="0/1"   name="opacity"/>
           <InterpolatingParam id="1288" interp="linr"  time="-9999999/1" value="255" leadInLength="0/1"   name="rightClickColorBlue"/>
           <InterpolatingParam id="1289" interp="linr"  time="-9999999/1" value="0" leadInLength="0/1"   name="rightClickColorGreen"/>
           <InterpolatingParam id="1290" interp="linr"  time="-9999999/1" value="0" leadInLength="0/1"   name="rightClickColorRed"/>
           <InterpolatingParam id="1291" interp="linr"  time="-9999999/1" value="0.80000000000000004" leadInLength="0/1"   name="rightClickDuration"/>
           <InterpolatingParam id="1292" interp="linr"  time="-9999999/1" value="20" leadInLength="0/1"   name="rightClickSize"/>
           <Parameter id="1293"   name="rightClickSoundFilename">
            <Keyframes>
            <Keyframe id="1294"  time="-9999999/1" value="" leadInLength="0/1"  />
            </Keyframes>
           </Parameter>
           <InterpolatingParam id="1295" interp="linr"  time="-9999999/1" value="1" leadInLength="0/1"   name="rightClickSoundVolume"/>
           <Parameter id="1296"   name="rightClickType">
            <Keyframes>
            <Keyframe id="1297"  time="-9999999/1" value="0" leadInLength="0/1"  />
            </Keyframes>
           </Parameter>
           </Parameters>
          </GenericEffect>
         </Effects>
         <Attributes>
          <Attribute id="1298" value="" name="ident"/>
         </Attributes>
         <MetaData>
          <entry key="AutoAppliedSmartFocus" val="False"/>
          <entry key="WinSubProjectDisplayName" val=""/>
         </MetaData>
         <ExtraData>
          <Entry key="ZoomPanBin">
           <ZoomPanBin id="1299"  >
            <ZoomPanKeyframes>
             <ZoomPanKeyframe id="1300" timeRangeEnd="-9999999/1" timeRangeDuration="0/1" interpolaterName=""  />
            </ZoomPanKeyframes>
           </ZoomPanBin>
          </Entry>
          <Entry key="CursorEffectBin">
           <CursorEffectBin id="1301"  >
            <CursorEffectKeyframes>
             <CursorEffectKeyframe id="1302" timeRangeEnd="-9999999/1" timeRangeDuration="0/1" interpolaterName=""  />
            </CursorEffectKeyframes>
           </CursorEffectBin>
          </Entry>
         </ExtraData>
         <GenericTrack id="1303"  >
          <Attributes>
           <Attribute id="1304" value="" name="ident"/>
          </Attributes>
          <MetaData>
           <entry key="IsLocked" val="False"/>
           <entry key="WinTrackHeight" val="0"/>
          </MetaData>
          <Medias>
           <ScreenVMFile id="1305" start="0" duration="4624" scalar="1/1" mediaStart="0/1" mediaDuration="4624/1" trackNumber="0" src="4" >
            <Transformer>
             <VectorParam id="1306"  name="translation">
              <InterpolatingParam id="1307" interp="linr"  time="-9999999/1" value="0" leadInLength="0/1"  />
              <InterpolatingParam id="1308" interp="linr"  time="-9999999/1" value="0" leadInLength="0/1"  />
              <InterpolatingParam id="1309" interp="linr"  time="-9999999/1" value="0" leadInLength="0/1"  />
             </VectorParam>
             <VectorParam id="1310"  name="rotation">
              <InterpolatingParam id="1311" interp="linr"  time="-9999999/1" value="0" leadInLength="0/1"  />
              <InterpolatingParam id="1312" interp="linr"  time="-9999999/1" value="0" leadInLength="0/1"  />
              <InterpolatingParam id="1313" interp="linr"  time="-9999999/1" value="0" leadInLength="0/1"  />
             </VectorParam>
             <VectorParam id="1314"  name="shear">
              <InterpolatingParam id="1315" interp="linr"  time="-9999999/1" value="0" leadInLength="0/1"  />
              <InterpolatingParam id="1316" interp="linr"  time="-9999999/1" value="0" leadInLength="0/1"  />
              <InterpolatingParam id="1317" interp="linr"  time="-9999999/1" value="0" leadInLength="0/1"  />
             </VectorParam>
             <VectorParam id="1318"  name="scale">
              <InterpolatingParam id="1319" interp="linr"  time="-9999999/1" value="1" leadInLength="0/1"  />
              <InterpolatingParam id="1320" interp="linr"  time="-9999999/1" value="1" leadInLength="0/1"  />
              <InterpolatingParam id="1321" interp="linr"  time="-9999999/1" value="1" leadInLength="0/1"  />
             </VectorParam>
             <VectorParam id="1322"  name="anchor">
              <InterpolatingParam id="1323" interp="linr"  time="0/1" value="0" leadInLength="0/1"  />
              <InterpolatingParam id="1324" interp="linr"  time="0/1" value="0" leadInLength="0/1"  />
              <InterpolatingParam id="1325" interp="linr"  time="0/1" value="0" leadInLength="0/1"  />
             </VectorParam>
            </Transformer>
            <Parameters>
             <VectorParam id="1326"  name="sourceCrop">
              <InterpolatingParam id="1327" interp="linr"  time="0/1" value="0" leadInLength="0/1"  />
              <InterpolatingParam id="1328" interp="linr"  time="0/1" value="0" leadInLength="0/1"  />
              <InterpolatingParam id="1329" interp="linr"  time="0/1" value="0" leadInLength="0/1"  />
              <InterpolatingParam id="1330" interp="linr"  time="0/1" value="0" leadInLength="0/1"  />
             </VectorParam>
             <VectorParam id="1331"  name="geometryCrop">
              <InterpolatingParam id="1332" interp="linr"  time="-9999999/1" value="0" leadInLength="0/1"  />
              <InterpolatingParam id="1333" interp="linr"  time="-9999999/1" value="0" leadInLength="0/1"  />
              <InterpolatingParam id="1334" interp="linr"  time="-9999999/1" value="0" leadInLength="0/1"  />
              <InterpolatingParam id="1335" interp="linr"  time="-9999999/1" value="0" leadInLength="0/1"  />
             </VectorParam>
             <InterpolatingParam id="1336" interp="linr"  time="-9999999/1" value="1" leadInLength="0/1"  name="opacity"/>
             <InterpolatingParam id="1337" interp="linr"  time="0/1" value="0" leadInLength="0/1"  name="cursorOpacity"/>
             <InterpolatingParam id="1338" interp="linr"  time="0/1" value="0" leadInLength="0/1"  name="cursorScale"/>
            </Parameters>
            <Attributes>
             <Attribute id="1339" value="" name="ident"/>
            </Attributes>
            <MetaData>
             <entry key="AutoAppliedSmartFocus" val="False"/>
             <entry key="WinSubProjectDisplayName" val=""/>
            </MetaData>
            <ExtraData>
             <Entry key="ZoomPanBin">
              <ZoomPanBin id="1340"  >
               <ZoomPanKeyframes>
                <ZoomPanKeyframe id="1341" timeRangeEnd="-9999999/1" timeRangeDuration="0/1" interpolaterName=""  />
               </ZoomPanKeyframes>
              </ZoomPanBin>
             </Entry>
             <Entry key="CursorEffectBin">
              <CursorEffectBin id="1342"  >
               <CursorEffectKeyframes>
               </CursorEffectKeyframes>
              </CursorEffectBin>
             </Entry>
            </ExtraData>
           </ScreenVMFile>
           <ScreenIMFile id="1343" start="4624" duration="120" scalar="1/1" mediaStart="4624/1" mediaDuration="1/1" trackNumber="0" src="4" trimStartSum="0/1" >
            <Transformer>
             <VectorParam id="1344"  name="translation">
              <InterpolatingParam id="1345" interp="linr"  time="-9999999/1" value="0" leadInLength="0/1"  />
              <InterpolatingParam id="1346" interp="linr"  time="-9999999/1" value="0" leadInLength="0/1"  />
              <InterpolatingParam id="1347" interp="linr"  time="-9999999/1" value="0" leadInLength="0/1"  />
             </VectorParam>
             <VectorParam id="1348"  name="rotation">
              <InterpolatingParam id="1349" interp="linr"  time="-9999999/1" value="0" leadInLength="0/1"  />
              <InterpolatingParam id="1350" interp="linr"  time="-9999999/1" value="0" leadInLength="0/1"  />
              <InterpolatingParam id="1351" interp="linr"  time="-9999999/1" value="0" leadInLength="0/1"  />
             </VectorParam>
             <VectorParam id="1352"  name="shear">
              <InterpolatingParam id="1353" interp="linr"  time="-9999999/1" value="0" leadInLength="0/1"  />
              <InterpolatingParam id="1354" interp="linr"  time="-9999999/1" value="0" leadInLength="0/1"  />
              <InterpolatingParam id="1355" interp="linr"  time="-9999999/1" value="0" leadInLength="0/1"  />
             </VectorParam>
             <VectorParam id="1356"  name="scale">
              <InterpolatingParam id="1357" interp="linr"  time="-9999999/1" value="1" leadInLength="0/1"  />
              <InterpolatingParam id="1358" interp="linr"  time="-9999999/1" value="1" leadInLength="0/1"  />
              <InterpolatingParam id="1359" interp="linr"  time="-9999999/1" value="1" leadInLength="0/1"  />
             </VectorParam>
             <VectorParam id="1360"  name="anchor">
              <InterpolatingParam id="1361" interp="linr"  time="0/1" value="0" leadInLength="0/1"  />
              <InterpolatingParam id="1362" interp="linr"  time="0/1" value="0" leadInLength="0/1"  />
              <InterpolatingParam id="1363" interp="linr"  time="0/1" value="0" leadInLength="0/1"  />
             </VectorParam>
            </Transformer>
            <Parameters>
             <VectorParam id="1364"  name="sourceCrop">
              <InterpolatingParam id="1365" interp="linr"  time="0/1" value="0" leadInLength="0/1"  />
              <InterpolatingParam id="1366" interp="linr"  time="0/1" value="0" leadInLength="0/1"  />
              <InterpolatingParam id="1367" interp="linr"  time="0/1" value="0" leadInLength="0/1"  />
              <InterpolatingParam id="1368" interp="linr"  time="0/1" value="0" leadInLength="0/1"  />
             </VectorParam>
             <VectorParam id="1369"  name="geometryCrop">
              <InterpolatingParam id="1370" interp="linr"  time="-9999999/1" value="0" leadInLength="0/1"  />
              <InterpolatingParam id="1371" interp="linr"  time="-9999999/1" value="0" leadInLength="0/1"  />
              <InterpolatingParam id="1372" interp="linr"  time="-9999999/1" value="0" leadInLength="0/1"  />
              <InterpolatingParam id="1373" interp="linr"  time="-9999999/1" value="0" leadInLength="0/1"  />
             </VectorParam>
             <InterpolatingParam id="1374" interp="linr"  time="-9999999/1" value="1" leadInLength="0/1"  name="opacity"/>
             <InterpolatingParam id="1375" interp="linr"  time="0/1" value="0" leadInLength="0/1"  name="cursorOpacity"/>
             <InterpolatingParam id="1376" interp="linr"  time="0/1" value="0" leadInLength="0/1"  name="recordedCursorOpacity"/>
             <InterpolatingParam id="1377" interp="linr"  time="0/1" value="0" leadInLength="0/1"  name="cursorScale"/>
            </Parameters>
            <Attributes>
             <Attribute id="1378" value="" name="ident"/>
            </Attributes>
            <MetaData>
             <entry key="AutoAppliedSmartFocus" val="False"/>
             <entry key="WinSubProjectDisplayName" val=""/>
            </MetaData>
            <ExtraData>
             <Entry key="ZoomPanBin">
              <ZoomPanBin id="1379"  >
               <ZoomPanKeyframes>
                <ZoomPanKeyframe id="1380" timeRangeEnd="-9999999/1" timeRangeDuration="0/1" interpolaterName=""  />
               </ZoomPanKeyframes>
              </ZoomPanBin>
             </Entry>
             <Entry key="CursorEffectBin">
              <CursorEffectBin id="1381"  >
               <CursorEffectKeyframes>
               </CursorEffectKeyframes>
              </CursorEffectBin>
             </Entry>
            </ExtraData>
           </ScreenIMFile>
           <ScreenVMFile id="1382" start="4744" duration="304" scalar="1/1" mediaStart="4624/1" mediaDuration="304/1" trackNumber="0" src="4" >
            <Transformer>
             <VectorParam id="1383"  name="translation">
              <InterpolatingParam id="1384" interp="linr"  time="-9999999/1" value="0" leadInLength="0/1"  />
              <InterpolatingParam id="1385" interp="linr"  time="-9999999/1" value="0" leadInLength="0/1"  />
              <InterpolatingParam id="1386" interp="linr"  time="-9999999/1" value="0" leadInLength="0/1"  />
             </VectorParam>
             <VectorParam id="1387"  name="rotation">
              <InterpolatingParam id="1388" interp="linr"  time="-9999999/1" value="0" leadInLength="0/1"  />
              <InterpolatingParam id="1389" interp="linr"  time="-9999999/1" value="0" leadInLength="0/1"  />
              <InterpolatingParam id="1390" interp="linr"  time="-9999999/1" value="0" leadInLength="0/1"  />
             </VectorParam>
             <VectorParam id="1391"  name="shear">
              <InterpolatingParam id="1392" interp="linr"  time="-9999999/1" value="0" leadInLength="0/1"  />
              <InterpolatingParam id="1393" interp="linr"  time="-9999999/1" value="0" leadInLength="0/1"  />
              <InterpolatingParam id="1394" interp="linr"  time="-9999999/1" value="0" leadInLength="0/1"  />
             </VectorParam>
             <VectorParam id="1395"  name="scale">
              <InterpolatingParam id="1396" interp="linr"  time="-9999999/1" value="1" leadInLength="0/1"  />
              <InterpolatingParam id="1397" interp="linr"  time="-9999999/1" value="1" leadInLength="0/1"  />
              <InterpolatingParam id="1398" interp="linr"  time="-9999999/1" value="1" leadInLength="0/1"  />
             </VectorParam>
             <VectorParam id="1399"  name="anchor">
              <InterpolatingParam id="1400" interp="linr"  time="0/1" value="0" leadInLength="0/1"  />
              <InterpolatingParam id="1401" interp="linr"  time="0/1" value="0" leadInLength="0/1"  />
              <InterpolatingParam id="1402" interp="linr"  time="0/1" value="0" leadInLength="0/1"  />
             </VectorParam>
            </Transformer>
            <Parameters>
             <VectorParam id="1403"  name="sourceCrop">
              <InterpolatingParam id="1404" interp="linr"  time="0/1" value="0" leadInLength="0/1"  />
              <InterpolatingParam id="1405" interp="linr"  time="0/1" value="0" leadInLength="0/1"  />
              <InterpolatingParam id="1406" interp="linr"  time="0/1" value="0" leadInLength="0/1"  />
              <InterpolatingParam id="1407" interp="linr"  time="0/1" value="0" leadInLength="0/1"  />
             </VectorParam>
             <VectorParam id="1408"  name="geometryCrop">
              <InterpolatingParam id="1409" interp="linr"  time="-9999999/1" value="0" leadInLength="0/1"  />
              <InterpolatingParam id="1410" interp="linr"  time="-9999999/1" value="0" leadInLength="0/1"  />
              <InterpolatingParam id="1411" interp="linr"  time="-9999999/1" value="0" leadInLength="0/1"  />
              <InterpolatingParam id="1412" interp="linr"  time="-9999999/1" value="0" leadInLength="0/1"  />
             </VectorParam>
             <InterpolatingParam id="1413" interp="linr"  time="-9999999/1" value="1" leadInLength="0/1"  name="opacity"/>
             <InterpolatingParam id="1414" interp="linr"  time="0/1" value="0" leadInLength="0/1"  name="cursorOpacity"/>
             <InterpolatingParam id="1415" interp="linr"  time="0/1" value="0" leadInLength="0/1"  name="cursorScale"/>
            </Parameters>
            <Attributes>
             <Attribute id="1416" value="" name="ident"/>
            </Attributes>
            <MetaData>
             <entry key="AutoAppliedSmartFocus" val="False"/>
             <entry key="WinSubProjectDisplayName" val=""/>
            </MetaData>
            <ExtraData>
             <Entry key="ZoomPanBin">
              <ZoomPanBin id="1417"  >
               <ZoomPanKeyframes>
                <ZoomPanKeyframe id="1418" timeRangeEnd="-9999999/1" timeRangeDuration="0/1" interpolaterName=""  />
               </ZoomPanKeyframes>
              </ZoomPanBin>
             </Entry>
             <Entry key="CursorEffectBin">
              <CursorEffectBin id="1419"  >
               <CursorEffectKeyframes>
               </CursorEffectKeyframes>
              </CursorEffectBin>
             </Entry>
            </ExtraData>
           </ScreenVMFile>
          </Medias>
         </GenericTrack>
        </StitchedMedia>
       </Medias>
      </GenericTrack>
      <GenericTrack id="1420"  >
       <Attributes>
        <Attribute id="1421" value="" name="ident"/>
       </Attributes>
       <MetaData>
        <entry key="IsLocked" val="False"/>
        <entry key="WinTrackHeight" val="62"/>
       </MetaData>
       <Medias>
        <AMFile id="1422" start="0" duration="172" scalar="1/1" mediaStart="0/1" mediaDuration="172/1" trackNumber="0" src="13" channelNumber="0" >
         <Parameters>
          <InterpolatingParam id="1423" interp="linr"  time="0/1" value="1" leadInLength="0/1"  name="volume"/>
          <Parameter id="1424"  name="captions"/>
         </Parameters>
         <Attributes>
          <Attribute id="1425" value="" name="ident"/>
          <Attribute id="1426" value="22050" name="sampleRate"/>
          <Attribute id="1427" value="16" name="bitDepth"/>
          <Attribute id="1428" value="1" name="gain"/>
         </Attributes>
         <MetaData>
          <entry key="WinSubProjectDisplayName" val=""/>
         </MetaData>
        </AMFile>
        <AMFile id="1429" start="172" duration="165" scalar="1/1" mediaStart="18/1" mediaDuration="165/1" trackNumber="0" src="29" channelNumber="0" >
         <Parameters>
          <InterpolatingParam id="1430" interp="linr"  time="0/1" value="1" leadInLength="0/1"  name="volume"/>
          <Parameter id="1431"  name="captions"/>
         </Parameters>
         <Attributes>
          <Attribute id="1432" value="" name="ident"/>
          <Attribute id="1433" value="22050" name="sampleRate"/>
          <Attribute id="1434" value="16" name="bitDepth"/>
          <Attribute id="1435" value="1" name="gain"/>
         </Attributes>
         <MetaData>
          <entry key="WinSubProjectDisplayName" val=""/>
         </MetaData>
        </AMFile>
        <AMFile id="1436" start="337" duration="81" scalar="1/1" mediaStart="17/1" mediaDuration="81/1" trackNumber="0" src="30" channelNumber="0" >
         <Parameters>
          <InterpolatingParam id="1437" interp="linr"  time="0/1" value="1" leadInLength="0/1"  name="volume"/>
          <Parameter id="1438"  name="captions"/>
         </Parameters>
         <Attributes>
          <Attribute id="1439" value="" name="ident"/>
          <Attribute id="1440" value="22050" name="sampleRate"/>
          <Attribute id="1441" value="16" name="bitDepth"/>
          <Attribute id="1442" value="1" name="gain"/>
         </Attributes>
         <MetaData>
          <entry key="WinSubProjectDisplayName" val=""/>
         </MetaData>
        </AMFile>
        <AMFile id="1443" start="418" duration="347" scalar="1/1" mediaStart="28/1" mediaDuration="347/1" trackNumber="0" src="32" channelNumber="0" >
         <Parameters>
          <InterpolatingParam id="1444" interp="linr"  time="0/1" value="1" leadInLength="0/1"  name="volume"/>
          <Parameter id="1445"  name="captions"/>
         </Parameters>
         <Attributes>
          <Attribute id="1446" value="" name="ident"/>
          <Attribute id="1447" value="22050" name="sampleRate"/>
          <Attribute id="1448" value="16" name="bitDepth"/>
          <Attribute id="1449" value="1" name="gain"/>
         </Attributes>
         <MetaData>
          <entry key="WinSubProjectDisplayName" val=""/>
         </MetaData>
        </AMFile>
        <AMFile id="1450" start="765" duration="357" scalar="1/1" mediaStart="20/1" mediaDuration="357/1" trackNumber="0" src="36" channelNumber="0" >
         <Parameters>
          <InterpolatingParam id="1451" interp="linr"  time="0/1" value="1" leadInLength="0/1"  name="volume"/>
          <Parameter id="1452"  name="captions"/>
         </Parameters>
         <Attributes>
          <Attribute id="1453" value="" name="ident"/>
          <Attribute id="1454" value="22050" name="sampleRate"/>
          <Attribute id="1455" value="16" name="bitDepth"/>
          <Attribute id="1456" value="1" name="gain"/>
         </Attributes>
         <MetaData>
          <entry key="WinSubProjectDisplayName" val=""/>
         </MetaData>
        </AMFile>
        <AMFile id="1457" start="1122" duration="139" scalar="1/1" mediaStart="20/1" mediaDuration="139/1" trackNumber="0" src="34" channelNumber="0" >
         <Parameters>
          <InterpolatingParam id="1458" interp="linr"  time="0/1" value="1" leadInLength="0/1"  name="volume"/>
          <Parameter id="1459"  name="captions"/>
         </Parameters>
         <Attributes>
          <Attribute id="1460" value="" name="ident"/>
          <Attribute id="1461" value="22050" name="sampleRate"/>
          <Attribute id="1462" value="16" name="bitDepth"/>
          <Attribute id="1463" value="1" name="gain"/>
         </Attributes>
         <MetaData>
          <entry key="WinSubProjectDisplayName" val=""/>
         </MetaData>
        </AMFile>
        <AMFile id="1464" start="1261" duration="260" scalar="1/1" mediaStart="22/1" mediaDuration="260/1" trackNumber="0" src="35" channelNumber="0" >
         <Parameters>
          <InterpolatingParam id="1465" interp="linr"  time="0/1" value="1" leadInLength="0/1"  name="volume"/>
          <Parameter id="1466"  name="captions"/>
         </Parameters>
         <Attributes>
          <Attribute id="1467" value="" name="ident"/>
          <Attribute id="1468" value="22050" name="sampleRate"/>
          <Attribute id="1469" value="16" name="bitDepth"/>
          <Attribute id="1470" value="1" name="gain"/>
         </Attributes>
         <MetaData>
          <entry key="WinSubProjectDisplayName" val=""/>
         </MetaData>
        </AMFile>
        <AMFile id="1471" start="1521" duration="346" scalar="1/1" mediaStart="292/1" mediaDuration="346/1" trackNumber="0" src="35" channelNumber="0" >
         <Parameters>
          <InterpolatingParam id="1472" interp="linr"  time="0/1" value="1" leadInLength="0/1"  name="volume"/>
          <Parameter id="1473"  name="captions"/>
         </Parameters>
         <Attributes>
          <Attribute id="1474" value="" name="ident"/>
          <Attribute id="1475" value="22050" name="sampleRate"/>
          <Attribute id="1476" value="16" name="bitDepth"/>
          <Attribute id="1477" value="1" name="gain"/>
         </Attributes>
         <MetaData>
          <entry key="WinSubProjectDisplayName" val=""/>
         </MetaData>
        </AMFile>
        <AMFile id="1478" start="1867" duration="161" scalar="1/1" mediaStart="0/1" mediaDuration="161/1" trackNumber="0" src="28" channelNumber="0" >
         <Parameters>
          <InterpolatingParam id="1479" interp="linr"  time="0/1" value="1" leadInLength="0/1"  name="volume"/>
          <Parameter id="1480"  name="captions"/>
         </Parameters>
         <Attributes>
          <Attribute id="1481" value="" name="ident"/>
          <Attribute id="1482" value="22050" name="sampleRate"/>
          <Attribute id="1483" value="16" name="bitDepth"/>
          <Attribute id="1484" value="1" name="gain"/>
         </Attributes>
         <MetaData>
          <entry key="WinSubProjectDisplayName" val=""/>
         </MetaData>
        </AMFile>
        <AMFile id="1485" start="2028" duration="311" scalar="1/1" mediaStart="0/1" mediaDuration="311/1" trackNumber="0" src="25" channelNumber="0" >
         <Parameters>
          <InterpolatingParam id="1486" interp="linr"  time="0/1" value="1" leadInLength="0/1"  name="volume"/>
          <Parameter id="1487"  name="captions"/>
         </Parameters>
         <Attributes>
          <Attribute id="1488" value="" name="ident"/>
          <Attribute id="1489" value="22050" name="sampleRate"/>
          <Attribute id="1490" value="16" name="bitDepth"/>
          <Attribute id="1491" value="1" name="gain"/>
         </Attributes>
         <MetaData>
          <entry key="WinSubProjectDisplayName" val=""/>
         </MetaData>
        </AMFile>
        <AMFile id="1492" start="2339" duration="131" scalar="1/1" mediaStart="0/1" mediaDuration="131/1" trackNumber="0" src="26" channelNumber="0" >
         <Parameters>
          <InterpolatingParam id="1493" interp="linr"  time="0/1" value="1" leadInLength="0/1"  name="volume"/>
          <Parameter id="1494"  name="captions"/>
         </Parameters>
         <Attributes>
          <Attribute id="1495" value="" name="ident"/>
          <Attribute id="1496" value="22050" name="sampleRate"/>
          <Attribute id="1497" value="16" name="bitDepth"/>
          <Attribute id="1498" value="1" name="gain"/>
         </Attributes>
         <MetaData>
          <entry key="WinSubProjectDisplayName" val=""/>
         </MetaData>
        </AMFile>
        <AMFile id="1499" start="2470" duration="345" scalar="1/1" mediaStart="0/1" mediaDuration="345/1" trackNumber="0" src="20" channelNumber="0" >
         <Parameters>
          <InterpolatingParam id="1500" interp="linr"  time="0/1" value="1" leadInLength="0/1"  name="volume"/>
          <Parameter id="1501"  name="captions"/>
         </Parameters>
         <Attributes>
          <Attribute id="1502" value="" name="ident"/>
          <Attribute id="1503" value="22050" name="sampleRate"/>
          <Attribute id="1504" value="16" name="bitDepth"/>
          <Attribute id="1505" value="1" name="gain"/>
         </Attributes>
         <MetaData>
          <entry key="WinSubProjectDisplayName" val=""/>
         </MetaData>
        </AMFile>
        <AMFile id="1506" start="2815" duration="525" scalar="1/1" mediaStart="0/1" mediaDuration="525/1" trackNumber="0" src="21" channelNumber="0" >
         <Parameters>
          <InterpolatingParam id="1507" interp="linr"  time="0/1" value="1" leadInLength="0/1"  name="volume"/>
          <Parameter id="1508"  name="captions"/>
         </Parameters>
         <Attributes>
          <Attribute id="1509" value="" name="ident"/>
          <Attribute id="1510" value="22050" name="sampleRate"/>
          <Attribute id="1511" value="16" name="bitDepth"/>
          <Attribute id="1512" value="1" name="gain"/>
         </Attributes>
         <MetaData>
          <entry key="WinSubProjectDisplayName" val=""/>
         </MetaData>
        </AMFile>
        <AMFile id="1513" start="3340" duration="161" scalar="1/1" mediaStart="10/1" mediaDuration="161/1" trackNumber="0" src="22" channelNumber="0" >
         <Parameters>
          <InterpolatingParam id="1514" interp="linr"  time="0/1" value="1" leadInLength="0/1"  name="volume"/>
          <Parameter id="1515"  name="captions"/>
         </Parameters>
         <Attributes>
          <Attribute id="1516" value="" name="ident"/>
          <Attribute id="1517" value="22050" name="sampleRate"/>
          <Attribute id="1518" value="16" name="bitDepth"/>
          <Attribute id="1519" value="1" name="gain"/>
         </Attributes>
         <MetaData>
          <entry key="WinSubProjectDisplayName" val=""/>
         </MetaData>
        </AMFile>
        <AMFile id="1520" start="3501" duration="116" scalar="1/1" mediaStart="0/1" mediaDuration="116/1" trackNumber="0" src="27" channelNumber="0" >
         <Parameters>
          <InterpolatingParam id="1521" interp="linr"  time="0/1" value="1" leadInLength="0/1"  name="volume"/>
          <Parameter id="1522"  name="captions"/>
         </Parameters>
         <Attributes>
          <Attribute id="1523" value="" name="ident"/>
          <Attribute id="1524" value="22050" name="sampleRate"/>
          <Attribute id="1525" value="16" name="bitDepth"/>
          <Attribute id="1526" value="1" name="gain"/>
         </Attributes>
         <MetaData>
          <entry key="WinSubProjectDisplayName" val=""/>
         </MetaData>
        </AMFile>
       </Medias>
      </GenericTrack>
      <GenericTrack id="1527"  >
       <Attributes>
        <Attribute id="1528" value="" name="ident"/>
       </Attributes>
       <MetaData>
        <entry key="IsLocked" val="False"/>
        <entry key="WinTrackHeight" val="62"/>
       </MetaData>
       <Medias>
        <Group id="1529" start="327" duration="171" scalar="1" mediaStart="0" mediaDuration="171" baseWidthAttr="0" baseHeightAttr="0"  >
         <Parameters>
          <VectorParam id="1530"  name="sourceCrop">
           <InterpolatingParam id="1531" interp="linr"  time="0/1" value="0" leadInLength="0/1"  />
           <InterpolatingParam id="1532" interp="linr"  time="0/1" value="0" leadInLength="0/1"  />
           <InterpolatingParam id="1533" interp="linr"  time="0/1" value="0" leadInLength="0/1"  />
           <InterpolatingParam id="1534" interp="linr"  time="0/1" value="0" leadInLength="0/1"  />
          </VectorParam>
          <VectorParam id="1535"  name="geometryCrop">
           <InterpolatingParam id="1536" interp="linr"  time="-9999999/1" value="0" leadInLength="0/1"  interpolater="leadin-eioe"  />
           <InterpolatingParam id="1537" interp="linr"  time="-9999999/1" value="0" leadInLength="0/1"  interpolater="leadin-eioe"  />
           <InterpolatingParam id="1538" interp="linr"  time="-9999999/1" value="0" leadInLength="0/1"  interpolater="leadin-eioe"  />
           <InterpolatingParam id="1539" interp="linr"  time="-9999999/1" value="0" leadInLength="0/1"  interpolater="leadin-eioe"  />
          </VectorParam>
          <InterpolatingParam id="1540" interp="linr"  time="-9999999/1" value="1" leadInLength="0/1"  name="opacity"/>
          <Parameter id="1541"  name="captions"/>
          <InterpolatingParam id="1542" interp="linr"  time="0/1" value="1" leadInLength="0/1"  name="volume"/>
         </Parameters>
         <Transformer>
          <VectorParam id="1543"  name="translation">
           <InterpolatingParam id="1544" interp="linr"  time="-9999999/1" value="0" leadInLength="0/1"  />
           <InterpolatingParam id="1545" interp="linr"  time="-9999999/1" value="0" leadInLength="0/1"  />
           <InterpolatingParam id="1546" interp="linr"  time="-9999999/1" value="0" leadInLength="0/1"  />
          </VectorParam>
          <VectorParam id="1547"  name="rotation">
           <InterpolatingParam id="1548" interp="linr"  time="-9999999/1" value="0" leadInLength="0/1"  />
           <InterpolatingParam id="1549" interp="linr"  time="-9999999/1" value="0" leadInLength="0/1"  />
           <InterpolatingParam id="1550" interp="linr"  time="-9999999/1" value="0" leadInLength="0/1"  />
          </VectorParam>
          <VectorParam id="1551"  name="shear">
           <InterpolatingParam id="1552" interp="linr"  time="-9999999/1" value="0" leadInLength="0/1"  />
           <InterpolatingParam id="1553" interp="linr"  time="-9999999/1" value="0" leadInLength="0/1"  />
           <InterpolatingParam id="1554" interp="linr"  time="-9999999/1" value="0" leadInLength="0/1"  />
          </VectorParam>
          <VectorParam id="1555"  name="scale">
           <InterpolatingParam id="1556" interp="linr"  time="-9999999/1" value="1" leadInLength="0/1"  />
           <InterpolatingParam id="1557" interp="linr"  time="-9999999/1" value="1" leadInLength="0/1"  />
           <InterpolatingParam id="1558" interp="linr"  time="-9999999/1" value="1" leadInLength="0/1"  />
          </VectorParam>
          <VectorParam id="1559"  name="anchor">
           <InterpolatingParam id="1560" interp="linr"  time="0/1" value="-3" leadInLength="0/1"  />
           <InterpolatingParam id="1561" interp="linr"  time="0/1" value="0.5" leadInLength="0/1"  />
           <InterpolatingParam id="1562" interp="linr"  time="0/1" value="0" leadInLength="0/1"  />
          </VectorParam>
         </Transformer>
         <GenericMixer id="1563"  >
          <MetaData>
          </MetaData>
          <Tracks>
           <GenericTrack id="1564"  >
            <Attributes>
             <Attribute id="1565" value="" name="ident"/>
            </Attributes>
            <MetaData>
             <entry key="IsLocked" val="False"/>
             <entry key="WinTrackHeight" val="0"/>
            </MetaData>
            <Medias>
             <VMFile id="1566" start="0" duration="171" scalar="1/1" mediaStart="0/1" mediaDuration="171/1" trackNumber="0" src="7" >
              <Transformer>
               <VectorParam id="1567"  name="translation">
                <InterpolatingParam id="1568" interp="linr"  time="-9999999/1" value="5.012656956183957e-011" leadInLength="-9999999/1"  />
                <InterpolatingParam id="1569" interp="linr"  time="-9999999/1" value="1.1442580216680653e-010" leadInLength="-9999999/1"  />
                <InterpolatingParam id="1570" interp="linr"  time="-9999999/1" value="0" leadInLength="-9999999/1"  />
               </VectorParam>
               <VectorParam id="1571"  name="rotation">
                <InterpolatingParam id="1572" interp="linr"  time="-9999999/1" value="0" leadInLength="-9999999/1"  />
                <InterpolatingParam id="1573" interp="linr"  time="-9999999/1" value="0" leadInLength="-9999999/1"  />
                <InterpolatingParam id="1574" interp="linr"  time="-9999999/1" value="0" leadInLength="-9999999/1"  />
               </VectorParam>
               <VectorParam id="1575"  name="shear">
                <InterpolatingParam id="1576" interp="linr"  time="-9999999/1" value="0" leadInLength="-9999999/1"  />
                <InterpolatingParam id="1577" interp="linr"  time="-9999999/1" value="0" leadInLength="-9999999/1"  />
                <InterpolatingParam id="1578" interp="linr"  time="-9999999/1" value="0" leadInLength="-9999999/1"  />
               </VectorParam>
               <VectorParam id="1579"  name="scale">
                <InterpolatingParam id="1580" interp="linr"  time="-9999999/1" value="1" leadInLength="-9999999/1"  />
                <InterpolatingParam id="1581" interp="linr"  time="-9999999/1" value="1" leadInLength="-9999999/1"  />
                <InterpolatingParam id="1582" interp="linr"  time="-9999999/1" value="1" leadInLength="-9999999/1"  />
               </VectorParam>
               <VectorParam id="1583"  name="anchor">
                <InterpolatingParam id="1584" interp="linr"  time="0/1" value="0" leadInLength="0/1"  />
                <InterpolatingParam id="1585" interp="linr"  time="0/1" value="0" leadInLength="0/1"  />
                <InterpolatingParam id="1586" interp="linr"  time="0/1" value="0" leadInLength="0/1"  />
               </VectorParam>
              </Transformer>
              <Parameters>
               <VectorParam id="1587"  name="sourceCrop">
                <InterpolatingParam id="1588" interp="linr"  time="0/1" value="0" leadInLength="0/1"  />
                <InterpolatingParam id="1589" interp="linr"  time="0/1" value="0" leadInLength="0/1"  />
                <InterpolatingParam id="1590" interp="linr"  time="0/1" value="0" leadInLength="0/1"  />
                <InterpolatingParam id="1591" interp="linr"  time="0/1" value="0" leadInLength="0/1"  />
               </VectorParam>
               <VectorParam id="1592"  name="geometryCrop">
                <InterpolatingParam id="1593" interp="linr"  time="-9999999/1" value="0" leadInLength="0/1"  interpolater="leadin-eioe"  />
                <InterpolatingParam id="1594" interp="linr"  time="-9999999/1" value="0" leadInLength="0/1"  interpolater="leadin-eioe"  />
                <InterpolatingParam id="1595" interp="linr"  time="-9999999/1" value="0" leadInLength="0/1"  interpolater="leadin-eioe"  />
                <InterpolatingParam id="1596" interp="linr"  time="-9999999/1" value="0" leadInLength="0/1"  interpolater="leadin-eioe"  />
               </VectorParam>
               <InterpolatingParam id="1597" interp="linr"  time="-9999999/1" value="1" leadInLength="-9999999/1"  name="opacity"/>
              </Parameters>
              <Attributes>
               <Attribute id="1598" value="" name="ident"/>
              </Attributes>
              <MetaData>
               <entry key="WinSubProjectDisplayName" val=""/>
              </MetaData>
              <ExtraData>
               <Entry key="ZoomPanBin">
                <ZoomPanBin id="1599"  >
                 <ZoomPanKeyframes>
                  <ZoomPanKeyframe id="1600" timeRangeEnd="-9999999/1" timeRangeDuration="-9999999/1" interpolaterName="linr"  />
                 </ZoomPanKeyframes>
                </ZoomPanBin>
               </Entry>
              </ExtraData>
             </VMFile>
            </Medias>
           </GenericTrack>
           <GenericTrack id="1601"  >
            <Attributes>
             <Attribute id="1602" value="" name="ident"/>
            </Attributes>
            <MetaData>
             <entry key="IsLocked" val="False"/>
             <entry key="WinTrackHeight" val="0"/>
            </MetaData>
            <Medias>
             <UnifiedMedia id="1603"  >
              <AudioTransition id="1604" start="30" duration="30" >
               <Parameters>
                <InterpolatingParam id="1605" interp="linr"  time="0/1" value="1" leadInLength="0/1"  name="volume"/>
                <Parameter id="1606"  name="captions"/>
               </Parameters>
               <Effects>
                <GenericEffect id="1607" name = "AudioTransition" >
                 <Parameters>
                 <Parameter id="1608"   name="audioEdgeModType">
                  <Keyframes>
                  <Keyframe id="1609"  time="0/1" value="0" leadInLength="0/1"  />
                  </Keyframes>
                 </Parameter>
                 <Parameter id="1610"   name="audioTransitionType">
                  <Keyframes>
                  <Keyframe id="1611"  time="0/1" value="" leadInLength="0/1"  />
                  </Keyframes>
                 </Parameter>
                 </Parameters>
                 <MetaData>
                 </MetaData>
                </GenericEffect>
               </Effects>
               <Attributes>
                <Attribute id="1612" value="" name="ident"/>
                <Attribute id="1613" value="0" name="sampleRate"/>
                <Attribute id="1614" value="0" name="bitDepth"/>
                <Attribute id="1615" value="1" name="gain"/>
               </Attributes>
              </AudioTransition>
              <ImageTransition id="1616" start="30" duration="30" >
               <Transformer>
                <VectorParam id="1617"  name="translation">
                 <InterpolatingParam id="1618" interp="linr"  time="0/1" value="0" leadInLength="0/1"  />
                 <InterpolatingParam id="1619" interp="linr"  time="0/1" value="0" leadInLength="0/1"  />
                 <InterpolatingParam id="1620" interp="linr"  time="0/1" value="0" leadInLength="0/1"  />
                </VectorParam>
                <VectorParam id="1621"  name="rotation">
                 <InterpolatingParam id="1622" interp="linr"  time="0/1" value="0" leadInLength="0/1"  />
                 <InterpolatingParam id="1623" interp="linr"  time="0/1" value="0" leadInLength="0/1"  />
                 <InterpolatingParam id="1624" interp="linr"  time="0/1" value="0" leadInLength="0/1"  />
                </VectorParam>
                <VectorParam id="1625"  name="shear">
                 <InterpolatingParam id="1626" interp="linr"  time="0/1" value="0" leadInLength="0/1"  />
                 <InterpolatingParam id="1627" interp="linr"  time="0/1" value="0" leadInLength="0/1"  />
                 <InterpolatingParam id="1628" interp="linr"  time="0/1" value="0" leadInLength="0/1"  />
                </VectorParam>
                <VectorParam id="1629"  name="scale">
                 <InterpolatingParam id="1630" interp="linr"  time="0/1" value="1" leadInLength="0/1"  />
                 <InterpolatingParam id="1631" interp="linr"  time="0/1" value="1" leadInLength="0/1"  />
                 <InterpolatingParam id="1632" interp="linr"  time="0/1" value="1" leadInLength="0/1"  />
                </VectorParam>
                <VectorParam id="1633"  name="anchor">
                 <InterpolatingParam id="1634" interp="linr"  time="0/1" value="0" leadInLength="0/1"  />
                 <InterpolatingParam id="1635" interp="linr"  time="0/1" value="0" leadInLength="0/1"  />
                 <InterpolatingParam id="1636" interp="linr"  time="0/1" value="0" leadInLength="0/1"  />
                </VectorParam>
               </Transformer>
               <Parameters>
                <VectorParam id="1637"  name="sourceCrop">
                 <InterpolatingParam id="1638" interp="linr"  time="0/1" value="0" leadInLength="0/1"  />
                 <InterpolatingParam id="1639" interp="linr"  time="0/1" value="0" leadInLength="0/1"  />
                 <InterpolatingParam id="1640" interp="linr"  time="0/1" value="0" leadInLength="0/1"  />
                 <InterpolatingParam id="1641" interp="linr"  time="0/1" value="0" leadInLength="0/1"  />
                </VectorParam>
                <VectorParam id="1642"  name="geometryCrop">
                 <InterpolatingParam id="1643" interp="linr"  time="0/1" value="0" leadInLength="0/1"  />
                 <InterpolatingParam id="1644" interp="linr"  time="0/1" value="0" leadInLength="0/1"  />
                 <InterpolatingParam id="1645" interp="linr"  time="0/1" value="0" leadInLength="0/1"  />
                 <InterpolatingParam id="1646" interp="linr"  time="0/1" value="0" leadInLength="0/1"  />
                </VectorParam>
                <InterpolatingParam id="1647" interp="linr"  time="0/1" value="1" leadInLength="0/1"  name="opacity"/>
               </Parameters>
               <Effects>
                <GenericEffect id="1648" name = "VisualTransition" >
                 <Parameters>
                 <InterpolatingParam id="1649" interp="linr"  time="0/1" value="0.5" leadInLength="0/1"   name="leftFramePercentage"/>
                 <InterpolatingParam id="1650" interp="linr"  time="0/1" value="0.5" leadInLength="0/1"   name="rightFramePercentage"/>
                 <Parameter id="1651"   name="visualEdgeModType">
                  <Keyframes>
                  <Keyframe id="1652"  time="0/1" value="1" leadInLength="0/1"  />
                  </Keyframes>
                 </Parameter>
                 <Parameter id="1653"   name="visualTransitionType">
                  <Keyframes>
                  <Keyframe id="1654"  time="0/1" value="Fade" leadInLength="0/1"  />
                  </Keyframes>
                 </Parameter>
                 </Parameters>
                 <MetaData>
                 </MetaData>
                </GenericEffect>
               </Effects>
               <Attributes>
                <Attribute id="1655" value="" name="ident"/>
               </Attributes>
               <ExtraData>
                <Entry key="ZoomPanBin">
                 <ZoomPanBin id="1656"  >
                  <ZoomPanKeyframes>
                  </ZoomPanKeyframes>
                 </ZoomPanBin>
                </Entry>
               </ExtraData>
              </ImageTransition>
              <MetaData>
               <entry key="WinSubProjectDisplayName" val=""/>
              </MetaData>
             </UnifiedMedia>
             <Callout id="1657" start="60" duration="81" scalar="1/1" mediaStart="-90/1" mediaDuration="81/1" >
              <Transformer>
               <VectorParam id="1658"  name="translation">
                <InterpolatingParam id="1659" interp="linr"  time="-9999999/1" value="-3.2496307238221149" leadInLength="-9999879/1"  />
                <InterpolatingParam id="1660" interp="linr"  time="-9999999/1" value="-267.11964549483298" leadInLength="-9999879/1"  />
                <InterpolatingParam id="1661" interp="linr"  time="-9999999/1" value="0" leadInLength="-9999879/1"  />
               </VectorParam>
               <VectorParam id="1662"  name="rotation">
                <InterpolatingParam id="1663" interp="linr"  time="-9999999/1" value="0" leadInLength="-9999879/1"  />
                <InterpolatingParam id="1664" interp="linr"  time="-9999999/1" value="0" leadInLength="-9999879/1"  />
                <InterpolatingParam id="1665" interp="linr"  time="-9999999/1" value="0" leadInLength="-9999879/1"  />
               </VectorParam>
               <VectorParam id="1666"  name="shear">
                <InterpolatingParam id="1667" interp="linr"  time="-9999999/1" value="0" leadInLength="-9999879/1"  />
                <InterpolatingParam id="1668" interp="linr"  time="-9999999/1" value="0" leadInLength="-9999879/1"  />
                <InterpolatingParam id="1669" interp="linr"  time="-9999999/1" value="0" leadInLength="-9999879/1"  />
               </VectorParam>
               <VectorParam id="1670"  name="scale">
                <InterpolatingParam id="1671" interp="linr"  time="-9999999/1" value="2.6802067946824608" leadInLength="-9999879/1"  />
                <InterpolatingParam id="1672" interp="linr"  time="-9999999/1" value="0.58050221565700155" leadInLength="-9999879/1"  />
                <InterpolatingParam id="1673" interp="linr"  time="-9999999/1" value="1" leadInLength="-9999879/1"  />
               </VectorParam>
               <VectorParam id="1674"  name="anchor">
                <InterpolatingParam id="1675" interp="linr"  time="0/1" value="0" leadInLength="0/1"  />
                <InterpolatingParam id="1676" interp="linr"  time="0/1" value="0" leadInLength="0/1"  />
                <InterpolatingParam id="1677" interp="linr"  time="0/1" value="0" leadInLength="0/1"  />
               </VectorParam>
              </Transformer>
              <Parameters>
               <VectorParam id="1678"  name="sourceCrop">
                <InterpolatingParam id="1679" interp="linr"  time="0/1" value="0" leadInLength="0/1"  />
                <InterpolatingParam id="1680" interp="linr"  time="0/1" value="0" leadInLength="0/1"  />
                <InterpolatingParam id="1681" interp="linr"  time="0/1" value="0" leadInLength="0/1"  />
                <InterpolatingParam id="1682" interp="linr"  time="0/1" value="0" leadInLength="0/1"  />
               </VectorParam>
               <VectorParam id="1683"  name="geometryCrop">
                <InterpolatingParam id="1684" interp="linr"  time="-9999999/1" value="0" leadInLength="0/1"  interpolater="leadin-eioe"  />
                <InterpolatingParam id="1685" interp="linr"  time="-9999999/1" value="0" leadInLength="0/1"  interpolater="leadin-eioe"  />
                <InterpolatingParam id="1686" interp="linr"  time="-9999999/1" value="0" leadInLength="0/1"  interpolater="leadin-eioe"  />
                <InterpolatingParam id="1687" interp="linr"  time="-9999999/1" value="0" leadInLength="0/1"  interpolater="leadin-eioe"  />
               </VectorParam>
               <InterpolatingParam id="1688" interp="linr"  time="-9999999/1" value="1" leadInLength="-9999879/1"  name="opacity"/>
              </Parameters>
              <Attributes>
               <Attribute id="1689"  name="vectorNode">
                <VectorNode id="1690" kind="TypeWinText"  >
                 <DoubleParameters>
                  <InterpolatingParam id="1691" interp="linr"  time="0/1" value="5" leadInLength="0/1"  name="Style"/>
                  <InterpolatingParam id="1692" interp="linr"  time="0/1" value="320" leadInLength="0/1"  name="height"/>
                  <InterpolatingParam id="1693" interp="linr"  time="0/1" value="0" leadInLength="0/1"  name="textDropShadow"/>
                  <InterpolatingParam id="1694" interp="linr"  time="0/1" value="0" leadInLength="0/1"  name="textIgnoresOpacity"/>
                  <InterpolatingParam id="1695" interp="linr"  time="0/1" value="1" leadInLength="0/1"  name="textRectHeight"/>
                  <InterpolatingParam id="1696" interp="linr"  time="0/1" value="1" leadInLength="0/1"  name="textRectWidth"/>
                  <InterpolatingParam id="1697" interp="linr"  time="0/1" value="0" leadInLength="0/1"  name="textRectX"/>
                  <InterpolatingParam id="1698" interp="linr"  time="0/1" value="0" leadInLength="0/1"  name="textRectY"/>
                  <InterpolatingParam id="1699" interp="linr"  time="0/1" value="0" leadInLength="0/1"  name="textVerticalAlign"/>
                  <InterpolatingParam id="1700" interp="linr"  time="0/1" value="480" leadInLength="0/1"  name="width"/>
                 </DoubleParameters>
                 <StringParameters>
                  <Parameter id="1701"  name="filename">
                   <Keyframes>
                   <Keyframe id="1702"  time="0/1" value="C:\Program Files (x86)\TechSmith\Camtasia Studio 8\Media\Studio\Callouts\trans_100x100.xml" leadInLength="0/1"  />
                   </Keyframes>
                  </Parameter>
                  <Parameter id="1703"  name="name">
                   <Keyframes>
                   <Keyframe id="1704"  time="0/1" value="Text Callout" leadInLength="0/1"  />
                   </Keyframes>
                  </Parameter>
                  <Parameter id="1705"  name="text">
                   <Keyframes>
                   <Keyframe id="1706"  time="0/1" value="{\rtf1\ansi\ansicpg1252\deff0\deflang1033{\fonttbl{\f0\froman\fprq2\fcharset0 Goudy Old Style;}}&#xD;&#xa;{\colortbl ;\red255\green255\blue255;}&#xD;&#xa;\viewkind4\uc1\pard\qc\cf1\f0\fs96 A Parallel Approach to Connect-5 AI\b\par&#xD;&#xa;}&#xD;&#xa;" leadInLength="0/1"  />
                   </Keyframes>
                  </Parameter>
                  <Parameter id="1707"  name="xmlContent">
                   <Keyframes>
                   <Keyframe id="1708"  time="0/1" value="﻿&lt;?xml version=&quot;1.0&quot;?&gt;&#xa;&#xa;&lt;Overlay version=&quot;1.0.1&quot;&gt;&#xa;&#xa;&lt;Overlay_Filename&gt;trans_100x100.png&lt;/Overlay_Filename&gt;&#xa;&lt;Overlay_Name&gt;Text Callout&lt;/Overlay_Name&gt;&#xa;&lt;Overlay_XGrow&gt;0&lt;/Overlay_XGrow&gt;&#xa;&lt;Overlay_YGrow&gt;0&lt;/Overlay_YGrow&gt;&#xa;&lt;Text_Top&gt;0&lt;/Text_Top&gt;&#xa;&lt;Text_Left&gt;0&lt;/Text_Left&gt;&#xa;&lt;Text_Bottom&gt;0&lt;/Text_Bottom&gt;&#xa;&lt;Text_Right&gt;0&lt;/Text_Right&gt;&#xa;&lt;Vector_Grow&gt;0&lt;/Vector_Grow&gt;&#xa;&lt;CanRotate_90&gt;0&lt;/CanRotate_90&gt;&#xa;&lt;CanRotate_180&gt;0&lt;/CanRotate_180&gt;&#xa;&lt;CanRotate_270&gt;0&lt;/CanRotate_270&gt;&#xa;&lt;CanFlip_X&gt;0&lt;/CanFlip_X&gt;&#xa;&lt;CanFlip_X90&gt;0&lt;/CanFlip_X90&gt;&#xa;&lt;CanFlip_X180&gt;0&lt;/CanFlip_X180&gt;&#xa;&lt;CanFlip_X270&gt;0&lt;/CanFlip_X270&gt;&#xa;&lt;Fill_Color&gt;0&lt;/Fill_Color&gt;&#xa;&lt;Border_Color&gt;0&lt;/Border_Color&gt;&#xa;&lt;Style&gt;5&lt;/Style&gt;&#xa;&lt;/Overlay&gt;3" leadInLength="0/1"  />
                   </Keyframes>
                  </Parameter>
                 </StringParameters>
                </VectorNode>
               </Attribute>
              </Attributes>
              <MetaData>
               <entry key="WinSubProjectDisplayName" val=""/>
              </MetaData>
              <LeftEdgeMods length="0/1" groupName="OpacityFade">
               <EdgeMod parameter="1688">
                <FadeInFunc id="1709"  />
               </EdgeMod>
              </LeftEdgeMods>
              <RightEdgeMods length="0/1" groupName="OpacityFade">
               <EdgeMod parameter="1688">
                <FadeOutFunc id="1710"  />
               </EdgeMod>
              </RightEdgeMods>
              <ExtraData>
               <Entry key="ZoomPanBin">
                <ZoomPanBin id="1711"  >
                 <ZoomPanKeyframes>
                  <ZoomPanKeyframe id="1712" timeRangeEnd="-9999999/1" timeRangeDuration="-9999879/1" interpolaterName="linr"  />
                 </ZoomPanKeyframes>
                </ZoomPanBin>
               </Entry>
              </ExtraData>
             </Callout>
             <UnifiedMedia id="1713"  >
              <AudioTransition id="1714" start="141" duration="30" >
               <Parameters>
                <InterpolatingParam id="1715" interp="linr"  time="0/1" value="1" leadInLength="0/1"  name="volume"/>
                <Parameter id="1716"  name="captions"/>
               </Parameters>
               <Effects>
                <GenericEffect id="1717" name = "AudioTransition" >
                 <Parameters>
                 <Parameter id="1718"   name="audioEdgeModType">
                  <Keyframes>
                  <Keyframe id="1719"  time="0/1" value="0" leadInLength="0/1"  />
                  </Keyframes>
                 </Parameter>
                 <Parameter id="1720"   name="audioTransitionType">
                  <Keyframes>
                  <Keyframe id="1721"  time="0/1" value="" leadInLength="0/1"  />
                  </Keyframes>
                 </Parameter>
                 </Parameters>
                 <MetaData>
                 </MetaData>
                </GenericEffect>
               </Effects>
               <Attributes>
                <Attribute id="1722" value="" name="ident"/>
                <Attribute id="1723" value="0" name="sampleRate"/>
                <Attribute id="1724" value="0" name="bitDepth"/>
                <Attribute id="1725" value="1" name="gain"/>
               </Attributes>
              </AudioTransition>
              <ImageTransition id="1726" start="141" duration="30" >
               <Transformer>
                <VectorParam id="1727"  name="translation">
                 <InterpolatingParam id="1728" interp="linr"  time="0/1" value="0" leadInLength="0/1"  />
                 <InterpolatingParam id="1729" interp="linr"  time="0/1" value="0" leadInLength="0/1"  />
                 <InterpolatingParam id="1730" interp="linr"  time="0/1" value="0" leadInLength="0/1"  />
                </VectorParam>
                <VectorParam id="1731"  name="rotation">
                 <InterpolatingParam id="1732" interp="linr"  time="0/1" value="0" leadInLength="0/1"  />
                 <InterpolatingParam id="1733" interp="linr"  time="0/1" value="0" leadInLength="0/1"  />
                 <InterpolatingParam id="1734" interp="linr"  time="0/1" value="0" leadInLength="0/1"  />
                </VectorParam>
                <VectorParam id="1735"  name="shear">
                 <InterpolatingParam id="1736" interp="linr"  time="0/1" value="0" leadInLength="0/1"  />
                 <InterpolatingParam id="1737" interp="linr"  time="0/1" value="0" leadInLength="0/1"  />
                 <InterpolatingParam id="1738" interp="linr"  time="0/1" value="0" leadInLength="0/1"  />
                </VectorParam>
                <VectorParam id="1739"  name="scale">
                 <InterpolatingParam id="1740" interp="linr"  time="0/1" value="1" leadInLength="0/1"  />
                 <InterpolatingParam id="1741" interp="linr"  time="0/1" value="1" leadInLength="0/1"  />
                 <InterpolatingParam id="1742" interp="linr"  time="0/1" value="1" leadInLength="0/1"  />
                </VectorParam>
                <VectorParam id="1743"  name="anchor">
                 <InterpolatingParam id="1744" interp="linr"  time="0/1" value="0" leadInLength="0/1"  />
                 <InterpolatingParam id="1745" interp="linr"  time="0/1" value="0" leadInLength="0/1"  />
                 <InterpolatingParam id="1746" interp="linr"  time="0/1" value="0" leadInLength="0/1"  />
                </VectorParam>
               </Transformer>
               <Parameters>
                <VectorParam id="1747"  name="sourceCrop">
                 <InterpolatingParam id="1748" interp="linr"  time="0/1" value="0" leadInLength="0/1"  />
                 <InterpolatingParam id="1749" interp="linr"  time="0/1" value="0" leadInLength="0/1"  />
                 <InterpolatingParam id="1750" interp="linr"  time="0/1" value="0" leadInLength="0/1"  />
                 <InterpolatingParam id="1751" interp="linr"  time="0/1" value="0" leadInLength="0/1"  />
                </VectorParam>
                <VectorParam id="1752"  name="geometryCrop">
                 <InterpolatingParam id="1753" interp="linr"  time="0/1" value="0" leadInLength="0/1"  />
                 <InterpolatingParam id="1754" interp="linr"  time="0/1" value="0" leadInLength="0/1"  />
                 <InterpolatingParam id="1755" interp="linr"  time="0/1" value="0" leadInLength="0/1"  />
                 <InterpolatingParam id="1756" interp="linr"  time="0/1" value="0" leadInLength="0/1"  />
                </VectorParam>
                <InterpolatingParam id="1757" interp="linr"  time="0/1" value="1" leadInLength="0/1"  name="opacity"/>
               </Parameters>
               <Effects>
                <GenericEffect id="1758" name = "VisualTransition" >
                 <Parameters>
                 <InterpolatingParam id="1759" interp="linr"  time="0/1" value="0.5" leadInLength="0/1"   name="leftFramePercentage"/>
                 <InterpolatingParam id="1760" interp="linr"  time="0/1" value="0.5" leadInLength="0/1"   name="rightFramePercentage"/>
                 <Parameter id="1761"   name="visualEdgeModType">
                  <Keyframes>
                  <Keyframe id="1762"  time="0/1" value="2" leadInLength="0/1"  />
                  </Keyframes>
                 </Parameter>
                 <Parameter id="1763"   name="visualTransitionType">
                  <Keyframes>
                  <Keyframe id="1764"  time="0/1" value="Fade" leadInLength="0/1"  />
                  </Keyframes>
                 </Parameter>
                 </Parameters>
                 <MetaData>
                 </MetaData>
                </GenericEffect>
               </Effects>
               <Attributes>
                <Attribute id="1765" value="" name="ident"/>
               </Attributes>
               <ExtraData>
                <Entry key="ZoomPanBin">
                 <ZoomPanBin id="1766"  >
                  <ZoomPanKeyframes>
                  </ZoomPanKeyframes>
                 </ZoomPanBin>
                </Entry>
               </ExtraData>
              </ImageTransition>
              <MetaData>
               <entry key="WinSubProjectDisplayName" val=""/>
              </MetaData>
             </UnifiedMedia>
            </Medias>
           </GenericTrack>
          </Tracks>
         </GenericMixer>
         <MetaData>
          <entry key="IsGroupExpanded" val="False"/>
          <entry key="WinGroupOrigin" val="Asset"/>
          <entry key="WinSubProjectDisplayName" val="Animated Title"/>
         </MetaData>
         <ExtraData>
          <Entry key="ZoomPanBin">
           <ZoomPanBin id="1767"  >
            <ZoomPanKeyframes>
             <ZoomPanKeyframe id="1768" timeRangeEnd="-9999999/1" timeRangeDuration="0/1" interpolaterName="linr"  />
            </ZoomPanKeyframes>
           </ZoomPanBin>
          </Entry>
         </ExtraData>
        </Group>
       </Medias>
      </GenericTrack>
      <GenericTrack id="1769"  >
       <Attributes>
        <Attribute id="1770" value="" name="ident"/>
       </Attributes>
       <MetaData>
        <entry key="IsLocked" val="False"/>
        <entry key="WinTrackHeight" val="62"/>
       </MetaData>
       <Medias>
       </Medias>
      </GenericTrack>
     </Tracks>
    </GenericMixer>
   <CaptionAttributes id="1771"  >
    <Attribute id="1772" value="1" name="captionsEnabled"/>
    <Attribute id="1773" value="Arial" name="captionsFontName"/>
    <Attribute id="1774" value="20" name="captionsFontSize"/>
    <Attribute id="1775" value="(0,0,0,255)" name="captionsBackgroundColor"/>
    <Attribute id="1776" value="(255,255,255,255)" name="captionsForegroundColor"/>
    <Attribute id="1777" value="en" name="lang"/>
    <Attribute id="1778" value="0" name="captionsAlignment"/>
    <Attribute id="1779" value="1" name="captionsDefaultFontSize"/>
    <Attribute id="1780" value="0.5" name="captionsOpacity"/>
    <Attribute id="1781" value="1" name="captionsBackgroundEnabled"/>
    <Attribute id="1782" value="1" name="captionsBackgroundOnlyAroundText"/>
   </CaptionAttributes>
   <Parameters>
    <VectorParam id="1783"  name="eyePosition">
     <InterpolatingParam id="1784" interp="linr"  time="0/1" value="0" leadInLength="0/1"  />
     <InterpolatingParam id="1785" interp="linr"  time="0/1" value="0" leadInLength="0/1"  />
     <InterpolatingParam id="1786" interp="linr"  time="0/1" value="3000" leadInLength="0/1"  />
    </VectorParam>
    <VectorParam id="1787"  name="eyeLookAtPosition">
     <InterpolatingParam id="1788" interp="linr"  time="0/1" value="0" leadInLength="0/1"  />
     <InterpolatingParam id="1789" interp="linr"  time="0/1" value="0" leadInLength="0/1"  />
     <InterpolatingParam id="1790" interp="linr"  time="0/1" value="0" leadInLength="0/1"  />
    </VectorParam>
    <VectorParam id="1791"  name="eyeUpVector">
     <InterpolatingParam id="1792" interp="linr"  time="0/1" value="0" leadInLength="0/1"  />
     <InterpolatingParam id="1793" interp="linr"  time="0/1" value="1" leadInLength="0/1"  />
     <InterpolatingParam id="1794" interp="linr"  time="0/1" value="0" leadInLength="0/1"  />
    </VectorParam>
    <InterpolatingParam id="1795" interp="linr"  time="0/1" value="0.23885785" leadInLength="0/1"  name="fov"/>
    <InterpolatingParam id="1796" interp="linr"  time="0/1" value="1.5" leadInLength="0/1"  name="nearClipDistance"/>
    <InterpolatingParam id="1797" interp="linr"  time="0/1" value="6000" leadInLength="0/1"  name="farClipDistance"/>
   </Parameters>
  </Timeline>
 </Project>
</GoProject>
</CSMLData>

</Project_Data>
